<svg enable-background="new -31.833 -33.181 245 295" height="295" viewBox="-31.833 -33.181 245 295" width="245" xmlns="http://www.w3.org/2000/svg">
	<g fill="#86005e">
		<path d="m13.203 190.185-6.791-16.32h-.092v16.32h-6.32v-31.989h6.32v14.879h.092l6.932-14.879h6.273l-7.391 14.833 8.09 17.156zm17.668.462c-6 0-9.023-2.881-9.023-7.857 0-6.418 4.746-8.414 11.438-9.301v-.836c0-2.367-1.391-3.48-3.578-3.48-2.098 0-3.953.598-5.301 1.299l-1.258-3.951c1.441-.793 3.953-1.861 7.723-1.861 4.691 0 8.227 2.322 8.227 9.205v14.926c-1.814 1.159-4.326 1.856-8.228 1.856zm2.414-13.525c-3.859.508-5.766 1.809-5.766 5.438 0 2.559 1.258 3.996 3.629 3.996.836 0 1.672-.234 2.137-.416zm21.195-7.488c-1.387-.695-2.977-.648-4.129-.094v20.645h-6.004v-23.664c2.277-1.352 5.484-2.096 11.25-1.816zm11.813 21.013c-6.145 0-9.164-5.578-9.164-13.018 0-7.438 3.02-12.971 9.164-12.971 6.18 0 9.156 5.533 9.156 12.971 0 7.44-2.976 13.018-9.156 13.018zm0-21.523c-2.652 0-3.113 3.811-3.113 8.365 0 4.559.512 8.275 3.113 8.275 2.695 0 3.164-3.717 3.164-8.227 0-4.556-.469-8.413-3.164-8.413zm13.902 21.061v-34.711l6.086-1.785v36.497h-6.086zm14.543-29.149c-1.758 0-3.207-1.488-3.207-3.258 0-1.813 1.449-3.252 3.207-3.252 1.816 0 3.305 1.439 3.305 3.252 0 1.769-1.488 3.258-3.305 3.258zm-2.972 29.149v-25.059h6.043v25.059zm22.972 0v-17.715c0-2.184-.887-3.393-3.027-3.393-1.254 0-1.863.139-2.504.463v20.645h-6.004v-23.664c1.992-1.117 4.832-1.861 8.652-1.861 6.133 0 8.965 2.51 8.965 7.811v17.715h-6.082zm16.313.462c-2.84 0-4.793-.604-6.227-1.857l1.48-4.422c.703.652 2.184 1.396 3.816 1.396 1.574 0 2.605-.93 2.605-2.322 0-1.816-.797-2.555-3.023-4.232-2.367-1.766-4.461-3.951-4.461-7.252 0-4.277 2.832-7.299 7.016-7.299 2.699 0 4.695.697 6.141 1.861l-1.445 3.859c-.605-.563-1.762-1.207-3.305-1.207-1.48 0-2.414 1.113-2.414 2.367 0 1.629 1.168 2.605 3.391 4.23 2.605 1.949 4.465 3.766 4.465 7.436 0 4.284-3.387 7.442-8.039 7.442zm24.73-.462-6.367-13.109h-.094v13.109h-5.996v-34.711l5.996-1.785v22.917h.094l6.414-11.479h5.957l-6.977 11.479 7.48 13.58h-6.507zm17.344.462c-5.996 0-9.023-2.881-9.023-7.857 0-6.418 4.746-8.414 11.445-9.301v-.836c0-2.367-1.406-3.48-3.59-3.48-2.09 0-3.945.598-5.297 1.299l-1.254-3.951c1.441-.793 3.949-1.861 7.719-1.861 4.695 0 8.223 2.322 8.223 9.205v14.926c-1.813 1.159-4.325 1.856-8.223 1.856zm2.422-13.525c-3.871.508-5.766 1.809-5.766 5.438 0 2.559 1.25 3.996 3.617 3.996.84 0 1.684-.234 2.148-.416v-9.018zm-165.879 52.375v-31.992h6.363v31.992zm23.475 0v-17.719c0-2.189-.883-3.396-3.02-3.396-1.254 0-1.861.143-2.514.473v20.643h-5.994v-23.672c1.996-1.113 4.832-1.857 8.645-1.857 6.137 0 8.975 2.512 8.975 7.811v17.719h-6.092zm16.322.463c-2.842 0-4.793-.607-6.232-1.865l1.484-4.42c.697.658 2.188 1.4 3.813 1.4 1.582 0 2.605-.928 2.605-2.328 0-1.813-.791-2.553-3.025-4.234-2.365-1.754-4.459-3.943-4.459-7.244 0-4.283 2.832-7.301 7.018-7.301 2.697 0 4.697.697 6.139 1.857l-1.441 3.855c-.604-.551-1.768-1.203-3.301-1.203-1.49 0-2.414 1.111-2.414 2.373 0 1.627 1.156 2.604 3.387 4.227 2.605 1.955 4.471 3.77 4.471 7.438-.002 4.281-3.399 7.445-8.045 7.445zm19.756-.143c-4.096 0-6.324-2.789-6.324-7.207v-13.662h-2.23v-4.516h2.23v-5.439l6.045-1.902v7.342h3.299v4.516h-3.299v13.018c0 2.322.783 3.109 2.045 3.109.559 0 .924-.141 1.254-.234v4.318c-.374.286-1.626.657-3.02.657zm10.129-29.476c-1.766 0-3.201-1.486-3.201-3.25 0-1.818 1.436-3.258 3.201-3.258 1.822 0 3.303 1.439 3.303 3.258-.001 1.763-1.481 3.25-3.303 3.25zm-2.973 29.156v-25.064h6.043v25.064zm18.965.32c-4.092 0-6.32-2.789-6.32-7.207v-13.662h-2.229v-4.516h2.229v-5.439l6.045-1.902v7.342h3.297v4.516h-3.297v13.018c0 2.322.791 3.109 2.049 3.109.555 0 .924-.141 1.248-.234v4.318c-.372.286-1.628.657-3.022.657zm15.859.143c-5.582 0-8.785-2.416-8.785-8.695v-16.832h6.039v17.533c0 1.994.977 3.248 2.934 3.248.922 0 1.762-.232 2.412-.602v-20.18h6.088v23.57c-1.807 1.157-4.744 1.958-8.688 1.958zm21.473-.143c-4.09 0-6.322-2.789-6.322-7.207v-13.662h-2.227v-4.516h2.227v-5.439l6.043-1.902v7.342h3.299v4.516h-3.299v13.018c0 2.322.793 3.109 2.049 3.109.559 0 .93-.141 1.25-.234v4.318c-.364.286-1.62.657-3.02.657zm12.039-10.086c.377 3.627 1.949 5.439 4.924 5.439 2.557 0 4.281-.699 5.258-1.309l1.352 4.232c-1.584 1.119-4.053 1.865-7.402 1.865-6.592 0-10.129-4.885-10.129-13.064 0-7.533 3.443-12.928 9.393-12.928 6.322 0 9.391 5.395 8.926 14.225zm3.26-11.394c-2.238 0-3.682 3.072-3.637 7.484l6.793-.838c0-4.224-.932-6.646-3.156-6.646zm20.867 21.48c-4.094 0-6.322-2.789-6.322-7.207v-13.662h-2.23v-4.516h2.23v-5.439l6.045-1.902v7.342h3.301v4.516h-3.301v13.018c0 2.322.787 3.109 2.041 3.109.564 0 .93-.141 1.26-.234v4.318c-.374.286-1.635.657-3.024.657z"/>
		<path clip-rule="evenodd" d="m75.207 59.259c-.406-1.127-17.607-.889-23.824-.847-1.988 0-6.543.157-6.543.157s1.313-5.479 9.49-3.962c3.281.613 5.264 2.689 9.328 2.21-.053-.251-.033-.234-.123-.37-.25-.472-1.336-.292-1.35-.979.98-.404 4.695 1.425 5.154 1.349-2.295-.899-1.68-.982-1.723-.982 0-.04 1.188-.659 1.842.366-.529-1.496-2.014-.324-3.313-.609-.531-.119-1.086-.34-1.719-.369.658-.617 1.334-.116 1.725-.031.082-.155.127-.103.24-.214-.346-1.538-4.268-2.508-6.258-1.842-.611.204-3.268-.946-4.176-1.229-3.514-1.087-8.451-.949-11.041.862-3.203 2.232-4.994 7.529-2.09 11.533 1.695 2.335 4.742 3.102 8.471 3.438-.434.427-.502.868-.246 1.838.494 1.879 1.189 3.302 3.068 4.787.539.431 1.734.765 2.088 1.353.299.496.404 1.086.611 1.593.656.037 1.309.08 1.965.124.006.17-.053 1.645-.053 1.645s-1.729.559-2.338 1.731c-.277.527-1.574 3.273 2.34 4.764-.361 1.389-1.695 2.49-3.02 2.904-.873.271-1.598.25-2.172.77-.426.404-.477 1.586-.477 1.67 5.357 0 10.617.012 15.973.012.154-1.004-.15-1.73-1.285-2.045-1.574-.58-1.469-.279-2.801-1.482 1.617-1.82.004-3.475-1.506-3.766 0-.578 0-2.174 0-2.174s1.234-.613 1.715-.839c1.799-.832 2.773-1.714 3.369-2.457.922-1.166.967-3.137.508-4.27 3.891-4.463 1.785-5.702 1.887-6.136.48-2.043 1.354-5.252 3.945-5.965.902-.25 2.768-.254 2.848-.254-.302-.864-.159-1.851-.509-2.284zm-22.305-.088v1.596h-1.191c-.041-.535-.08-1.065-.117-1.596zm-2.3.122c.082.404.129.909.121 1.474h-1.17c.133-.383-.049-1-.061-1.56.25.048 1.029.086 1.11.086zm-3.145-.085c.289.04.914-.081 1.199-.036.082.53.055 1.168.141 1.703-.359.004-1 .191-1.189.063-.001-.404-.174-1.102-.151-1.73zm-1.832.184c.289.043.652-.063.938-.021.08.527.055.979.137 1.513-.355.004-.734.027-.926-.103-.001-.408-.172-.763-.149-1.389zm1.514 2.481c.244.285.494.568.74.854v.124c-.887-.19-1.84-.49-2.457-.979h1.717zm-5.522-1.6c-.148-2.325.596-4.489 2.148-5.762 3.064-2.514 5.871-3.163 13.805-1.03 1.18.318 2.002-.205 3.1-.004.428.079.916.103 1.287.394-.031.184-.031.364-.031.364s-1.217-.459-1.652-.143c-.082 0-.363.363.242.735.867-.507 1.4-.146 1.596-.078-.945.594-.125 1.312-.125 1.351-2.936-.059-4.459-1.12-6.502-1.959-2.363-.977-6.355-.897-8.715.121-4.609 1.981-4.959 9.231 1.502 9.533.195.712.482 1.754.779 2.641-6.328-.271-7.42-5.934-7.434-6.163zm11.895 13.767c-.002-.007-.008-.013-.014-.021-.197-.159-1.592-1.145-2.643-3.136-.422-.918-.766-1.509-.406-1.889 1.275-1.025 2.059 3.412 3.049 5.024.022.015.029.022.014.022zm-.201-3.361c-.225-1.156-.092-2.294.869-2.246 1.596-.099 1.992 3.931 2.555 6.133.232.079-1.023.024-1.023.024s-1.743-.55-2.401-3.911zm3.115-.611c0-1.691 1.379-2.354 1.945-1.999.969.668.219 6.379.033 6.631-.275.005-.752-.035-.752-.035s-1.414-3.402-1.226-4.597zm-.446 6.471c-.016-.052-.303-.902-.32-1.103 2.691.183 5.258.171 8.117 0-.07.229-.529 1.078-.658 1.103-1.482.279-7.096.13-7.139 0zm4.899-1.874h-1.332c.102-2.632-.188-4.283.563-5.418.332-.628 1.516-1.602 2.25-.661.326 1.268-.68 4.247-1.481 6.079zm4.16-6.322c1.172.255.645 4.639-2.086 6.31-.162 0-.855.047-1.021.047.75-1.992 1.144-6.631 3.107-6.357zm-3.07 8.932s-1.809 1.124-3.992 1.534c0-.449.035-1.5.035-1.5zm.451 10.669c.746 1.307 3.971 1.531 3.318 2.029-4.334 0-12.43 0-12.43 0s.008-.107.055-.391c6.047-1.537 3.141-5.822 7.398-7.533.121-.051 0 3.994 0 3.994-.182.844.455 1.422-2.576 3.027.001.044 3.526-.464 4.235-1.126zm-5.496-3.029c-.018-.021-1.707-2.068-.275-3.619 2.24-2.426 7.5-2.42 8.252-5.964.211-.08 1.723-1.022 1.807-1.022.952 6.147-8.556 5.452-9.784 10.605zm8.314-10.434c-.629.372-.979.202-.988.202 0 0 1.732-1.191 2.457-5.044.574-1.324 1.336-1.267 1.701-1.021 1.635 1.021-2.095 5.422-3.17 5.863zm2.856-7.04c-.82.166-1.311.28-1.744.996-.334-.62-.25-.62-1.23-.952-1.287 0-1.779.416-2.17 1.049-.09-.563-.84-1.007-1.594-1.176-1.387 0-1.496.559-2.057 1.176 0 0-.436-1.33-1.717-1.217-1.18 0-1.844.714-2.031 1.509-.441-.476-.367-1.195-1.785-1.265-.568-.043-1.465.398-1.633 1.176-.078 0-.664-.714-1.313-.977-.08-.368-.734-4.423-1.805-5.516 0-.007.59-.237 1.41.307 1.141.616 1.648 4.361 1.648 4.361l.807-.544s-.053-2.385-.564-4.071c.314-.009.953-.089 1.297.321.615.675.887 3.325.887 3.325l.746-.533s-.203-1.964-.338-3.298c.355-.004.752-.023 1.107.438.475.698.676 2.416.676 2.416l.688-.682s-.195-1.118-.322-2.214c5.721-.087 12.492-.138 13.512.066.038.002-1.631 1.697-2.475 5.305zm6.201-6.811c-1.15.293-13.717-.46-20.236.137v-1.596c9.16-.422 20.188.34 20.188.34s.202.61.048 1.119zm67.863 2.798c-.471 1.672-1.779 3.082-1.861 3.082 0-.079 1.332-4.237-.469-5.431-.043 0 1.383 4.923-3.473 7.835 3.279-6.672.086-8.917.086-8.917s2.863 4.242-3.035 9.937c0-.08 4.438-7.321-2.242-11.148 4.707.865 4.811 4.576 4.512 7.219 2.133-2.951.145-6.731-1.471-8.338 3.955.915 5.734 5.283 3.604 9.25 2.383-2.032 1.57-7.004.508-8.102 4.055.875 2.813 6.071 2.813 6.071s.512-.842.742-1.524c.234-.691 1.186-6.762-6.398-8.337-4.293-.888-7.826 1.645-8.961 4.721-.943 2.577-.977 4.515-1.521 5.64-1.268 2.596-3.764-3.351-4.307-5.395-.486-1.803-.432-4.966 0-6.993.174-.825.555-2.091.492-3.194-.139-2.317-1.832-3.323-4.172-3.924-.645-.165-1.809-.57-2.863-.58 0 .081 1.828.541.895 1.93-.859 1.017-2.414.37-2.455.245 1.029.025 1.721-.216 1.967-.982-.041 0 .133-.581-1.967-1.104.041 0 1.184-1.104 3.439-.367.523-.831 2.473-2.906 3.191-.487.248-.395 1.418-1.271 1.473.366.656-.266 1.875-1.208 1.719 1.105 1.414-1.74 3.434-1.247.969 2.312-.637.761-.645.755-1.574 1.015.164.575.043.864-.012 1.824-.039.371-1.879 8.439 2.035 12.606-.082-4.143 2.922-8.33 5.998-9.201 1.074-.504 8.24-2.328 11.695 4.124.587 1.082 1.161 2.901.643 4.742zm-26.263-16.936c.898.004 1.184.305 1.84.491 0 .08-.941.83-1.102.736-.381-.126-.684-.971-.738-1.227zm4.882 41.327c-.234.283-.623.34-.857.613-.197.332.184.906-.086 1.154 0 .041-1.088-.883-.648-1.768-.215-.072-.389-.111-.736-.125-.379.533-.809.678-1.109 1.357h-.244c.014-.424.039-.676-.01-.752-.129-.092-2.836-.008-3.754 1.619-.039.041 1.471.115 2.785.115 0 0 3.473-.061 3.924.242.713.398-1.594.363-2.211.486-.822.168-4.088.195-4.775.209-.801.018-2.48.068-2.828-.088-.426-.213.047-.889.047-.889s1.855-2.086 3.387-2.668c1.08-.404 2.637.258 3.561.367.244-.418.541-.645.859-.977 1.139.299 1.365.008 1.885-.244.006.004.016.008.021.01-.002.01-.004.016-.004.016s.313.232.439.338c.09.141.254.338.48.375.131-.584.721-.584.9-.959 0-.281-.092-.582-.092-.869.211-.814.148-1.834.295-2.473-.123-.645-.127-1.428-.123-2.304 0-.041 1.102-2.708 1.055-4.204-2.596-.341-6.287-2.861-6.82-3.309v.119c1.205 1.138 4.029 3.699 4.66 5.159.715 1.648 1.039 5.917-.301 8.505-.004-.008-.027-.021-.055-.041-.053-.092-.082-.162-.082-.162s-.068-.063-.354-.191c.096-.328 1.939-6.701-1.121-9.066 0-.042-.131-.07-.174-.031-.145.166-.578.495-.777.596-.963.509-1.801.32-2.535.879-.172.296-.031.657-.121.983-1.039-.604-2.145-.744-3.93-.736-.117.955-.852 1.63-1.719 1.843v-.244c.57-.371.855-1.035.859-1.969-.039-.04-.078-.081-.121-.123-.371-.039-.738-.081-1.104-.12-.346.343-.98.559-1.229.981-.234.396.035.501-.369.735-.207-1.068.389-1.806.492-2.206.072-.53-1.463.519-1.463.322.693-.473.809-1.372 1.955-1.429.553-.007.832.767 1.475.948.74.216 1.629-.059 3.049-.336 1.072-.211 3.42-2.033 1.611-5.029-.543-.906-4.756-3.184-4.418-11.047.121-2.833 2.561-6.7 2.824-7.484-1.094-.282-.561-.987-.615-1.227-1.471.162-2.412-2.674 1.475-4.175-.066-.156-.191-.248-.246-.611.252.045 1.832.666 1.965 1.84-.164 1.163-3.281 6.993-3.926 9.573-.854 3.34.205 6.733 1.289 8.533.525.87 4.633 5.667 6.963 6.446 1.475.839 5.379 1.736 7.697 1.83-1.074.504-2.424.677-3.816.393-.27 2.389-2.164 3.585-1.582 6.358.246.041.492.08.734.125-.145.65-.686.639-.855 1.225-.189.66.473 2.014.367 2.457-.08.32-.6.775-.615.855.434.439.943.52.979 1.348-.211.502-.477.799-1.473.865 0-.084.303-.568.371-.984h-.371c-.195-.423-.167-.852-.734-.979zm12.151-23.353c-.371-2.234-1.807-3.024-2.316-3.481 3.842.803 4.301 6.986.895 9.109 0-.083 2.311-2.121.838-5.066-.822-1.641-1.324-1.756-2.389-2.595 1.55-.05 2.972 2.116 2.972 2.033zm-18.381-4.84c-.99 5.212 1.027 7.437 1.215 7.597-4.278-2.654-1.297-7.597-1.215-7.597zm4.211 11.261c3.563 3.93 6.576 3.354 6.961 3.229-4.563 2.042-7.006-3.161-6.961-3.229zm7.004 3.213c.004 0-.012.008-.043.016.015-.006.031-.01.043-.016zm1.078-1.189c-5.613 2.173-8.094-4.478-8.035-4.563 3.838 5.255 7.562 4.693 8.035 4.563zm.051-.018c.004.002-.02.009-.051.018.015-.004.031-.01.051-.018zm-1.008-2.651c0-.004.02.005.055.023-.024-.008-.036-.015-.055-.023zm2.164 9.02c1.244-6.388-1.695-8.738-2.109-8.997 5.406 2.637 2.207 8.985 2.109 8.997zm-1.086-9.721c-.004-.005.016.002.049.017-.014-.007-.033-.014-.049-.017zm3.43 8.614c.318-6.495-2.924-8.401-3.381-8.598 5.736 1.838 3.474 8.574 3.381 8.598zm-3.35-9.605c-.012-.001-.021-.001-.033-.004 0-.002.012 0 .033.004zm5.182 7.66c-.504-6.219-4.809-7.592-5.182-7.66 6.592.575 5.272 7.617 5.182 7.66zm-16.289-14.793c-.52 3.566.855 5.332.855 5.303-2.648-2.014-.914-5.303-.855-5.303zm13.828 28.767s-.389-.047-.705-.023c-1.158-.857-2.752-.949-3.834-1.211-.039-.08.385-.721 1.594-.732 2.343.22 2.945 1.966 2.945 1.966zm-3.555-.123c1.186.039 2.371.082 3.555.123 0 .082-.09.297-.436.297-.289.1-3.268.527-5.455.434-.816-.033-2.205-.209-3.064-.24v-.246c1.08-.202 4.793.062 5.4-.368zm-5.769-3.482.063.246-.027.074-.162-.066-.357-.357.07-.064zm-25.172-6.287c-.066-1.428-.066-3.236 0-4.661 4.461-.506 7.484-2.909 8.525-6.199 3.254-10.266-7.416-11.427-8.404-11.968-.039-.896.078-1.77.039-2.674 6.85-.882 9.273-7.113 5.605-12.541-1.555-2.303-6.545-3.191-6.625-3.191-.059-3.283-.443-7.853-1.525-9.712-.611-.573-1.018-.644-1.668-.719-3.75-.098-2.943 9.365-3.076 9.749-1.67-.205-3.074-.838-3.66-2.236-.527-1.269.176-2.397.176-2.397 2.264-.117 3.109-2.978 3.004-5.731-.033-.893-.344-2.23 0-2.819.029-1.429-.557-.814-1.23-1.515-.18-.273.242-.938.49-1.184.955-.943 2.037-1.904 3.197-2.702-.91.267-3.016 2.162-3.322 2.192-1.154.241.537-4.28.496-4.28-.424 1.008-.953 2.302-1.271 3.596-.262 1.053.838 1.301.043 2.296-.154.193-.52-.018-.859.124-.389.163-5.535 4.724-4.125 7.644.127.27.512.812.322 1.438-.256.833-.979 1.523-1.229 2.454-1.584 5.882 3.414 8.258 7.791 8.729.039.043-.023 2.523.029 3.795-4.426.476-7.98 2.138-9.656 5.392-.852 1.642-.988 4.442 0 6.139 1.945 3.348 4.848 4.763 8.584 6.378.01.739.029 3.348.029 3.633-4.037.825-7.984 2.438-9.842 5.447-1.201 1.94-1.182 5.089 0 6.999 1.512 2.439 5.961 4.973 9.447 5.4-.027.779.107 3.461 0 3.799-1.023.111-3.936 1.541-5.4 4.664-1.654 4.965 2.086 7.029 5.277 8.592-.018 3.961-.59 8.307-.494 11.287.543.854 1.078 1.529 2.09 1.846.414.189 1.621-.299 2.453-.246.363.021.465.104.615.246.771.73 4.193-.521 4.662-1.594.102-.238 0-2.283 0-3.197-.039-2.414-.08-4.498-.119-6.906.807-.756 1.955-2.129 2.568-3.053 3.32-5.016-2.07-4.738-2.938-4.641.039-.615-.055-1.188-.012-1.801 4.422-.857 8.133-2.031 9.199-6.279 1.98-7.892-6.005-9.511-9.186-9.593zm-4.993-50.403c.453-.614 1.121-.893 1.777-.509 1.307.756 1.475 7.012 1.617 9.063.098 1.361.465 7.332.123 8.345-1.014.233-4.264.787-4.264.787s-.983-14.401.747-17.686zm-3.23 12.727c.07-.902.658-1.917.516-2.094-.318-.167-2.766 1.109-2.848 1.109.242-.71 1.686-2.148 1.285-2.191-.18-.157-3.248.354-3.863.354 0-.041 2.133-1.156 2.043-1.353-.012-.245-2.773-1.007-2.9-1.104.416-.169 1.674-.429 1.639-.638.018-.372-1.004-1.096-1.639-1.446.416-.138 1.6-.299 1.695-.559.08-.638-.686-.897-.961-1.651-.059-.043 1.348-1.514.715-1.778-2.203-.908 2.443-7.25 2.795-7.225.822.038.9.188 1.371.509-.043 1.148-.625 1.573-.871 2.456-.205.747-.572 2.139-.473 2.973.387-.255.543-.558.857-.889-.17-.965.244-1.489.512-2.184.912 3.559-1.08 6.291-2.744 6.426-.004 0-.004.002 0 .004-.039.018-.07.121-.07.121v.001c-.293.757-.209.512-.332.972-.273 1.049-.039 4.179 4.268 4.502-.008 1.07.09 2.124-.014 3.07-.329.169-.946.615-.981.615zm-3.99 19.053c0-.041 2.375-1.677 2.271-2.03-.201-.597-4.828-.813-5.279-1.193-.377-.604 3.008-.129 3.066-.612.213-.433-2.943-3.15-2.943-3.192 1.293.42 3.449 1.958 3.934 1.54.355-.272-2.092-4.646-2.092-4.729 1.141 1.145 3.318 3.119 3.721 2.934.492-.298-1.02-3.966-.773-4.163 1.043.324 3.191 3.201 3.688 2.969.371-.174-.742-3.212-.742-3.335 1.369.697 4.604 3.437 5.014 3.286.459-.51-2.072-3.737-2.072-3.777 1.637.574 7.15 2.364 7.367 2.087.254-.358-4.299-3.397-4.299-3.437 6.559-.237 6.627-.652 6.627-.736.168-.553-4.943-1.842-5.027-1.842 2.959-1.048 3.76-1.596 3.801-1.596-.422-.724-3.426-.4-4.541-.367-.078-1.185-.162-2.469-.244-3.653 3.059.196 6.172 2.227 6.871 4.634 1.055 3.596.463 6.678-2.588 8.405-2.74 1.553-8.842 1.626-10.166 1.929-3.047.709-2.336 2.542-1.422 3.663.043 1.107.17 1.624-.053 2.339-.086.608-3.783 1.444-4.119.876zm6.777 6.929c-.205 0-.986.157-1.195.157 0-2.615.178-11.957-.059-12.708 1.568-.373 4.068-.475 5.832-.912.021 2.584.135 11.858.135 12.394-.262.372-3.191 1.004-4.031 1.003-.137-1.165-.309-8.557-.309-8.557s-.289 1.304-.373 1.304c-.029 2.237.043 7.277 0 7.319zm-5.076 15.983c.59-.922.688-1.887.809-2.377-.574-.162-6.131.092-6.131.053.885-.42 3.133-1.186 3.068-1.469.115-.633-3.865-2.512-4.168-2.949 1.434.194 3.943.996 4.047.61.186-.413-2.334-4.131-2.334-4.168 1.482.706 3.736 2.859 4.092 2.657.391-.152-1.148-4.051-1.148-4.13.973.647 2.961 2.773 3.318 2.574.221-.123-.615-3.518-.615-3.684 1.105 1.066 2.93 2.859 3.227 2.749.334-.041-.283-3.688-.283-3.729 1.49.992 3.564 3.338 4.053 3.25.449-.268-.738-3.226-.738-3.269 1.092.299 4.602 2.807 5.094 2.462.467-.789-2.271-3.262-2.271-3.302 1.475.205 5.59 1.034 6.018.366.203-.641-4.258-2.411-4.299-2.453.867-.237 5.227-1.517 4.879-2.111-.404-.641-5.385 0-5.123-.346.016-.611 2.871-2.075 2.813-2.545-.428-.729-2.664.182-3.793.214.004-1.522.105-3.052.121-4.417 3.197.344 6.051 1.832 7.242 4.297 2.281 4.737-.465 9.51-3.932 10.923-2.932 1.19-7.471.821-10.795 1.717-3.117.836-2.305 3.53-1.223 4.174v4.171c-.592.3-1.891.732-1.928.732zm9.773 4.421c-.08.217-.023.125-.121.252-.719.57-2.594.648-3.805.613-.082-2.779-.184-13.16 0-13.694 1.094-.162 3.723-.423 3.805-.423.039 2.293.334 12.897.121 13.252zm-4.332.881c-.637.182-1.027.27-1.561.35-.018-2.148-.092-12.955.354-13.648.152-.253.793-.314.875-.314.016 5.153.346 8.749.332 13.612zm-.207 26.366c-.492.045-.98.086-1.477.125.32-2.787.258-5.588-.365-8.223-.123-.514.506-1.947.43-2.225-.135-.496-.326-1.004-.406-1.357-.094-.412.088-.93.137-1.15.297-1.352.338-5.76.338-5.76s.207-.711 1.68-.834c-.001 0 .351 13.314-.337 19.424zm1.473.49c-.311-.039-.248-5.154-.248-6.336.48-1.125 3.559-4.094 3.559-4.094s.074 6.705.107 9.102c-.742 1.152-3.352 1.56-3.418 1.328zm4.707-13.928c-.07-.342-.525-.826-.455-1.109.088-.66 1.115-1.482 1.014-1.891-.289-.297-.809-.197-1.359-.107 0-.459.02-.676.02-1.131 1.379-.02 2.992.039 2.951 1.631-.033 1.279-2.684 4.145-4.643 6.105-.914.912-2.813 3.066-2.852 3.066-.008-.586-.004-1.035.248-1.35.178-.471 1.252-1.047 1.33-1.191.107-.336-.322-.443-.248-.627.281-.447 1.771-.961 1.99-1.188.117-.396-.031-.883.023-1.027.157-.628 1.864-.943 1.981-1.181zm-5.289-6.076s3.484-.412 3.527-.369c.002 1.379.311 4.822-.121 6.023-.404 1.096-3.152 4.164-3.193 4.164.01-2.455-.213-9.818-.213-9.818zm10.473-3.623c-1.572 1.068-5.387 2.547-10.402 2.65-5.1.098-5.016 2.84-3.93 3.402.066 1.01 0 .434 0 1.781-.695-.012-2.762.088-2.924.088 0-.045 1.299-1.027 1.229-1.416-.094-.391-2.625-.666-2.576-.795.053-.396 2.188-.578 2.307-.895.094-.469-2.469-1.652-2.432-1.813.328-.162 3.068.529 3.451.182.236-.387-1.979-2.346-1.979-2.385 1.404.24 3.402 1.307 3.535 1.1.24-.23-.955-2.488-.955-2.568.645.41 3.43 2.113 3.527 1.957.223-.154-.953-2.285-.953-2.328.766.225 4.352 2.59 4.705 2.473.408-.211-1.76-3.006-1.76-3.088 1.023.414 5.496 2.141 5.768 1.842.139-.287-2.697-2.418-2.697-2.457 1.602.012 5.555-.117 5.631-.521.078-.428-4.279-1.342-4.406-1.443.008-.188 5.068-1.766 4.766-2.148-.941-.357-4.971-.299-5.135-.299.199-.484 3.732-2.49 3.563-2.697-.266-.25-3.695.607-4.227.607-.102-.83-.059-2.264-.07-3.287 2.727-.027 6.25 1.211 7.363 2.92 2.022 3.114.958 7.546-1.399 9.138zm-62.25 16.16-1.945.48c-.146.029-.23.057-.387-.012-.219-.096-.336-.295-.336-.521 0-.293.258-.482.539-.482.113 0 .348.063.477.084l1.652.289zm.421-1.09-1.461-.914c-.258-.146-.555-.301-.555-.646 0-.305.229-.525.531-.525.365 0 .469.281.645.537l.934 1.443zm.094 2.156-1.07 1.662c-.143.209-.258.309-.527.309-.283 0-.5-.217-.5-.496 0-.338.277-.463.52-.625l1.461-.949zm1.022.012c-.604 0-1.115-.492-1.115-1.113 0-.602.479-1.113 1.105-1.113.594 0 1.105.49 1.105 1.08 0 .619-.464 1.146-1.095 1.146zm-.092-2.642-.42-1.924c-.033-.162-.059-.256 0-.406.07-.211.264-.34.479-.34.291 0 .559.244.559.537 0 .105-.072.346-.094.453l-.361 1.68zm.152 3.023.393 1.713c.025.102.084.334.084.453 0 .287-.279.516-.559.516-.248 0-.514-.254-.514-.516 0-.119.057-.352.082-.453l.348-1.713zm.93-2.668.922-1.441c.172-.279.279-.549.66-.549.281 0 .516.244.516.523 0 .379-.27.486-.563.672l-1.42.914zm.115 2.176 1.479.949c.254.162.523.277.523.625 0 .295-.23.533-.535.533-.232 0-.336-.102-.453-.277l-1.117-1.73zm.422-1.129 1.674-.332c.117-.027.352-.07.457-.07.277 0 .535.23.535.512 0 .266-.258.508-.525.508-.152 0-.324-.047-.467-.068l-1.674-.387zm95.846.146-1.947.48c-.15.035-.232.057-.385-.012-.219-.092-.338-.295-.338-.523 0-.289.26-.477.537-.477.115 0 .346.061.473.084l1.66.287zm.414-1.089-1.453-.912c-.254-.148-.563-.307-.563-.648 0-.303.236-.521.543-.521.357 0 .461.277.637.537l.932 1.441zm.095 2.156-1.072 1.662c-.139.209-.256.309-.52.309-.283 0-.508-.211-.508-.494 0-.338.285-.463.531-.627l1.451-.947zm1.026.011c-.605 0-1.121-.494-1.121-1.109 0-.602.48-1.115 1.109-1.115.59 0 1.107.488 1.107 1.082.001.617-.468 1.142-1.095 1.142zm-.094-2.646-.418-1.918c-.039-.164-.061-.258 0-.406.066-.209.268-.34.477-.34.293 0 .559.246.559.533 0 .111-.07.348-.094.455l-.359 1.676zm.154 3.029.393 1.709c.023.102.08.338.08.455 0 .285-.275.516-.561.516-.24 0-.512-.254-.512-.516 0-.117.063-.354.084-.455l.35-1.709zm.93-2.668.918-1.443c.174-.279.279-.545.668-.545.275 0 .51.242.51.523 0 .379-.268.486-.557.67l-1.422.912zm.117 2.176 1.479.947c.256.164.523.277.523.627 0 .291-.232.533-.533.533-.236 0-.346-.104-.459-.277l-1.119-1.732zm.42-1.129 1.676-.334c.117-.025.352-.07.455-.07.277 0 .533.23.533.51 0 .266-.256.514-.52.514-.156 0-.332-.047-.469-.07l-1.676-.389v-.161zm-68.834-94.973-.717.181c-.32.054-.566-.138-.758-.585-.246-.591-.625-1.698-1.066-2.983 0 0-.445-1.314-.457-1.35.008.012.059-.006.059-.006 0 .008.213.156.213.156.434.307 4.363 2.644 5.197 2.993.807.338 1.301.519 2.1.326l.992-.309s.848-.247 2.463-.438l1.59-.138c.164-.018.27-.06.252-.197-.012-.116-.092-.129-.26-.11l-.223.024c-.223.026-.387-.002-.488-.082-.082-.063-.127-.16-.145-.296-.018-.172.012-.533.121-.932l.559-2.238c.02-.088.043-.115.109-.121l3.342-.381c.068-.006.107.013.143.077l1.563 3.036c.027.052.035.096.035.135.014.045.012.1-.021.14-.021.031-.057.049-.094.057l-.006.004c-.137.031-.219.066-.207.178.016.115.174.106.418.089l.066-.004 2.832-.294c.451-.052.613-.091.668-.163l.004-.01c.016-.022.027-.05.023-.079 0-.023-.012-.042-.027-.058-.037-.063-.117-.065-.205-.054l-.635.011c-.35-.045-.801-.249-1.492-1.47l-3.02-5.558-1.75-3.229c-.186-.316-.297-.462-.449-.444-.164.02-.238.217-.363.659l-2.68 9.838c-.148.542-.301.998-.654 1.267-.355.182-1.115.101-1.115.101-.822-.033-1.633-.411-2.42-.777l-.143-.066c-.734-.337-4.559-2.397-5.301-2.888.314-.652 1.738-3.535 2.033-4.112.367-.72.74-1.224 1.174-1.589.24-.194.576-.371.771-.436.068-.026.111-.052.139-.082.035-.021.059-.059.059-.105 0-.069-.059-.13-.133-.13 0 0-.004.002-.008.002-.061-.006-.129.015-.186.033l-1.658.614-1.48.458c-.055.017-.096.035-.125.053-.055.018-.094.064-.094.122 0 .043.02.077.051.101.049.053.125.053.223.043.133-.019.223.048.281.206.012.037.018.08.018.131 0 .241-.154.618-.33 1.073l-.039.097c-.148.376-.695 1.552-1.184 2.583 0 0-.723 1.57-.727 1.573 0-.003-.023.006-.043.013-.012-.029-.229-.669-.229-.669-.729-2.134-.857-2.518-.984-2.979-.049-.184-.078-.332-.078-.459 0-.243.104-.391.318-.515l.383-.177c.043-.016.141-.052.164-.132.004-.011.012-.021.012-.035 0-.002-.002-.006-.002-.009 0 0 .002 0 .002-.002 0-.047-.025-.082-.061-.104-.006-.006-.01-.01-.01-.01-.057-.027-.146-.018-.303.035l-1.002.367-.707.264-.643.202-1.375.437c-.201.072-.318.139-.279.259.045.127.182.099.311.059.188-.065.441-.138.568-.148.51-.06.689.143.871.592.186.444.314.828 1.041 2.962l.881 2.563c.441 1.309.828 2.439.959 3.064.082.405.125.753-.135.904l-.494.233c-.109.037-.18.084-.191.146-.016.094.063.149.063.149.066.049.152.021.287-.024l1.117-.409.666-.249.652-.206 1.414-.451c.188-.062.27-.154.234-.257-.063-.132-.245-.061-.245-.061zm12.559-7.267c-.004.015-.023.021-.049.025l-2.758.317c-.018.003-.031 0-.041-.011-.012-.011-.016-.035-.012-.067l.955-3.84c.008-.076.031-.129.057-.132.029-.004.051.056.068.103.004.014 1.777 3.558 1.777 3.558.007.01.013.031.003.047zm4.174 120.094c-4.285-.131-6.338 2.877-6.428 5.732-.088 2.85 1.717 5.98 5.904 6.111 1.811.063 3.391-.494 4.564-1.594 1.162-1.098 1.83-2.654 1.889-4.402.108-3.482-2.164-5.724-5.929-5.847zm.134 11.08c-1.18-.037-2.213-.494-2.986-1.318-.988-1.055-1.5-2.635-1.445-4.43.055-1.699.496-2.945 1.316-3.725.805-.752 1.816-.883 2.52-.861 1.1.033 2.078.475 2.828 1.275.957 1.018 1.457 2.551 1.398 4.313-.136 4.379-2.586 4.775-3.631 4.746zm20.584-2.188c-.023.049-.084.078-.201.105l-1.799.414-.656.145-.688.189-1.803.488c-.154.027-.26.027-.289-.09-.027-.113.025-.18.094-.195.16-.039.877-.271 1.141-.402.412-.203.459-.414.389-.896-.105-.652-.408-1.885-.758-3.309l-.578-2.322s-.49-1.918-.49-1.924c-.088-.346-.127-.502-.33-.453-.193.051-.746.498-1.145.824l-.371.293c-.266.186-.361-.037-.361-.037-.027-.115.063-.213.102-.26.057-.041 2.383-2.568 2.818-3.088.109-.129.23-.262.348-.285.078-.02.189.014.258.277l.039.189c.102.492.375 1.801.83 3.637l.67 2.709c.336 1.354.656 2.643.875 3.275.158.453.277.648.764.629.225-.008.861-.117.982-.148-.001.001.277-.023.159.235zm8.489-6.564c-.73-1.773-2.736-1.979-3.824-2.086.064-.063.133-.133.197-.211.482-.504 1.383-1.76.785-3.201-.229-.557-.6-.943-1.111-1.152-.709-.297-1.65-.23-2.646.188-1.846.75-2.441 2.016-2.441 3.029 0 .326.064.629.166.879.426 1.025 1.404 1.576 3.076 1.725-.209.199-.404.422-.584.66-.602.764-.92 1.574-.92 2.367 0 .395.074.777.227 1.141.291.699.793 1.219 1.449 1.486.877.371 2.012.307 3.201-.189 2.434-1.007 3.061-3.101 2.425-4.636zm-3.828-2.078c.168.02.367.045.58.074-.211-.027-.412-.047-.592-.064.004-.002.004-.008.012-.01zm-3.604-1.192c.021.027.041.053.061.08-.051-.08-.096-.166-.137-.26-.096-.24-.146-.496-.146-.734 0-.219.041-.434.123-.625.174-.424.523-.746 1.039-.967.889-.369 1.793.051 2.195 1.02.541 1.314-.074 2.244-.484 2.68-1.063-.133-1.742-.336-2.184-.67.152.123.338.229.541.316-.471-.189-.801-.451-1.008-.84zm1.639 2.432c-.164-.02-.32-.039-.475-.063.156.023.318.035.482.055-.001 0-.003.008-.007.008zm3.199 4.75c-1.131.467-2.406-.113-2.908-1.318-.631-1.525.057-2.764.525-3.367 1.48.209 2.898.41 3.469 1.795.502 1.206.043 2.429-1.086 2.89zm11.537-5.281-1.604.926-.574.338-.611.385-1.576.984c-.135.078-.232.109-.297.002-.059-.098-.027-.182.033-.219.139-.084.754-.504.973-.705.33-.318.314-.533.102-.982-.299-.604-.977-1.73-1.701-2.934l-1.238-2.047-.65-1.057-.385-.625c-.127-.209-.211-.352-.309-.379l-.141.037c-.172.104-.559.678-.842 1.104 0 0-.277.408-.285.416 0 0-.182.271-.346.064-.063-.102-.008-.221.02-.271.039-.064 1.518-3.172 1.779-3.783 0 0 .162-.434.357-.402.068.018.139.088.213.211l.105.186 1.855 3.213 1.443 2.387c.723 1.193 1.406 2.33 1.805 2.869.281.377.453.533.918.377.219-.078.793-.375.893-.436.057-.035.146-.023.205.076.001-.001.108.148-.142.265zm5.395-11.506c-.596-.715-2.186-2.389-4.078-2.559-.934-.082-1.822.213-2.631.885-2.102 1.762-1.844 4.52.705 7.566 1.736 2.082 4.412 3.609 6.717 1.689.824-.699 1.289-1.547 1.375-2.537.134-1.511-.586-3.255-2.088-5.044zm.476 6.84c-1.426 1.197-3.818-.635-5.43-2.564-1.404-1.68-2.129-3.172-2.035-4.199.037-.42.205-.752.498-1 .344-.291.766-.41 1.256-.367 1.396.125 3.084 1.592 4.197 2.916 1.997 2.395 2.559 4.345 1.514 5.214zm-99.318-70.942c-.863-1.337-2.281-2.273-3.988-2.646-1.59-.34-3.051-.118-4.227.642-1.287.828-2.184 2.264-2.586 4.144-.906 4.193 1.688 6.749 4.48 7.351 2.789.602 6.197-.618 7.078-4.709.383-1.773.122-3.423-.757-4.782zm.117 3.993c-.568 2.654-3.221 4.024-6.449 3.333-3.998-.862-4.109-3.253-3.82-4.601.547-2.53 3.121-3.827 6.26-3.152 4.279.92 4.228 3.398 4.009 4.42zm-7.127-13.181c-.021-.06 0-.152.072-.313l.582-1.171.34-.678.324-.742.5-1.134c.086-.182.164-.294.281-.24s.09.172.016.326l-.207.555c-.096.364.037.581.535.846.418.231.787.402 2.824 1.357l2.465 1.152c1.727.811 2.676 1.255 3.049 1.087.293-.129.551-.404 1.068-1.503.355-.768.561-1.271.359-1.761-.096-.24-.395-.58-.641-.734-.109-.063-.205-.137-.145-.265.055-.115.154-.079.309-.011.16.075 1.133.647 1.477.946.273.229.301.346-.027 1.055l-.895 1.827-1.049 2.104-.117.255-.236.527-.41.956c-.063.128-.121.202-.182.226-.125.049-.17-.069-.17-.069-.02-.052-.006-.124.043-.231 0 0 .18-.513.18-.515.07-.293-.213-.502-.561-.727-.537-.338-1.619-.846-2.873-1.43l-2.406-1.126c-2.076-.977-2.453-1.149-2.902-1.327-.453-.181-.725-.194-1.035.219l-.25.424c-.055.114-.098.173-.154.192-.123.036-.164-.077-.164-.077zm33.158-33.224c-.061-.014-.117-.073-.184-.18-.066-.116-.367-.473-.836-.649-.375-.144-.965-.278-1.771.197-.637.371-.977.903-.977 1.451 0 .259.072.517.221.775.367.618.969.871 2.469 1.045l.523.059c2.299.296 3.371.835 4.098 2.066.203.339.453.905.453 1.601 0 .426-.094.894-.34 1.394-.35.693-.922 1.268-1.758 1.76-.797.467-1.424.703-2.1.78-.271.035-.357-.012-.525-.301l-.906-1.679-.033-.063c-.078-.156-.17-.378-.033-.455.145-.083.238.077.279.15.096.16.299.398.506.592 1.004.934 2.066.535 2.609.216 1.119-.662 1.277-1.772.861-2.486-.389-.651-.957-1.128-2.486-1.318l-.875-.112c-1.996-.262-3.084-.83-3.748-1.951-.373-.63-.475-1.325-.297-2.016.225-.866.883-1.662 1.854-2.238.801-.467 1.391-.663 1.863-.795.111-.036.223-.056.291.057l.116.211.754 1.378c.125.206.168.331.148.411-.051.126-.176.1-.176.1zm43.399 2.646c-.07.051-.188.043-.273.029l-1.627-.306-.686-.129-.699-.096-1.184-.171c-.211-.034-.305-.107-.285-.219.02-.119.166-.108.277-.091l.541.028c.303-.007.428-.249.543-.659.174-.609.367-1.764.611-3.226l.455-2.712c.365-2.195.432-2.589.48-3.067.053-.503-.051-.77-.354-.895-.172-.079-.379-.124-.523-.147-.127-.022-.252-.063-.227-.211.018-.114.17-.112.398-.076l1.094.212.832.158.717.104 1.102.158c.162.026.254.062.291.114l.018.073c-.025.146-.152.146-.283.124l-.451-.029c-.377.006-.549.194-.676.744-.107.475-.186.931-.555 3.144l-.438 2.618c-.234 1.4-.438 2.604-.486 3.263-.023.418.047.687.463.812l.744.185c.109.019.184.052.215.097.001 0 .038.119-.034.171zm27.629 3.18c.074-.108.277-.532.238-1.031-.023-.398-.148-.993-.922-1.528-.891-.614-1.805-.512-2.336.255-.406.589-.385 1.243.084 2.676l.17.502c.703 2.207.66 3.409-.15 4.584-.361.525-1.193 1.399-2.674 1.362-.771-.024-1.535-.305-2.332-.854-.76-.526-1.24-.997-1.594-1.578-.066-.105-.098-.183-.098-.261 0-.093.047-.189.152-.344l1.188-1.585c.109-.141.266-.31.395-.223.137.095.027.254-.02.324-.102.146-.23.43-.32.702-.426 1.303.381 2.102.904 2.457 1.068.739 2.143.416 2.613-.261.428-.627.619-1.342.152-2.809l-.264-.844c-.605-1.923-.549-3.146.195-4.221.41-.604 1.004-.987 1.701-1.115.881-.163 1.879.103 2.807.744.77.528 1.211 1 1.508 1.35.08.09.145.185.072.295l-.15.19-.93 1.263c-.16.237-.289.367-.418.28-.157-.077.029-.33.029-.33zm-.276 11.827c.09-.088.201.01.279.089l.426.343c.252.176.57-.021.871-.261.504-.384 1.344-1.208 2.326-2.162 0 0 4.416-4.299 4.441-4.325-.025-.024-1.596-1.554-1.596-1.554-.602-.579-.922-.812-1.32-.739-.297.056-.473.14-.547.183 0 0-.256.131-.311-.093 0-.052.035-.11.121-.196.178-.168 1.352-.915 1.467-.983.162-.1.275-.145.354-.07l.08.164c.041.11.096.256.242.433.275.348.656.78.996 1.13l4.166 4.278s.768.681.777.688l.135.095.207.15c.092.092.004.187-.145.334 0 0-1.283 1.189-1.283 1.191-.102.075-.211.151-.295.068-.035-.037-.049-.068-.049-.106 0-.067.055-.145.15-.25l.105-.128c.08-.088.152-.222.152-.422 0-.304-.176-.759-.787-1.416 0 0-1.268-1.367-1.268-1.395-.002.004-4.43 4.313-4.43 4.313-.99.966-1.84 1.797-2.258 2.304-.16.195-.305.391-.305.607 0 .114.039.235.135.359l.492.589c.088.091.115.156.115.207 0 .033-.016.059-.035.079-.076.074-.197.037-.334-.101l-1.143-1.219-.477-.51-.496-.486-.859-.844c.005.001-.234-.236-.099-.344zm15.951 1.507c.102-.064.217.072.326.237l.609.942.455.705.422.6.645.898c.088.13.172.292.074.358-.125.08-.215-.015-.285-.12l-.287-.352c-.271-.269-.525-.265-1.004.022-.412.24-.736.463-2.537 1.682l-2.328 1.571c-1.227.827-2.195 1.485-2.699 1.896-.316.269-.461.504-.268.895l.377.667c.117.181.082.257.027.292-.088.061-.195.005-.309-.154l-.904-1.397-.375-.58-.416-.583-.686-.964s-.217-.256-.037-.358c.102-.071.195.045.258.138l.355.412c.215.21.471.137.846-.064.564-.287 1.518-.936 2.727-1.751l2.287-1.547c1.863-1.261 2.201-1.486 2.578-1.78.404-.307.525-.571.406-.878-.047-.141-.137-.305-.25-.479.001 0-.159-.223-.007-.308zm-3.714 15.381s.273.47.275.472c.166.239.484.196.91.059.605-.188 1.686-.665 2.965-1.229 0 0 5.609-2.471 5.641-2.484-.043-.093-.953-2.014-.953-2.014-.361-.755-.58-1.079-.979-1.151-.303-.055-.492-.037-.578-.022-.098.018-.205.02-.254-.089-.051-.122.035-.187.178-.248.221-.096 1.576-.387 1.717-.412.191-.033.313-.037.352.063l.023.178c0 .114 0 .272.072.493.143.426.348.964.545 1.404l2.406 5.465s.484.909.488.914l.092.133.141.217.006.09c-.021.063-.1.103-.254.17 0 0-1.617.663-1.619.664-.119.038-.248.071-.295-.038-.016-.025-.023-.051-.023-.073 0-.083.084-.14.236-.222l.148-.08c.154-.084.35-.278.35-.723 0-.293-.082-.684-.303-1.221 0 0-.705-1.704-.705-1.748-.008.002-5.654 2.493-5.654 2.493-1.26.557-2.354 1.037-2.916 1.37-.285.16-.535.334-.535.646 0 .061.008.129.031.2l.256.727s.115.332-.127.295c-.08-.031-.139-.133-.174-.216l-.635-1.517-.277-.661-.305-.651-.504-1.069c-.059-.134-.105-.245-.047-.291 0-.002.172-.174.305.106zm14.945 10.999-.127-.42c-.135-.356-.367-.45-.922-.383-.475.059-.869.131-3.057.538l-2.168.398c-1.914.353-2.904.881-3.422 1.818-.414.755-.359 1.439-.266 1.958.07.37.32 1.301 1.172 1.884.939.647 2.232.469 3.824.18l1.852-.344c2.277-.419 2.67-.49 3.137-.607.473-.118.701-.266.713-.777l-.055-.54c-.025-.142-.029-.274.102-.296.123-.023.174.101.213.3 0 0 .266 1.685.271 1.717l.09.416.268 1.262c.029.164.027.255-.01.307-.068.086-.18.033-.18.033-.049-.034-.08-.106-.105-.239l-.127-.417c-.137-.354-.367-.454-.924-.382-.477.061-.873.131-3.088.541l-1.645.3c-1.695.314-3.443.463-4.736-.584-1.15-.934-1.486-2.039-1.645-2.898-.121-.649-.4-2.169.418-3.492.646-1.056 1.82-1.708 3.697-2.053l2.266-.421c2.18-.399 2.568-.473 3.035-.587.473-.118.699-.269.711-.782.008-.124-.023-.386-.059-.58-.027-.141-.035-.272.1-.3.123-.021.174.104.215.319l.223 1.369.131.799.152.728.229 1.092c.043.212.072.353-.086.372-.123.036-.197-.229-.197-.229zm-.143 12.182c.041-.036.111-.05.232-.042.24.012 1.58.355 1.719.397.188.052.297.1.287.209l-.059.168c-.049.105-.123.25-.15.475-.066.438-.121 1.016-.143 1.502l-.279 5.962s.023 1.008.027 1.037l.025.171.031.247-.035.083c-.047.042-.139.046-.307.038 0 0-1.746-.125-1.748-.125-.119-.021-.248-.047-.248-.161v-.007c.008-.137.105-.166.328-.168l.164-.008c.297-.011.807-.242.91-1.72 0 0 .129-1.865.148-1.875-.006 0-6.176-.293-6.176-.293-1.379-.059-2.568-.116-3.219-.073-.391.025-.742.079-.83.539l-.096.761c-.004.109-.027.186-.07.222-.084.062-.172-.013-.172-.013-.047-.05-.066-.146-.063-.271l.109-1.645.047-.717.016-.714.031-1.184c.004-.141.031-.231.082-.275 0 0 .211-.102.227.183.002.017 0 .031 0 .046l.037.54c.043.291.344.396.789.463.621.103 1.795.157 3.154.223 0 0 6.17.283 6.203.286.002-.1.045-2.229.045-2.229 0-.061 0-.122 0-.177 0-.713-.063-1.063-.361-1.289-.246-.181-.426-.248-.512-.276-.285-.102-.143-.29-.143-.29zm-10.474 12.729c.031.047.031.12 0 .233l-.07.536c-.016.303.301.455.688.613.582.227 1.715.514 3.031.846l2.629.67.094.025c2.158.545 2.543.645 3.014.729.475.096.744.055.971-.404.059-.111.139-.363.189-.553.031-.121.064-.191.115-.217 0 0 .086-.045.178.041.033.057.029.15-.016.322l-.316 1.182-.027.092-.232.82-.047.174c-.203.797-.816 3.225-.867 3.475l-.074.652.004.096-.004.164c-.023.105-.137.074-.176.066l-.137-.057-.783-.307-.289-.09-.658-.223c-.049-.025-.158-.084-.137-.199 0 0 0-.008.002-.018 0 0 .014-.109.168-.09h.092c.115.025.355.066.541.039.27-.029.482-.107.762-.828.09-.248.512-1.779.584-2.059l-.004-.061-.105-.055-3.693-.938-.131-.004s-.035.051-.035.059c-.328 1.281-.527 2.117-.564 2.334-.061.361-.072.578.053.77.086.121.137.197.117.27-.012.049-.047.117-.162.084l-.127-.049s-.91-.334-.914-.334c0 0-.963-.307-.967-.307-.115-.031-.289-.072-.254-.225 0 0 .051-.137.184-.111l.141.025.402.047c.354.004.588-.201.76-.656.102-.275.49-1.754.57-2.063l-.002-.049-.107-.055-1.156-.297-.605-.156-1.66-.418c-.973-.219-1.264-.104-1.648 1.43-.094.367-.25.982-.176 1.414.078.408.32.656.902.916 0 0 .338.148.137.311-.059.037-.156.014-.262-.014-.34-.088-1.297-.457-1.578-.604-.365-.201-.328-.35-.184-.904l.555-2.064.131-.453.428-1.508.195-.836.227-1.014c.035-.14.082-.225.139-.257-.006.004.101-.044.164.042zm5.572 13.795c.051-.016.119-.004.225.047.217.109 1.316.961 1.426 1.049.152.125.229.217.184.314l-.125.131c-.088.076-.207.174-.322.369-.24.387-.521.895-.729 1.328l-2.609 5.365s-.383.961-.387.965l-.039.158s-.07.242-.07.246c-.055.113-.176.068-.361-.023 0 0-1.557-.797-1.557-.801-.105-.066-.215-.145-.164-.254.061-.125.16-.105.371-.025l.154.063c.271.107.836.094 1.518-1.232 0 0 .852-1.65.875-1.654-.008-.006-5.563-2.705-5.57-2.709-1.24-.607-2.307-1.133-2.922-1.344-.363-.131-.715-.217-.973.164l-.391.668c-.09.193-.176.203-.23.174-.16-.09-.02-.35-.02-.35l.746-1.477.33-.627.287-.646.5-1.088c.061-.127.121-.197.188-.221 0 0 .096-.014.166.072.004.016.008.029.008.045 0 .049-.018.107-.057.184l-.184.508c-.01.035-.012.072-.012.105 0 .23.227.426.561.629.539.357 1.613.875 2.854 1.479 0 0 5.508 2.674 5.539 2.689.016-.029.924-2.027.924-2.027.221-.502.346-.838.346-1.109 0-.139-.033-.258-.1-.381-.154-.264-.293-.398-.359-.447-.055-.053-.111-.113-.111-.191-.002-.001-.014-.107.09-.146zm-105.924-63.319c.004-.056.041-.116.129-.197.109-.104.316-.312.434-.516.193-.342-.055-.695-.943-1.659l-6.045-6.565c-.156-.167-.348-.403-.209-.533.104-.094.268-.082.529-.061l.211.012c.035.003 3.479.219 6.723.294l3.227.142s1.158.054 1.457.069l.059.005.092.005-.033-.035-4.756-4.801c-.613-.626-.912-.773-1.287-.631-.227.091-.484.336-.641.484-.078.078-.145.112-.199.11l-.09-.047-.035-.081c.004-.084.09-.182.227-.313l.957-.864.396-.354.191-.198.852-.854c.131-.126.271-.246.367-.138.07.071.037.176-.104.309l-.293.341c-.213.357-.102.663.475 1.29l6.426 7.016c.123.128.193.233.221.316.008.02.012.041.012.063 0 .053-.02.096-.055.119v.003h-.004c-.004.005-.008.007-.012.01-.131.108-.363.114-.6.108l-3.455-.081-2.822-.074c-1.84-.041-3.793-.185-4.734-.257 0 0-.482-.037-.504-.033l4.48 4.482c.738.737 1.191.994 1.516.846.256-.113.475-.308.633-.461.102-.091.211-.173.297-.087.102.105-.012.24-.148.375l-1.07.97-.316.28-.176.181-.975.976c-.115.107-.193.168-.271.166-.116.01-.134-.132-.134-.132zm-2.043 3.27-.953 1.337-.416.573-.387.594-.65.997c-.08.113-.152.177-.223.187-.135.004-.15-.093-.15-.093-.01-.054.016-.124.08-.221l.262-.474c.117-.278-.045-.492-.371-.771-.48-.424-1.494-1.119-2.662-1.922l-2.318-1.599c-1.789-1.231-2.109-1.454-2.512-1.696-.438-.264-.727-.281-.967-.057-.111.095-.236.233-.354.409-.039.058-.082.109-.137.134-.02.012-.041.021-.068.021-.064 0-.115-.043-.123-.1l-.004-.002s0-.001 0-.004c0-.004-.002-.01-.002-.014 0-.006.002-.011.004-.019.006-.064.049-.157.146-.294l.645-.892.5-.693.41-.622.598-.919c.09-.127.201-.267.303-.194.123.084.064.2-.008.306l-.217.395c-.156.349-.059.583.385.927.385.297.723.534 2.615 1.837l2.184 1.509c1.223.838 2.188 1.503 2.752 1.819.369.195.639.246.934-.073l.482-.596c.117-.18.207-.175.258-.139.093.061.081.188-.036.349zm-11.621 41.558-.068-1.227-.035-.605-.004-.465-.021-1.756c-.01-.214-.064-.315-.182-.312-.088.002-.135.078-.131.204l-.037.734c-.041.419-.313.535-.795.601-.633.096-1.83.133-3.221.179l-.211.007-.08-.021-.025-.079-.012-1.312c-.002-.108.012-.19.088-.261l.98-.757 1.055-.803c1.18-.918 1.836-1.505 2.152-2.142.203-.412.264-.811.236-1.629l-.047-1.433c-.004-.119-.021-.196-.053-.241-.008-.009-.012-.015-.016-.021-.004 0-.004-.002-.004-.002v-.001c-.02-.023-.051-.039-.09-.039-.016 0-.033.004-.047.01-.051.014-.105.06-.102.197l-.031.424c-.039.246-.143.86-.965 1.708-.781.798-1.854 1.702-3.211 2.851l-.645.547c-.021-.025-.047-.047-.068-.073-.064-.071-.127-.146-.189-.213-1.051-1.142-2.023-1.639-3.172-1.604-1.09.038-1.813.74-2.047 1.104-.545.856-.59 1.9-.559 2.802l.109 2.126.008.601.016 1.463c.006.216.035.352.162.35.137-.008.15-.14.146-.285-.008-.193 0-.458.025-.581.09-.508.338-.62.824-.663.479-.048.893-.06 3.176-.135l2.67-.086c1.375-.041 2.57-.078 3.211-.026.41.046.754.105.824.399l.076.535c.006.116.023.189.066.227.02.019.047.035.078.035.023 0 .045-.012.063-.024.076-.036.109-.135.103-.308zm-5.689-2.733c-.039.1-.092.129-.252.134l-4.578.144c-.119.006-.168-.023-.197-.113-.045-.139-.072-.39-.084-.793-.018-.566.203-1.152.592-1.571.473-.504 1.172-.776 2.076-.801 1.391-.047 2.02.484 2.27.806.195.257.268.447.285 1.052.015.429-.028.859-.112 1.142zm8.943 16.519-.391-1.41-.09-.307-.35-1.561c-.037-.141-.09-.266-.232-.227-.113.031-.113.115-.074.266l.057.223c.098.395.006.607-.291.686-.164.039-.527.061-.941.008l-2.289-.26c-.092-.008-.121-.02-.135-.09l-.83-3.256c-.016-.07 0-.113.061-.156l2.799-1.957c.068-.055.129-.063.178-.059.002 0 .006-.004.01-.004.105 0 .139.066.199.199.039.066.086.1.164.082.109-.027.076-.184.029-.422l-.012-.068-.674-2.768c-.113-.438-.137-.613-.25-.638-.195-.026-.168.231-.168.231l.094.623c.006.351-.139.834-1.258 1.677l-5.098 3.733-2.969 2.176c-.289.219-.422.359-.383.504.043.164.248.205.707.275l10.109 1.33c.561.074 1.035.162 1.352.484.207.174.242 1.096.242 1.096.076.813-.188 1.67-.447 2.498l-.047.146c-.232.768-1.752 4.836-2.145 5.641-.697-.221-3.713-1.244-4.346-1.467-.764-.266-1.313-.568-1.736-.941-.225-.215-.447-.521-.533-.703-.049-.098-.09-.146-.141-.16l-.105.01-.068.07c-.018.061-.002.135.053.244l.828 1.555.656 1.408c.053.107.098.162.148.176l.102-.01c.102-.055.086-.15.059-.262-.035-.131.016-.225.164-.303.213-.107.672.004 1.248.148l.088.02c.391.096 1.617.479 2.699.814 0 0 1.672.514 1.676.514 0 .004.008.025.016.039-.031.016-.768.398-.768.398-1.863.926-2.252 1.119-2.682 1.301-.516.225-.766.197-.996-.107-.016-.02-.227-.357-.227-.357-.023-.051-.102-.199-.238-.137-.113.059-.078.189.012.373l.488.918.365.693.295.615.611 1.291c.078.156.135.23.197.252l.096-.01c.121-.063.072-.195.014-.314-.086-.176-.195-.416-.221-.543-.129-.492.045-.701.475-.941.406-.238.758-.416 2.719-1.396l2.525-1.266c1.225-.615 2.279-1.143 2.877-1.354.387-.133.727-.225.912.014l.293.459c.053.098.104.156.156.172.318.025.096-.367.096-.367l-.557-1.045-.334-.629-.297-.633-.637-1.33c-.084-.174-.189-.244-.285-.195-.043.021-.066.061-.066.113 0 .041.016.088.037.137 0 .004.275.682.275.682.018.059.027.117.027.172 0 .24-.166.457-.504.66-.543.322-1.574.84-2.766 1.432 0 0-1.285.645-1.318.66h.002c0-.02-.02-.053-.02-.053 0 .018.131-.236.131-.236.244-.469 2.029-4.682 2.266-5.553.223-.842.334-1.355.037-2.123l-.43-.922c-.143-.24-.295-.678-.295-.678zm-5.58-2.728c-.01.016-.035.023-.064.023l-3.936-.441c-.082.002-.131-.014-.139-.037-.006-.027.047-.055.092-.078.012-.004 3.287-2.24 3.287-2.24.012-.004.029-.016.043-.008.021.008.031.029.035.051l.686 2.689c.002.01.002.014.002.021s-.002.02-.006.02zm20.939 40.134-.457-.441c-.215-.285-.385-.75 0-2.094l1.844-6.111 1.049-3.471c.096-.346.121-.527.002-.625-.133-.102-.328-.016-.729.205l-8.879 5.014c-.775.436-1.271.592-1.832.258l-.377-.271c-.26-.115-.283.092-.283.092.006.064.057.121.174.217l1.156.883.258.189 1.217 1.041c.096.08.172.131.221.102.223-.111-.004-.322-.004-.322l-.176-.141c-.316-.25-.371-.482-.18-.721.105-.129.387-.365.75-.572l1.986-1.172c.074-.047.107-.049.158-.01l2.623 2.107c.057.043.068.09.047.16l-1.061 3.246c-.031.102-.09.146-.133.168h-.004c-.021.014-.047.023-.076.023-.029.002-.057-.004-.078-.016l-.01.002c-.117-.078-.203-.111-.271-.025-.072.09.049.197.236.355l.045.045 2.201 1.811c.357.283.496.371.582.361.22-.064.001-.287.001-.287zm.16-10.418c-.008.014-1.281 3.76-1.281 3.76-.006.012-.012.031-.029.037-.021.004-.041-.008-.053-.023l-2.168-1.725c-.016-.014-.023-.023-.023-.035 0-.02.016-.039.039-.063l3.406-2.018c.063-.049.113-.07.135-.049.021.015-.004.072-.026.116zm13.864 5.34c.066-.074.188.016.367.107l1.141.615.459.252.252.113 1.086.516c.164.088.32.176.254.313-.047.09-.156.092-.328.004l-.418-.172c-.41-.08-.656.133-1.063.883l-4.49 8.389s-.215.398-.41.33c-.156-.08-.24-.307-.311-.533l-1.066-3.268-.871-2.707c-.572-1.754-1.086-3.646-1.332-4.557 0 0-.129-.459-.137-.48l-2.74 5.711c-.451.938-.539 1.447-.295 1.709.189.203.441.348.643.449.111.057.17.109.189.162 0 0 .016.119-.09.152-.064.021-.16-.002-.322-.084l-1.287-.695-.352-.203-.225-.105-1.244-.596c-.141-.072-.227-.125-.25-.199 0 0-.039-.115.078-.166.055-.02.125 0 .23.051.133.074.398.197.631.242.389.068.641-.281 1.252-1.438l4.191-7.877c.117-.23.221-.355.316-.387 0 0 .195-.109.354.492l.057.197c.008.029.945 3.352 1.947 6.436l.934 3.082s.324 1.09.418 1.396l.027.086.023.094.021-.061c.064-.135 2.951-6.082 2.951-6.082.23-.477.338-.787.326-1.018-.004-.16-.061-.285-.16-.408-.16-.182-.471-.342-.668-.439.002.001-.256-.14-.088-.306zm16.117 5.561-.438-.072c-.416.002-.617.25-.859 1.068l-2.688 9.129c-.049.176-.096.289-.154.354-.031.037-.076.066-.127.066-.016 0-.029-.004-.041-.01l-.01.004c-.006-.004-.008-.01-.012-.01-.004-.002-.01-.006-.018-.008-.152-.061-.283-.26-.387-.451l-1.744-3.035-1.367-2.416c-.908-1.588-1.795-3.332-2.219-4.166 0 0-.23-.443-.246-.465v-.002l-1.52 6.146c-.254 1.02-.236 1.535.055 1.734.23.162.508.246.723.309 0 0 .332.086.168.289-.051.059-.166.029-.334-.018l-1.396-.418-.395-.121-.236-.057-1.346-.326c-.408-.094-.293-.26-.293-.26.055-.123.17-.098.289-.061.143.037.43.105.668.104.391-.012.566-.414.93-1.666l2.502-8.568c.063-.221.162-.502.35-.453.133.035.209.189.324.418l.098.188c.221.43 1.756 3.35 3.223 5.904l1.523 2.799s.658 1.213.738 1.375l.006.014.004.004.035.066.012-.041.004.002c.021-.08 1.654-6.566 1.654-6.566.09-.363.141-.629.141-.832 0-.281-.09-.449-.27-.59-.189-.146-.531-.24-.74-.295-.146-.043-.213-.092-.213-.176-.004-.076.059-.119.059-.119.07-.043.199-.018.379.031l1.238.379.508.152.277.064 1.162.287c.156.043.301.092.301.152 0 .002.051.24-.318.164zm28.254-112.617c-.059.138-.238.088-.406.024l-1.34-.566-.379-.166-.25-.087-1.283-.47c-.176-.071-.318-.14-.262-.284.047-.113.188-.072.289-.031.178.067.432.155.654.176.393.03.611-.34 1.102-1.555l3.414-8.248c.084-.214.213-.487.395-.417.129.05.188.211.277.456l.076.195c.014.03 1.273 3.262 2.564 6.218l1.238 2.999s.574 1.397.574 1.411c0 0 .006 0 .008.002l.025.058.014-.033s.025-.065.025-.063c.033-.078 2.326-6.278 2.326-6.278.158-.416.238-.71.238-.937 0-.21-.072-.358-.211-.493-.176-.161-.5-.294-.707-.372-.133-.052-.195-.109-.195-.182 0-.021.004-.04.012-.062.055-.132.238-.07.438.01l1.188.506.496.209.252.088 1.135.411c.152.063.254.115.281.187l-.061.161c-.061.024-.146.014-.271-.036l-.426-.117c-.414-.042-.643.186-.971.973l-3.654 8.785c-.082.218-.164.334-.25.371h-.125c-.164-.063-.27-.285-.367-.503l-1.391-3.184-1.113-2.58c-.74-1.685-1.43-3.512-1.764-4.396 0 0-.174-.452-.182-.47v-.002l-2.18 5.948c-.355.98-.395 1.497-.129 1.733.207.179.473.299.686.383.001 0 .261.087.21.228z" fill-rule="evenodd"/>
	</g>
</svg>
