<svg enable-background="new 0 0 285 285" height="285" viewBox="0 0 285 285" width="285" xmlns="http://www.w3.org/2000/svg">
	<path d="m0 0h284.545v284.545h-284.545z" fill="#006cb7"/>
	<path d="m147.68 258.716c2.479-2.814 5.136-5.801 6.984-7.649 3.667-3.667 7.452-3.628 7.452-3.628s-4.324-2.123-8.882 2.431c-1.226 1.228-3.974 4.319-6.784 7.47-1.015-1.139-2.02-2.266-2.951-3.304 1.032-1.132 1.997-2.162 2.803-2.969 3.667-3.667 7.454-3.628 7.454-3.628s-4.326-2.123-8.877 2.431c-.579.579-1.503 1.581-2.607 2.801-1.104-1.22-2.028-2.222-2.607-2.801-4.555-4.554-8.88-2.431-8.88-2.431s3.783-.039 7.453 3.628c.807.807 1.772 1.837 2.805 2.969-.931 1.038-1.936 2.165-2.951 3.304-2.81-3.15-5.559-6.242-6.785-7.47-4.557-4.554-8.879-2.431-8.879-2.431s3.782-.039 7.45 3.628c1.849 1.85 4.505 4.835 6.985 7.649-2.34 2.618-4.575 5.094-5.845 6.365-3.049 3.049-6.602 3.282-6.602 3.282s3.821 2.237 9.034-3.089c.965-.986 2.693-2.947 4.643-5.163 1.061 1.205 2.059 2.338 2.9 3.275-.625.673-1.182 1.26-1.616 1.694-3.049 3.049-6.603 3.282-6.603 3.282s3.822 2.237 9.037-3.089c.138-.142.295-.307.463-.485.168.179.325.344.463.485 5.208 5.326 9.033 3.089 9.033 3.089s-3.553-.233-6.599-3.282c-.435-.435-.991-1.021-1.617-1.695.84-.937 1.838-2.069 2.898-3.274 1.95 2.216 3.677 4.177 4.642 5.163 5.213 5.326 9.033 3.089 9.033 3.089s-3.553-.233-6.603-3.282c-1.271-1.271-3.504-3.747-5.844-6.365zm-5.408 3.276c-.916-1.006-1.921-2.125-2.951-3.277.977-1.108 1.979-2.241 2.95-3.323.972 1.082 1.974 2.215 2.951 3.324-1.03 1.151-2.034 2.27-2.95 3.276zm-95.702-160.698c.558 1.797 2.202 2.914 4.29 2.914.605 0 1.221-.098 1.828-.285.074.123.159.246.282.413.319.43.689.791 1.1 1.073.134.091.286.135.437.135.246 0 .487-.117.637-.335.241-.352.152-.832-.2-1.074-.27-.185-.517-.427-.731-.716-.046-.063-.078-.107-.109-.151.813-.496 1.481-1.146 1.887-1.919.514-.979.613-2.05.286-3.099-.312-.999-1.126-1.31-1.559-1.336-.053-.003-.103.021-.155.029-.052-.253-.115-.505-.193-.754-.748-2.379-2.903-4.291-4.535-4.15-.188-.157-.509-.359-.903-.225-.396.118-.549.439-.624.702-.408.231-.765.625-1.045 1.16-.696 1.324-.819 3.224-.314 4.838.077.249.168.491.269.728-.043.022-.093.029-.132.061-.34.268-.828.992-.516 1.991zm8.319-2.21c.082.527-.008 1.055-.266 1.546-.429.818-1.291 1.478-2.365 1.812-.469.147-.939.222-1.398.222-1.26 0-2.235-.548-2.681-1.484.495.127 1.006.151 1.321.151.749 0 1.542-.124 2.298-.358 1.278-.404 2.432-1.12 3.091-1.889zm-6.261-4.691c.188-.358.383-.525.512-.565.147-.047.26-.124.348-.214.123.023.26.021.409-.027.617-.187 2.383 1.111 2.998 3.065.202.645.286 1.306.26 1.933-.433.324-1.043.67-1.818.915-.606.188-1.241.288-1.837.288-.068 0-.121-.006-.183-.009-.378-.5-.696-1.078-.896-1.723-.44-1.41-.201-2.886.207-3.663zm15.759 19.674c1.046-.02 1.578-.714 1.727-1.122.018-.048.008-.099.015-.148.198.015.396.027.597.027.057 0 .115 0 .173-.002 1.69-.037 3.451-.761 4.484-1.844.416-.436.676-.899.766-1.363.2-.133.477-.379.466-.789 0-.417-.267-.659-.5-.806-.393-1.605-2.855-3.025-5.387-2.973-.261.006-.52.026-.774.058-.01-.053-.002-.107-.023-.157-.159-.389-.696-1.047-1.762-1.047h-.002c-1.255.03-2.376.607-3.157 1.626-.442.576-.738 1.278-.909 2.037-.05-.015-.099-.03-.17-.053-.336-.108-.646-.265-.922-.468-.344-.252-.827-.18-1.08.165-.252.344-.179.827.165 1.08.411.302.87.536 1.368.695.197.063.341.103.478.133.075 2.872 1.896 4.954 4.344 4.954.005-.001.098-.003.103-.003zm2.376-7.477c2.032-.072 3.847 1.219 3.862 1.84 0 .162.041.297.104.411-.059.114-.095.25-.089.411.003.126-.093.365-.374.66-.606.635-1.929 1.334-3.401 1.366-.671.017-1.329-.085-1.918-.28-.195-.507-.362-1.195-.381-2.017-.017-.803.112-1.485.277-1.998.583-.229 1.231-.377 1.92-.393zm-5.283 2.457c-.024-.998.244-1.914.755-2.582.299-.39.802-.847 1.586-.983-.512.873-.827 2.215-.8 3.533.03 1.286.386 2.626.968 3.492-1.43-.169-2.468-1.571-2.509-3.46zm-5.434 42.375c.145-.584.14-1.115-.011-1.561.109-.217.229-.57.011-.925-.208-.355-.557-.433-.83-.446-1.136-1.197-4.009-1.193-6.156.094-.223.135-.437.28-.642.434-.035-.041-.056-.092-.099-.126-.071-.056-.453-.329-1.027-.329-.352 0-.696.1-1.024.298-1.074.648-1.761 1.706-1.932 2.978-.097.72-.005 1.476.223 2.22-.051.012-.101.022-.174.038-.35.074-.697.092-1.029.053-.421-.052-.807.253-.857.677-.049.423.253.807.677.856.176.021.353.031.531.031.33 0 .665-.035 1-.106.201-.043.346-.077.482-.12 1.016 1.675 2.604 2.675 4.256 2.675.731 0 1.428-.197 2.067-.585.894-.537 1.011-1.403.939-1.83-.008-.049-.041-.088-.058-.134.23-.108.458-.229.679-.362 1.447-.875 2.616-2.377 2.974-3.83zm-6.191-1.515c1.759-1.054 3.947-.85 4.263-.331.081.146.186.246.3.314.006.129.041.265.125.402.065.108.101.364.003.759-.21.852-1.012 2.115-2.276 2.876-.576.348-1.193.584-1.802.706-.42-.343-.906-.854-1.332-1.557-.419-.7-.647-1.367-.756-1.899.393-.482.894-.919 1.475-1.27zm-3.364 4.756c-.516-.854-.739-1.785-.626-2.618.066-.49.278-1.144.889-1.644-.012 1.013.38 2.337 1.061 3.473.694 1.146 1.676 2.094 2.571 2.548-1.315.562-2.956-.194-3.895-1.759zm-17.401-1.625c.189.179.386.346.589.501-.026.041-.066.071-.084.117-.161.402-.231 1.275.531 1.989.761.718 1.715 1.098 2.762 1.098 1.367 0 2.772-.661 3.859-1.812.125.07.258.135.444.219.47.213.968.347 1.48.397.026.002.051.004.077.004.392 0 .728-.298.768-.697.042-.424-.269-.802-.693-.844-.343-.033-.677-.123-.995-.268-.064-.029-.107-.049-.153-.07.465-.832.71-1.733.683-2.606-.033-1.104-.474-2.085-1.272-2.835-.481-.456-.982-.552-1.317-.552-.364 0-.625.112-.696.146-.05.024-.082.07-.125.104-.168-.193-.347-.382-.538-.561-1.812-1.697-4.594-2.309-5.984-1.386-.241-.045-.624-.064-.905.25-.283.297-.258.651-.193.917-.242.402-.359.921-.341 1.524.044 1.498.871 3.212 2.103 4.365zm7.724-1.925c.028.923-.398 1.921-1.17 2.739-.801.855-1.806 1.347-2.756 1.347-.519-.001-1.002-.152-1.416-.443.976-.259 2.14-.991 3.05-1.956.914-.978 1.567-2.169 1.765-3.162.33.418.511.922.527 1.475zm-8.119-3.226c.107-.114.168-.236.201-.358.121-.04.239-.111.342-.23.438-.462 2.622-.203 4.115 1.197.496.466.894 1 1.178 1.555-.218.496-.58 1.1-1.135 1.693-.553.586-1.14.983-1.65 1.239-.562-.247-1.108-.605-1.597-1.068-1.075-1.007-1.593-2.408-1.619-3.285-.012-.406.075-.648.165-.743zm33.956 46.809c-.157-.584-.419-1.048-.766-1.363-.01-.241-.075-.608-.426-.803-.358-.222-.707-.118-.954.004-1.573-.499-4.085.896-5.34 3.061-.129.226-.246.456-.351.689-.051-.02-.094-.055-.149-.063-.04-.006-.166-.015-.206-.015-.652 0-1.252.367-1.604.98-1.009 1.749-.54 3.863 1.02 5.374-.04.035-.08.07-.137.12-.27.234-.556.412-.876.544-.395.162-.583.613-.421 1.007.123.299.411.479.715.479.098 0 .197-.019.293-.059.471-.193.909-.465 1.301-.805.153-.133.264-.234.364-.339.924.528 1.922.81 2.888.81 1.581 0 2.914-.745 3.654-2.038.526-.903.209-1.719-.06-2.059-.031-.039-.079-.058-.117-.09.149-.207.29-.422.418-.646.848-1.461 1.144-3.34.754-4.788zm-6.149 1.67c1.028-1.772 3.04-2.652 3.575-2.348.142.087.281.123.414.127.067.108.163.21.302.29.108.063.263.269.368.661.228.85.139 2.343-.6 3.617-.331.574-.746 1.072-1.208 1.471-.549-.094-1.248-.297-1.948-.699-.704-.408-1.224-.881-1.577-1.292.11-.612.336-1.238.674-1.827zm-.644 5.791c-1.414-.816-2.43-2.36-1.833-3.854.476.894 1.446 1.846 2.606 2.52 1.131.65 2.476 1.039 3.482.992-.869 1.114-2.677 1.255-4.255.342zm-6.06 3.345c-.174-.391-.633-.564-1.021-.39-.306.138-.64.223-.994.253-.075.007-.127.011-.18.015.001-.778-.132-1.528-.436-2.188-.537-1.165-1.502-1.976-2.718-2.282-.892-.223-1.673.231-1.954.632-.032.045-.037.1-.058.149-.242-.088-.49-.166-.744-.229-2.409-.601-5.138.226-5.9 1.705-.232.078-.576.247-.667.658-.102.396.09.692.275.893-.016.47.134.981.445 1.5.768 1.284 2.325 2.379 3.963 2.788.252.064.506.107.76.145-.004.051-.025.1-.018.151.055.43.42 1.224 1.433 1.476.332.085.669.127 1.002.127 2.051 0 3.827-1.597 4.432-3.973.005 0 .01.001.015.001.141 0 .289-.012.484-.028.526-.046 1.028-.174 1.492-.382.389-.175.563-.632.389-1.021zm-12.627-.076c-.208-.348-.249-.602-.218-.722.039-.153.034-.292.003-.416.085-.094.155-.213.188-.366.157-.619 2.193-1.456 4.175-.962.667.168 1.268.456 1.789.807.048.537.023 1.23-.17 2.009-.201.799-.517 1.434-.812 1.885-.622.061-1.283.016-1.939-.151-1.43-.359-2.566-1.331-3.016-2.084zm8.76 1.098c-.423 1.696-1.606 2.836-2.944 2.836-.087 0-.175-.005-.264-.015.763-.736 1.409-1.996 1.711-3.195.319-1.278.307-2.659-.001-3.624.731.3 1.125.862 1.332 1.312.351.764.411 1.717.166 2.686zm41.345 33.051h.064c2.853 0 5.021-1.838 5.045-4.271.016-1.046-.659-1.602-1.061-1.765-.046-.018-.094-.01-.142-.02.029-.254.047-.512.051-.771.023-1.691-.637-3.477-1.683-4.548-.42-.431-.873-.706-1.333-.813-.126-.207-.366-.496-.786-.496-.419-.012-.654.247-.808.47-1.617.335-3.13 2.778-3.168 5.277-.004.262.007.521.03.777-.054.008-.109-.002-.161.018-.406.15-1.096.685-1.106 1.729-.016 1.253.52 2.393 1.51 3.21.56.462 1.25.783 2.002.981-.017.05-.034.098-.059.168-.121.337-.289.64-.497.898-.268.333-.215.818.118 1.086.143.115.313.171.483.171.226 0 .45-.099.602-.288.316-.394.568-.846.748-1.347.07-.189.116-.33.151-.466zm-.302-10.709h.003c.164.019.3-.029.416-.09.112.064.248.106.411.106.125.001.36.105.643.396.614.629 1.265 1.977 1.245 3.449-.009.681-.149 1.326-.37 1.91-.506.17-1.188.308-2.005.308h-.001c-.806-.013-1.484-.167-1.991-.352-.208-.596-.333-1.249-.323-1.933.03-2.043 1.354-3.794 1.972-3.794zm-3.188 6.697c.853.548 2.18.905 3.595.928 1.306 0 2.589-.322 3.431-.835-.237 1.562-1.868 2.376-3.472 2.376l-.075-.001c-.998-.013-1.904-.314-2.553-.85-.38-.314-.822-.837-.926-1.618zm-1.011 9.085c-.205.272-.457.511-.747.707-.061.041-.103.068-.146.098-.856-1.531-2.286-2.495-3.871-2.495-.358 0-.719.049-1.072.145-1.007.271-1.352 1.071-1.397 1.502-.006.056.017.106.023.161-.253.042-.507.095-.759.163-2.401.658-4.38 2.718-4.314 4.377-.163.18-.376.494-.259.905.107.392.418.556.676.639.217.418.599.791 1.125 1.092.834.478 1.915.729 3.012.729.611 0 1.227-.078 1.81-.237.25-.067.495-.148.734-.24.021.044.025.093.055.133.228.308.736.667 1.415.667.182 0 .37-.025.557-.076 1.055-.285 1.901-.94 2.447-1.894.657-1.148.804-2.65.409-4.124.125-.068.251-.148.421-.264.433-.293.808-.649 1.115-1.057.257-.341.188-.825-.152-1.082-.341-.257-.824-.188-1.082.151zm-6.324 6.294c-1.418.39-2.886.095-3.649-.341-.354-.202-.515-.405-.545-.518-.04-.156-.113-.277-.202-.371.029-.123.031-.262-.014-.413-.166-.617 1.199-2.34 3.172-2.881.656-.178 1.319-.236 1.942-.188.308.445.632 1.069.847 1.854.211.783.249 1.482.209 2.021-.513.364-1.104.661-1.76.837zm4.272-.687c-.275.48-.672.838-1.162 1.05.29-.969.275-2.349-.069-3.624-.326-1.188-1-2.436-1.777-3.16 1.443-.176 2.779.971 3.262 2.75.298 1.093.206 2.181-.254 2.984zm48.663 10.056c.524 0 1.003-.031 1.121-.402.018-.056.024-.112.02-.168.008-.027.014-.058.016-.089.028-.355.048-.75-5.066-1.693.049-1.873-.056-5.631-2.33-7.094-.473-.301-.949-.452-1.415-.452-1.297 0-1.981 1.085-2.434 1.803-.075.119-.172.273-.258.396-.223-.176-.33-.617-.52-1.976l-.128-.874c-.21-1.431-.649-4.41-3.69-5.274-.381-.108-.747-.162-1.086-.162-2.187 0-2.803 2.058-3.171 3.287-.132.44-.353 1.179-.581 1.308-.387-.315-.379-2.313-.375-3.167v-.619c-.018-4.055-1.906-6.38-5.182-6.38-.337 0-.693.025-.998.068-.972.083-1.729.451-2.251 1.095-1.002 1.234-.781 3.022-.586 4.601.067.541.164 1.323.118 1.686-.12.035-.231.053-.333.053-.537.001-1.12-.591-1.788-1.816-1.213-2.183-3.137-3.435-5.279-3.435-2.096 0-4.1 1.202-5.496 3.3-1.398 2.104-1.604 4.533-.55 6.5 1.04 1.939 3.161 3.098 5.673 3.098.201 0 .406-.007.607-.021.216-.014.425-.021.625-.021 1.55 0 2.121.419 2.436 1.105-.288.232-.97.56-1.444.786-1.429.686-3.047 1.461-3.455 3.012-.231.879-.008 1.811.693 2.812 1.851 2.412 3.953 2.918 5.391 2.918 1.71 0 3.453-.735 4.906-2.068.195-.178.392-.363.591-.552.817-.771 1.936-1.827 2.583-1.827.078 0 .177.015.311.088.037.196-.221.825-.375 1.201-.404.985-.907 2.211-.358 3.419.371.816 1.121 1.407 2.295 1.809.691.235 1.375.354 2.035.354 2.499 0 4.039-1.678 4.778-2.484l.118-.128c.249-.264.477-.521.69-.763.724-.818 1.121-1.245 1.54-1.245h.011c.031.144.06.333.081.476.138.918.431 3.155 3.148 2.876 2.191-.229 3.906-2.172 5.115-5.739 1.992.263 3.413.398 4.247.398zm-9.602 3.033c-.227.024-.385-.014-.39-.014-.105-.108-.183-.626-.225-.903-.117-.778-.313-2.081-1.624-2.359-.258-.059-.513-.088-.758-.088-1.482 0-2.353.984-3.275 2.026-.199.225-.409.463-.646.714l-.134.146c-.634.689-1.591 1.733-3.072 1.733-.405 0-.838-.078-1.288-.23-.498-.171-.847-.385-.933-.573-.135-.298.157-1.01.392-1.582.423-1.031 1.13-2.756-.365-3.896-.52-.391-1.096-.589-1.713-.589-1.568 0-2.893 1.25-4.173 2.459-.19.18-.378.357-.566.528-1.026.941-2.212 1.46-3.341 1.46-1.314 0-2.543-.695-3.522-1.971-.148-.211-.387-.604-.321-.854.135-.514 1.387-1.114 2.215-1.512 1.43-.685 3.388-1.623 2.693-3.493-1.05-2.804-3.786-2.804-4.685-2.804-.247 0-.503.009-.779.026-1.891.13-3.389-.562-4.084-1.86-.644-1.201-.48-2.742.437-4.123.959-1.439 2.259-2.266 3.567-2.266 1.295 0 2.451.797 3.25 2.235.706 1.295 1.87 3.017 3.818 3.016.457 0 .929-.099 1.4-.294 1.535-.631 1.311-2.444 1.113-4.045-.125-1.008-.295-2.388.086-2.857.041-.051.166-.204.708-.252.261-.036.508-.054.742-.054.779 0 2.848 0 2.865 4.075v.598c-.007 1.754-.016 3.741 1.046 4.808.495.497 1.205.726 1.902.671 1.7-.131 2.187-1.758 2.543-2.945.523-1.746.727-1.754 1.406-1.561 1.477.42 1.803 1.84 2.03 3.384l.125.856c.245 1.751.498 3.561 2.592 4.032.121.025.244.038.366.038 1.081 0 1.654-.911 2.073-1.575.156-.248.418-.663.458-.723 0 0 .061.011.183.088.494.318 1.273 1.362 1.261 4.737-.561-.094-1.153-.191-1.802-.294-8.556-1.5-19.379-5.777-22.936-7.183-1.113-.439-1.113-.439-1.22-.439-.114 0-.217.049-.288.128v-.001c-.028.031-.05.065-.066.103-.016.036-.027.076-.031.117-.006.057 0 .114.018.168.248.725 14.247 7.394 24.139 9.138.651.104 1.257.197 1.842.285-1.066 2.937-2.221 3.686-3.033 3.771zm-59.804-162.398.146.224.021.129h.362c.166 0 .346-.003 1.45-1.205 1.434.773 3.374 1.655 5.195 1.655.785 0 1.482-.169 2.086-.51.645-.376 1.051-.873 1.207-1.475.256-.989-.269-1.871-.652-2.514-.066-.111-.151-.255-.218-.378.323-.096 1.005.149 1.8.418l.962.32c.674.226 1.692.567 2.807.567 1.381 0 2.537-.513 3.404-1.492.662-.69.988-1.428.971-2.194-.029-1.276-.994-2.194-1.769-2.932-.292-.278-.769-.732-.872-.959.028-.038.068-.046.192-.046.69 0 1.88.605 2.836 1.091l.425.215c4.028 1.919 7.195.824 8.31-2.638.339-.926.329-1.777-.028-2.529-.669-1.408-2.295-1.969-3.729-2.463-.49-.169-1.201-.415-1.487-.605.065-.476.367-1.09 2.41-1.099 2.372-.074 4.3-1.125 5.289-2.883 1.049-1.866.917-4.233-.364-6.496-1.189-2.094-3.182-3.345-5.333-3.345-2.422 0-4.527 1.535-5.619 4.079-.863 1.877-1.49 2.261-2.219 2.265-.074-.371-.068-1.104-.064-1.618.012-1.514.025-3.229-1.022-4.284-.361-.364-1.012-.797-2.063-.797-.251 0-.52.024-.835.08-2.21.458-3.88 1.544-4.831 3.141-.928 1.561-1.095 3.459-.49 5.466.082.294.174.598.268.907.477 1.573.827 2.894.253 3.149-.191-.051-.634-.564-.898-.872-.71-.823-1.594-1.848-2.977-1.848-.838 0-1.653.384-2.521 1.203-2.697 2.722-1.569 5.696-1.087 6.965l.062.164c.105.285.21.552.31.804.482 1.224.588 1.619.417 1.962-.135-.037-.303-.093-.43-.136-.464-.155-.991-.332-1.57-.332-.628 0-1.773.234-2.382 1.794-.818 2.057.174 4.495 2.922 7.243-.846 1.365-.725 1.64-.645 1.809zm-.124-8.204c.104-.265.23-.307.227-.327.202 0 .538.113.834.212.432.145.879.294 1.358.294.749 0 1.204-.364 1.463-.68 1.24-1.55.651-3.043.082-4.486-.094-.238-.193-.49-.293-.761l-.067-.179c-.547-1.442-.954-2.979.539-4.486.522-.492.806-.544.904-.544.322 0 .821.579 1.223 1.044.643.745 1.443 1.673 2.631 1.673.321 0 .642-.07.928-.199 2.536-1.06 1.646-3.996 1.057-5.938-.088-.291-.175-.577-.259-.878-.42-1.393-.332-2.65.255-3.637.609-1.023 1.754-1.735 3.273-2.05.146-.025.279-.039.402-.039.307 0 .391.084.419.112.368.371.357 1.733.35 2.635-.012 1.583-.028 3.752 1.913 3.929 2.663.267 3.918-1.69 4.804-3.618.726-1.692 2.036-2.703 3.502-2.703 1.306 0 2.546.812 3.317 2.171.871 1.539 1.002 3.076.36 4.218-.591 1.05-1.777 1.655-3.311 1.703-3.688.015-4.591 1.886-4.699 3.468-.091 1.653 1.657 2.256 3.062 2.741.903.312 2.14.738 2.392 1.269.03.063.121.255-.07.781-.588 1.827-1.662 2.039-2.419 2.039-.754 0-1.689-.255-2.683-.729l-.393-.199c-1.238-.629-2.641-1.342-3.886-1.342-1.049 0-1.869.502-2.323 1.441-.704 1.551.566 2.759 1.406 3.559.415.396 1.042.993 1.05 1.307.003.121-.12.322-.357.571-.452.509-.993.746-1.702.746-.737 0-1.508-.258-2.071-.447l-.955-.317c-.881-.299-1.642-.557-2.395-.557-.882 0-1.614.359-2.165 1.053-.838 1.023-.161 2.162.244 2.842.126.212.327.549.38.73-.022.018-.054.041-.097.066-.238.134-.552.202-.933.202-1.191 0-2.641-.63-3.626-1.131.824-.969 1.886-2.249 3.27-3.948 5.143-6.291 13.327-13.401 16.944-16.29l.094-.066c1.405-.993 1.405-.993 1.424-1.211l.012-.154-.214-.27h-.188c-.151 0-.234 0-1.591 1.083-3.123 2.206-12.585 8.892-18.061 15.572-1.438 1.767-2.491 3.125-3.262 4.177-2.364-2.467-2.344-3.836-2.099-4.452zm12.242 148.59c2.263 0 4.406-1.693 5.523-2.696.83.574 1.419.872 1.75.872.284 0 .413-.168.455-.241.008-.014.015-.028.021-.045.052-.047.092-.102.11-.157.069-.215.103-.359-1.215-1.668.82-1.332 3.043-5.036 1.577-7.538-.609-1.096-1.451-1.326-2.05-1.326-.722 0-1.361.339-1.875.612-.099.052-.224.118-.331.173-.068-.262.053-.704.478-1.827l.325-.869c.458-1.213 1.531-4.055-.677-6.211-.669-.742-1.413-1.119-2.209-1.119-1.234 0-2.173.91-2.928 1.642-.312.303-.833.809-1.024.813-.243-.402.828-2.32 1.18-2.95l.232-.418c1.115-2.131 1.386-3.999.805-5.552-.485-1.298-1.525-2.267-3.071-2.872-.486-.201-.96-.303-1.41-.303-2.224 0-3.097 2.226-3.735 3.851-.191.487-.468 1.192-.673 1.474-.463-.099-1.05-.444-1.084-2.351.092-1.896-.441-3.508-1.542-4.664-1.747-1.834-4.816-2.135-7.597-.703-2.189 1.127-3.5 3.119-3.508 5.331-.008 2.308 1.397 4.423 3.821 5.688 1.976.884 2.258 1.536 2.206 2.228-.243.037-.932.033-1.61-.002-.417-.021-.846-.042-1.262-.042-1.072 0-2.412.124-3.257 1.087-.569.648-.784 1.532-.638 2.643.537 3.688 2.951 5.979 6.302 5.979.672 0 1.373-.094 2.057-.272.295-.069.603-.149.914-.231.868-.227 1.765-.461 2.435-.461.6 0 .663.167.734.326-.057.187-.583.604-.898.854-.813.646-1.826 1.45-1.964 2.755-.093.882.236 1.766 1.047 2.747 1.147 1.25 2.542 1.884 4.146 1.884 1.152 0 2.128-.326 2.774-.541l.22-.073c.298-.099.578-.198.842-.292.654-.232 1.219-.433 1.586-.433.1 0 .202.009.341.1-.045.144-.118.332-.173.472-.32.822-1.17 3.005 1.337 4.05.472.182.982.275 1.513.276zm-3.022-7.216c-.767 0-1.506.263-2.362.566-.248.089-.512.183-.784.272l-.235.078c-.534.178-1.265.422-2.041.422-.941 0-1.739-.371-2.398-1.087-.335-.406-.514-.766-.491-.983.036-.339.626-.808 1.101-1.185.903-.717 2.268-1.801 1.61-3.496-.255-.678-.97-1.815-2.886-1.815-.967 0-2.011.272-3.021.536-.293.077-.582.152-.886.225-.519.136-1.022.204-1.498.204-2.211 0-3.635-1.42-4.007-3.98-.051-.387-.02-.678.085-.797.098-.111.425-.299 1.516-.299.378 0 .767.021 1.146.039.396.021.783.039 1.138.039 1.743 0 2.703-.605 2.848-1.757.455-2.776-1.642-4.097-3.456-4.905-1.579-.826-2.519-2.171-2.514-3.597.005-1.35.825-2.545 2.251-3.279 1.875-.964 3.809-.861 4.859.241.653.686.966 1.707.904 3.029.048 2.848 1.162 4.435 3.358 4.724l.176.008c1.528 0 2.148-1.578 2.694-2.971.417-1.061.935-2.381 1.58-2.381.142 0 .323.044.544.135.94.368 1.519.87 1.767 1.535.335.896.098 2.165-.676 3.644l-.214.386c-.852 1.526-1.818 3.256-1.382 4.726.187.63.611 1.135 1.234 1.463.315.162.649.245.993.245 1.083 0 1.907-.8 2.634-1.505.406-.394 1.02-.988 1.315-.988.079 0 .253.093.539.406 1.087 1.063.705 2.398.18 3.789l-.324.868c-.59 1.561-1.2 3.174.272 4.598.331.305.746.466 1.201.466.607 0 1.151-.289 1.632-.544.24-.128.643-.341.697-.374 0 .001.046.038.131.19.23.392.536 1.624-1.282 4.743-.922-.866-2.114-1.97-3.685-3.41-4.389-3.896-9.75-10.037-15.933-18.251-.692-.92-.692-.92-.897-.92-.047 0-.094.009-.138.025-.125.048-.222.165-.246.298-.138.754 8.38 13.756 15.804 20.368 1.481 1.357 2.748 2.464 3.809 3.334-1.431 1.204-2.655 1.821-3.641 1.821-.247-.001-.469-.04-.652-.111-.208-.087-.295-.162-.301-.163-.032-.15.157-.636.258-.896.285-.73.761-1.953-.194-2.832-.613-.595-1.331-.897-2.132-.897zm-30.801-43.431c.349.071.68.129.992.184 1.225.212 1.618.325 1.811.629-.102.096-.238.21-.342.297-.66.555-2.412 2.028-.804 4.139.894 1.171 2.345 1.765 4.312 1.765 1.25 0 2.438-.242 3.168-.416.83 1.761 1.108 1.775 1.318 1.775.138 0 .263-.062.347-.166l.164-.086c.101-.145.236-.355-.26-2.138 1.517-.859 4.874-2.931 4.94-5.698.015-.746-.197-1.351-.628-1.797-.71-.734-1.736-.748-2.486-.758-.127-.002-.291-.004-.429-.012.05-.265.37-.581 1.353-1.396l.667-.558c1.093-.91 3.369-2.805 2.541-5.806-.416-1.494-1.426-2.317-2.847-2.317-.674 0-1.359.181-1.963.341-.452.119-.919.243-1.223.243-.094 0-.13-.013-.144-.042.082-.483 1.74-1.485 2.448-1.913l.51-.311c2.042-1.271 3.204-2.736 3.454-4.357.216-1.396-.26-2.788-1.365-4.076-.828-1.116-1.792-1.351-2.454-1.351-1.409 0-2.661 1.009-3.765 1.898-.416.335-1.021.822-1.31.958-.379-.288-.685-.773.38-2.627 1.185-2.005 1.311-4.169.345-5.935-1.042-1.904-3.211-3.097-5.806-3.189l-.278-.005c-2.432 0-4.482 1.138-5.486 3.043-1.051 1.996-.781 4.496.73 6.697 1.188 1.689 1.024 2.504.684 3.06-.347-.127-.964-.521-1.395-.797-1.067-.682-2.277-1.454-3.52-1.454-.859 0-2.04.365-2.814 2.166-.737 2.036-.684 3.979.154 5.616.835 1.633 2.414 2.852 4.441 3.43.251.072.51.143.772.213 1.678.454 2.957.855 2.931 1.479-.146.128-.796.232-1.185.295-1.034.167-2.321.375-3.058 1.459-.497.731-.61 1.666-.346 2.859.839 3.754 3.945 4.364 5.272 4.624zm-3.184-5.163c-.163-.737-.04-.994.001-1.055.175-.258.947-.383 1.51-.474 1.083-.175 2.897-.467 3.09-2.327.234-2.66-2.56-3.417-4.6-3.969-.25-.067-.497-.135-.739-.205-1.406-.4-2.478-1.202-3.018-2.258-.538-1.051-.551-2.355-.063-3.707.303-.703.555-.703.662-.703.566 0 1.513.604 2.273 1.091.967.617 1.881 1.201 2.801 1.201.615 0 1.163-.266 1.57-.784 1.864-2.577.07-5.127-.511-5.954-1.023-1.491-1.236-3.057-.583-4.297.604-1.147 1.857-1.806 3.437-1.806l.197.003c1.768.063 3.209.807 3.854 1.986.573 1.047.464 2.342-.313 3.657-.562.977-2.271 3.948.422 5.782.322.235.706.36 1.109.36.986-.001 1.851-.697 2.853-1.504.726-.585 1.719-1.386 2.312-1.386.085 0 .286 0 .643.478.696.813.995 1.581.887 2.279-.141.91-.967 1.859-2.385 2.742l-.488.297c-1.514.915-3.229 1.952-3.522 3.45-.128.65.03 1.297.446 1.855.312.433.907.948 1.972.948.605 0 1.22-.163 1.815-.32.49-.13.997-.265 1.37-.265.257 0 .442 0 .615.621.397 1.438-.621 2.433-1.791 3.407l-.663.554c-1.326 1.1-2.697 2.235-2.028 4.236.439 1.243 1.762 1.261 2.552 1.271.247.003.641.009.824.058.004.031.006.073.005.13-.014.572-.49 1.753-3.33 3.473-.39-1.181-.91-2.677-1.615-4.613-2.653-7.602-4.154-18.099-4.795-22.581-.346-2.416-.346-2.416-.721-2.416l-.319.165c-.368.517.43 15.584 3.872 25.486.724 1.992 1.305 3.507 1.782 4.686-.616.13-1.426.264-2.236.264-1.207 0-2.038-.287-2.47-.854-.161-.212-.18-.316-.183-.316.042-.144.428-.469.636-.644.594-.499 1.588-1.336 1.151-2.581-.622-1.864-2.194-2.137-3.715-2.4-.289-.051-.596-.104-.923-.171l-.192-.038c-1.493-.29-2.988-.752-3.458-2.852zm1.136-49.325.132.112c.253.214.497.41.727.595 1.004.807 1.296 1.101 1.313 1.468-.139.035-.321.07-.458.096-.846.162-3.092.591-2.749 3.196.266 2.137 2.258 3.754 5.889 4.826-.056 1.412.143 1.667.241 1.785.082.099.28.2.421.182.041.015.08.022.118.021.263 0 .425-.025.833-1.727 1.657-.008 5.63-.147 7.126-2.571.388-.645.506-1.277.35-1.88-.255-.989-1.141-1.5-1.788-1.874-.105-.061-.24-.139-.354-.21.174-.197.6-.321 1.79-.549l.914-.178c1.292-.241 4.315-.807 5.025-3.85.727-3.052-1.965-3.741-3.259-4.072-.388-.1-1.02-.261-1.225-.408.004-.015.009-.021.014-.026.386-.42 2.204-.489 3.18-.526l.472-.019c2.345-.141 4.052-.86 5.074-2.138.875-1.094 1.178-2.509.902-4.202-.167-1.046-.835-2.8-3.449-2.8-.758 0-1.558.141-2.263.265-.567.1-1.102.195-1.481.195-.049 0-.089-.002-.122-.004-.156-.461-.167-1.187 1.501-2.13 2.043-1.161 3.233-2.979 3.264-4.991.034-2.158-1.271-4.254-3.491-5.608-2.626-1.597-5.764-1.267-7.609.736-1.209 1.313-1.781 3.172-1.611 5.236.167 2.065-.106 2.718-.795 3.078-.243-.286-.592-.927-.836-1.376-.813-1.492-1.824-3.348-3.691-3.348-.709 0-1.428.291-2.138.865-1.715 1.395-2.667 3.103-2.751 4.941s.724 3.688 2.261 5.191c.213.217.44.437.671.661 1.17 1.133 2.107 2.11 1.667 2.622-.264 0-.74-.173-1.16-.326-.642-.234-1.369-.499-2.123-.499-.983 0-2.291.454-2.935 2.626-1.07 3.7 1.364 5.743 2.403 6.615zm-.182-5.966c.285-.96.573-.96.711-.96.345 0 .846.183 1.33.359.629.229 1.28.466 1.953.466.78 0 1.434-.324 1.867-.906 1.73-2.157-.468-4.287-1.922-5.696-.217-.21-.431-.417-.647-.637-1.075-1.052-1.637-2.275-1.583-3.445.054-1.16.71-2.284 1.897-3.249.388-.314.604-.348.678-.348.491 0 1.221 1.34 1.657 2.14.712 1.308 1.449 2.66 2.799 2.66.267 0 .532-.059.736-.152 2.794-1.104 2.563-3.967 2.439-5.506-.116-1.413.241-2.648 1.006-3.479 1.113-1.208 3.014-1.353 4.701-.327 1.511.921 2.4 2.265 2.379 3.594-.019 1.187-.762 2.257-2.09 3.012-3.278 1.855-2.91 4.105-2.375 5.333.255.517.833 1.133 2.138 1.133.582 0 1.214-.112 1.884-.23.642-.113 1.305-.23 1.86-.23.925 0 1.07.271 1.162.852.167 1.023.024 1.826-.424 2.387-.586.733-1.764 1.173-3.384 1.271l-.44.018c-1.762.066-3.76.142-4.8 1.274-.441.481-.657 1.097-.621 1.825.145 1.697 1.842 2.132 2.965 2.419 1.779.455 1.737.632 1.579 1.296-.339 1.455-1.706 1.825-3.197 2.104l-.925.18c-1.653.317-3.362.646-3.749 2.674-.244 1.307.904 1.97 1.591 2.367.208.12.536.309.673.439-.012.027-.029.061-.054.104-.313.508-1.336 1.334-4.646 1.447.258-1.271.578-2.931.99-5.125 1.357-7.818 5.219-17.626 6.868-21.814.936-2.377.936-2.377.685-2.624-.068-.054-.156-.084-.243-.084-.934 0-7.665 14.542-9.339 24.12-.425 2.263-.693 3.957-.858 5.248-3.11-.994-3.731-2.141-3.81-2.773-.036-.271.003-.369.002-.369.103-.108.611-.205.883-.257.761-.146 2.035-.389 2.276-1.688.378-1.956-.889-2.974-2.114-3.958-.216-.173-.444-.357-.68-.556l-.141-.119c-1.17-.983-2.264-2.118-1.667-4.19zm194.393-26.958c-.029.042-.06.083-.103.142-.217.292-.464.535-.733.72-.352.242-.441.722-.2 1.074.149.218.392.335.638.335.15 0 .303-.044.436-.135.411-.282.781-.643 1.104-1.077.121-.165.205-.287.278-.409.607.188 1.223.285 1.827.285 2.088 0 3.732-1.117 4.291-2.913.312-1-.177-1.724-.515-1.995-.039-.031-.089-.038-.132-.06.101-.236.191-.478.268-.725.507-1.615.384-3.515-.313-4.839-.281-.535-.639-.93-1.043-1.16-.062-.235-.207-.578-.599-.694-.396-.135-.712.042-.926.214-1.641-.128-3.789 1.769-4.54 4.152-.078.249-.142.5-.193.753-.052-.007-.102-.032-.154-.028-.433.026-1.249.337-1.56 1.336-.373 1.197-.185 2.444.531 3.51.404.604.974 1.109 1.638 1.514zm1.21-6.621c.617-1.957 2.396-3.252 2.989-3.068.153.049.293.052.417.027.089.091.205.17.358.22.119.037.314.205.503.563.408.777.647 2.253.206 3.662-.2.646-.518 1.223-.896 1.721-.063.002-.115.009-.183.009-.596 0-1.23-.099-1.833-.287-.777-.245-1.389-.592-1.822-.917-.024-.627.059-1.287.261-1.93zm-1.993 2.428c.662.766 1.834 1.496 3.094 1.893.752.234 1.546.357 2.295.357.315 0 .827-.024 1.322-.151-.446.937-1.422 1.484-2.683 1.484-.458 0-.929-.075-1.399-.222-.951-.295-1.733-.843-2.202-1.542-.275-.411-.551-1.04-.427-1.819zm-5.05 10.035c.138-.03.282-.07.48-.133.496-.16.956-.394 1.365-.695.344-.252.418-.736.165-1.08-.253-.343-.736-.418-1.079-.165-.275.203-.587.36-.921.468-.073.023-.125.039-.176.055-.481-2.117-2.053-3.617-4.123-3.666-1.008 0-1.545.659-1.704 1.048-.021.05-.014.104-.022.157-.256-.032-.515-.052-.776-.058-2.507-.05-4.971 1.355-5.381 2.967-.209.128-.505.37-.504.793-.011.405.241.651.465.805.089.462.35.929.768 1.367 1.034 1.083 2.793 1.807 4.482 1.844.059.001.116.002.174.002.2 0 .398-.012.596-.027.008.049-.002.1.016.148.149.408.681 1.103 1.723 1.123.007 0 .102.001.108.001 2.447 0 4.27-2.084 4.344-4.954zm-6.926 2.163c-1.471-.032-2.793-.731-3.399-1.366-.281-.294-.378-.534-.375-.65.006-.162-.029-.298-.089-.414.063-.109.104-.241.104-.398.017-.639 1.829-1.9 3.861-1.859.689.016 1.338.164 1.921.393.165.513.294 1.194.278 1.996-.02.824-.188 1.512-.383 2.019-.587.194-1.241.295-1.918.279zm2.887 1.228c.57-.867.927-2.207.956-3.493.027-1.317-.288-2.659-.801-3.532 1.422.248 2.389 1.682 2.344 3.569-.041 1.881-1.074 3.281-2.499 3.456zm12.468 45.069c.641.389 1.337.586 2.069.586 1.651 0 3.24-1.001 4.256-2.675.137.042.282.077.484.12.333.071.666.106.996.106.179 0 .355-.011.531-.031.424-.05.727-.434.677-.856-.05-.425-.441-.729-.856-.677-.337.04-.681.021-1.026-.052-.075-.016-.126-.027-.178-.039.229-.744.32-1.5.224-2.219-.172-1.272-.857-2.33-1.933-2.979-.328-.198-.673-.298-1.023-.298-.575 0-.957.273-1.027.329-.044.034-.064.085-.1.127-.206-.154-.42-.301-.644-.436-2.134-1.28-4.983-1.29-6.145-.095-.244.007-.62.069-.833.436-.212.349-.115.688.004.933-.152.445-.157.979-.013 1.565.359 1.453 1.528 2.956 2.978 3.828.222.134.449.254.68.363-.017.045-.05.083-.058.132-.071.43.046 1.295.937 1.832zm5.647-5.53c.111.833-.11 1.763-.628 2.62-.938 1.562-2.577 2.322-3.894 1.757.896-.454 1.877-1.402 2.573-2.552.679-1.133 1.071-2.456 1.059-3.469.611.5.823 1.154.89 1.644zm-8.683-.993c-.098-.395-.063-.65 0-.754.084-.136.12-.271.126-.398.11-.064.211-.159.287-.298.331-.544 2.519-.749 4.277.305.582.351 1.082.788 1.477 1.271-.109.531-.337 1.197-.755 1.896-.427.704-.914 1.217-1.335 1.561-.609-.122-1.226-.358-1.802-.706-1.263-.762-2.065-2.026-2.275-2.877zm19.599-3.121c-.043-.034-.074-.08-.125-.104-.07-.034-.331-.146-.695-.146-.335 0-.836.096-1.314.55-.801.752-1.242 1.733-1.275 2.838-.026.872.219 1.773.683 2.605-.046.021-.09.042-.155.071-.314.144-.648.232-.992.267-.424.042-.734.42-.692.845.039.398.375.696.768.696.025 0 .051-.002.077-.004.513-.051 1.01-.185 1.476-.396.188-.084.322-.149.447-.22 1.09 1.15 2.494 1.812 3.86 1.812 1.046 0 2.001-.38 2.761-1.097.762-.716.692-1.588.531-1.99-.019-.046-.058-.075-.084-.116.202-.155.399-.321.587-.499 1.234-1.157 2.062-2.872 2.106-4.368.018-.603-.1-1.121-.34-1.521.061-.233.104-.604-.18-.901-.278-.311-.64-.312-.908-.267-1.365-.931-4.172-.322-5.996 1.387-.193.176-.371.363-.54.558zm-.699 5.921c-.771-.817-1.196-1.815-1.168-2.738.017-.553.197-1.056.528-1.475.197.992.852 2.184 1.767 3.163.908.964 2.072 1.696 3.049 1.954-1.172.823-2.932.42-4.176-.904zm6.387-6.579c.11.128.235.204.362.247.032.125.096.252.206.371.086.091.174.331.161.735-.025.877-.544 2.28-1.622 3.29-.488.463-1.039.824-1.607 1.07-.5-.255-1.087-.662-1.634-1.242-.557-.595-.919-1.198-1.138-1.695.284-.555.682-1.088 1.178-1.554 1.494-1.4 3.676-1.66 4.094-1.222zm-23.595 49.915c-.353-.615-.952-.982-1.604-.982-.041 0-.166.009-.206.015-.056.009-.099.044-.149.063-.105-.233-.223-.465-.353-.691-1.245-2.152-3.733-3.533-5.329-3.057-.219-.113-.58-.244-.933-.023-.358.199-.438.546-.454.818-.35.315-.612.779-.77 1.364-.389 1.447-.093 3.328.753 4.787.13.226.271.441.42.649-.037.032-.084.05-.115.089-.271.34-.589 1.155-.064 2.055.743 1.298 2.076 2.043 3.656 2.043.968 0 1.966-.281 2.889-.81.101.104.21.205.362.337.391.34.828.611 1.302.807.096.04.195.059.294.059.303 0 .591-.18.714-.479.162-.394-.025-.845-.42-1.008-.317-.131-.611-.313-.876-.544-.058-.05-.098-.085-.137-.12 1.559-1.511 2.028-3.624 1.02-5.372zm-8.305-2.091c.105-.393.259-.599.366-.661.137-.077.232-.177.299-.284.128-.003.263-.036.397-.12.545-.314 2.567.56 3.594 2.333.341.593.567 1.219.677 1.83-.353.411-.873.882-1.574 1.29-.702.402-1.402.605-1.953.699-.462-.397-.877-.896-1.207-1.472-.738-1.274-.828-2.767-.599-3.615zm5.301 7.061c-.697.402-1.438.616-2.144.616-.888 0-1.623-.337-2.11-.96 1.018.048 2.351-.342 3.484-.993 1.158-.673 2.129-1.625 2.604-2.518.596 1.493-.419 3.038-1.834 3.855zm20.073 1.014c-.739-1.475-3.484-2.311-5.91-1.71-.253.063-.5.141-.741.229-.021-.05-.026-.104-.058-.149-.282-.399-1.06-.855-1.955-.631-1.216.307-2.181 1.117-2.718 2.282-.304.659-.438 1.41-.436 2.188-.053-.004-.105-.008-.181-.015-.357-.03-.682-.113-.993-.253-.387-.174-.845-.001-1.021.39-.174.389 0 .846.39 1.021.464.208.966.336 1.49.382.2.018.349.029.489.029.004 0 .008-.001.012-.001.605 2.376 2.381 3.972 4.43 3.972.333 0 .67-.042.999-.126 1.016-.253 1.381-1.047 1.437-1.476.007-.052-.014-.101-.018-.152.253-.037.506-.08.757-.144 1.641-.41 3.197-1.504 3.966-2.788.31-.517.46-1.026.445-1.497.167-.175.385-.478.281-.87-.089-.411-.404-.588-.665-.681zm-10.145 3.349c-.245-.967-.186-1.92.166-2.684.207-.449.601-1.012 1.332-1.313-.309.965-.32 2.346-.002 3.627.302 1.198.948 2.457 1.711 3.193-1.455.162-2.757-1.013-3.207-2.823zm8.759-1.094c-.45.752-1.586 1.726-3.019 2.083-.649.165-1.308.212-1.928.151-.302-.452-.617-1.085-.818-1.884-.194-.78-.219-1.475-.171-2.012.521-.351 1.12-.638 1.786-.806 1.985-.493 4.02.343 4.172.938.035.161.105.285.193.382-.032.125-.038.267.003.423.031.122-.01.376-.218.725zm-48.501 34.097c-.026-.072-.043-.122-.061-.172 2.098-.557 3.539-2.171 3.515-4.189-.012-1.046-.701-1.579-1.107-1.729-.052-.02-.106-.01-.16-.018.022-.257.034-.517.03-.778-.039-2.486-1.538-4.917-3.162-5.271-.132-.197-.376-.476-.784-.476-.413.016-.665.261-.813.494-.458.104-.914.382-1.336.814-1.047 1.072-1.707 2.857-1.684 4.548.004.26.021.517.051.771-.047.009-.096.001-.141.02-.402.163-1.077.719-1.063 1.761.026 2.438 2.195 4.275 5.047 4.275h.064c.035.137.081.278.15.471.181.5.432.951.746 1.343.152.189.376.288.602.288.17 0 .341-.056.484-.171.332-.268.385-.753.117-1.086-.206-.257-.374-.56-.495-.895zm-2.774-10.246c.283-.29.519-.395.636-.396.162 0 .298-.041.411-.104.104.054.226.089.367.089.012 0 .021-.001.036 0 .641 0 1.965 1.75 1.996 3.793.009.684-.114 1.337-.321 1.931-.518.186-1.217.342-2.06.355-.78 0-1.441-.137-1.938-.305-.222-.586-.362-1.233-.371-1.915-.021-1.471.63-2.819 1.244-3.448zm-2.367 6.377c.846.513 2.142.835 3.521.835h.003c1.34-.022 2.652-.38 3.502-.927-.196 1.428-1.594 2.443-3.479 2.467l-.074.001c-1.602 0-3.231-.813-3.473-2.376zm16.004 9.274c-.251-.068-.504-.122-.757-.163.006-.054.028-.104.022-.159-.044-.432-.389-1.232-1.395-1.503-.355-.097-.717-.146-1.074-.146-1.585 0-3.015.965-3.872 2.495-.042-.028-.083-.056-.144-.096-.289-.196-.541-.435-.748-.71-.257-.338-.741-.408-1.082-.15-.34.258-.407.741-.15 1.082.31.409.685.765 1.116 1.058.17.113.294.193.419.262-.395 1.476-.247 2.977.41 4.124.546.953 1.392 1.608 2.447 1.894.188.051.375.076.558.076.679 0 1.186-.359 1.414-.668.029-.039.033-.089.055-.132.238.092.482.173.732.24.583.159 1.2.237 1.813.237 1.098-.001 2.177-.251 3.011-.729.522-.3.904-.67 1.122-1.089.23-.07.566-.23.677-.636.111-.396-.075-.7-.255-.904.081-1.649-1.906-3.723-4.319-4.383zm-4.753 6.375c-.489-.212-.887-.569-1.161-1.049-.46-.803-.553-1.891-.254-2.985.449-1.655 1.641-2.768 2.965-2.768.098 0 .197.007.297.019-.777.725-1.451 1.974-1.777 3.163-.344 1.272-.36 2.651-.07 3.62zm7.51-1.597c-.088.093-.162.213-.202.368-.033.122-.194.324-.547.526-.762.436-2.228.729-3.651.341-.653-.177-1.244-.474-1.759-.836-.039-.538-.003-1.236.208-2.018.217-.787.541-1.411.844-1.856.627-.049 1.29.009 1.944.187 1.977.54 3.341 2.263 3.18 2.862-.047.157-.046.299-.017.426zm-21.14-8.703c-2.143 0-4.066 1.252-5.283 3.442-.664 1.218-1.247 1.809-1.783 1.809-.102 0-.213-.018-.334-.054-.045-.361.052-1.145.118-1.686.195-1.577.416-3.365-.586-4.6-.522-.644-1.28-1.012-2.191-1.088-3.903-.532-6.22 1.833-6.238 6.303v.624c.004.853.012 2.849-.426 3.17-.177-.135-.397-.873-.53-1.313-.368-1.229-.984-3.287-3.171-3.287-.339 0-.704.054-1.089.162-3.038.865-3.477 3.844-3.688 5.275l-.127.871c-.191 1.37-.299 1.808-.519 1.98-.086-.123-.185-.278-.26-.398-.452-.718-1.136-1.803-2.433-1.803-.466 0-.942.151-1.42.455-2.271 1.46-2.375 5.217-2.326 7.091-5.115.943-5.094 1.339-5.065 1.694.003.031.009.062.017.09-.004.055.003.11.021.166.117.371.597.402 1.121.402.833 0 2.254-.135 4.244-.402 1.209 3.568 2.925 5.51 5.113 5.738.151.017.294.023.428.023 2.285 0 2.592-2.031 2.722-2.898.021-.143.051-.332.081-.476h.011c.421 0 .818.428 1.542 1.247.214.241.44.497.684.755l.124.135c.739.806 2.279 2.483 4.777 2.483.659 0 1.344-.12 2.035-.355 1.174-.4 1.924-.991 2.295-1.808.549-1.208.046-2.435-.358-3.419-.154-.376-.412-1.005-.387-1.165.146-.109.245-.124.322-.124.648 0 1.767 1.057 2.583 1.827.199.188.396.374.589.551 1.455 1.335 3.198 2.069 4.908 2.069 1.438 0 3.541-.506 5.421-2.96.671-.959.894-1.891.663-2.77-.408-1.551-2.026-2.326-3.455-3.012-.475-.227-1.156-.554-1.444-.786.315-.688.887-1.105 2.435-1.105.2 0 .409.008.617.021 2.83.198 5.165-.98 6.289-3.076 1.054-1.966.849-4.396-.55-6.502-1.398-2.094-3.401-3.296-5.497-3.296zm4.003 8.705c-.64 1.192-1.963 1.876-3.632 1.876-.147 0-.299-.005-.462-.017-.267-.017-.523-.025-.771-.025-.898 0-3.635 0-4.686 2.807-.693 1.867 1.265 2.806 2.694 3.49.828.397 2.08.998 2.215 1.512.066.25-.173.643-.29.813-1.01 1.316-2.238 2.012-3.553 2.012-1.129 0-2.315-.519-3.344-1.461-.186-.17-.373-.348-.563-.526-1.28-1.209-2.604-2.46-4.174-2.46-.617 0-1.193.198-1.72.594-1.489 1.136-.782 2.86-.359 3.891.235.572.527 1.285.393 1.583-.086.188-.435.402-.933.572-.45.153-.884.231-1.288.231-1.48 0-2.438-1.044-3.071-1.733l-.14-.152c-.23-.244-.44-.481-.639-.706-.922-1.043-1.793-2.028-3.277-2.028-.244 0-.5.029-.745.085-1.323.281-1.52 1.584-1.637 2.362-.042.278-.12.796-.219.898 0 .001-.148.047-.398.018-.81-.084-1.964-.833-3.029-3.769.586-.088 1.194-.182 1.848-.286 9.888-1.744 23.886-8.413 24.133-9.137.019-.055.024-.112.018-.169-.004-.041-.015-.08-.031-.116-.017-.037-.039-.072-.067-.103-.071-.078-.174-.127-.288-.127-.107 0-.107 0-1.22.439-3.557 1.405-14.381 5.683-22.931 7.182-.651.104-1.245.201-1.808.295-.013-3.374.767-4.418 1.257-4.733.065-.042.114-.065.132-.08.143.122.372.485.514.711.467.739 1.106 1.825 2.455 1.533 2.08-.468 2.333-2.279 2.577-4.03l.125-.854c.228-1.544.554-2.965 2.027-3.385.688-.193.886-.187 1.409 1.561.355 1.188.843 2.814 2.535 2.944.775.065 1.415-.172 1.91-.67 1.062-1.065 1.054-3.052 1.046-4.805v-.603c.017-4.073 2.086-4.073 2.864-4.073.234 0 .48.018.802.061.482.041.607.194.648.245.381.47.21 1.85.086 2.856-.197 1.601-.422 3.416 1.111 4.045.474.196.946.295 1.403.295 1.947 0 3.111-1.721 3.813-3.008.804-1.446 1.959-2.243 3.254-2.243 1.309 0 2.609.826 3.567 2.265.921 1.381 1.084 2.922.439 4.123zm36.413-29.248c-.417 0-.846.021-1.263.042-.683.036-1.371.039-1.612.001-.058-.671.21-1.333 2.273-2.258 2.359-1.234 3.764-3.35 3.756-5.657-.007-2.211-1.317-4.204-3.506-5.33-2.782-1.434-5.851-1.133-7.599.703-1.101 1.155-1.634 2.769-1.543 4.587-.035 2.048-.666 2.352-1.079 2.433-.206-.278-.485-.989-.678-1.479-.638-1.625-1.512-3.851-3.735-3.851-.449 0-.924.102-1.388.295-1.567.613-2.607 1.582-3.093 2.88-.58 1.553-.31 3.421.817 5.574l.22.394c.342.612 1.362 2.439 1.125 2.964-.242-.12-.69-.555-.97-.825-.754-.731-1.693-1.642-2.928-1.642-.797 0-1.54.377-2.158 1.066-2.262 2.212-1.186 5.055-.726 6.27l.324.868c.428 1.131.546 1.569.481 1.822-.112-.055-.238-.121-.337-.174-.514-.272-1.153-.611-1.875-.611-.6 0-1.441.23-2.036 1.303-1.48 2.525.743 6.23 1.563 7.563-1.318 1.307-1.284 1.452-1.215 1.667.019.056.056.134.137.197.028.053.064.101.103.132.069.056.258.114.347.114.33 0 .92-.298 1.749-.872 1.117 1.003 3.26 2.696 5.522 2.696.531 0 1.041-.094 1.544-.289 2.481-1.034 1.631-3.218 1.311-4.04-.056-.141-.129-.329-.174-.474.136-.088.24-.097.342-.097.367 0 .932.2 1.585.433.264.094.543.193.851.295l.212.07c.646.216 1.623.541 2.774.541 1.604 0 2.999-.634 4.187-1.931.771-.935 1.1-1.818 1.007-2.7-.139-1.305-1.15-2.108-1.964-2.755-.315-.25-.842-.668-.883-.865.056-.147.119-.315.719-.315.67 0 1.567.234 2.436.461.311.082.617.162.887.226.709.185 1.409.278 2.082.278 3.351 0 5.766-2.291 6.306-5.996.144-1.094-.072-1.978-.642-2.626-.845-.964-2.184-1.088-3.256-1.088zm1.603 3.395c-.457 3.131-2.462 4.587-5.534 3.787-.278-.066-.566-.142-.859-.218-1.01-.265-2.054-.537-3.021-.537-1.916 0-2.631 1.137-2.883 1.805-.662 1.706.703 2.79 1.606 3.507.474.377 1.064.846 1.101 1.185.022.219-.156.577-.45.937-.7.763-1.498 1.134-2.439 1.134-.775 0-1.507-.244-2.041-.422l-.228-.075c-.28-.093-.544-.187-.792-.274-.855-.305-1.595-.567-2.361-.567-.802 0-1.519.301-2.113.877-.974.899-.498 2.121-.214 2.851.102.261.291.747.269.876-.016.021-.103.098-.283.174-1.06.407-2.529-.184-4.323-1.696 1.062-.87 2.327-1.977 3.808-3.333 7.427-6.615 15.945-19.618 15.808-20.372-.023-.133-.119-.249-.245-.298-.044-.017-.091-.025-.139-.025-.205 0-.205 0-.895.916-6.183 8.215-11.544 14.356-15.939 18.26-1.569 1.438-2.76 2.54-3.681 3.406-1.817-3.12-1.512-4.353-1.269-4.769.036-.064.066-.106.074-.128.174.035.522.221.74.336.48.255 1.025.544 1.633.544.455 0 .87-.161 1.222-.485 1.45-1.403.842-3.015.253-4.573l-.325-.869c-.526-1.392-.909-2.729.229-3.846.235-.261.41-.354.488-.354.296 0 .909.595 1.315.988.728.705 1.552 1.505 2.635 1.505.344 0 .678-.083 1.002-.25.615-.323 1.039-.828 1.226-1.459.437-1.47-.53-3.2-1.383-4.728l-.201-.36c-.786-1.501-1.024-2.77-.688-3.667.248-.664.826-1.166 1.788-1.542.2-.083.381-.127.522-.127.645 0 1.163 1.32 1.579 2.381.547 1.393 1.167 2.971 2.694 2.971l.224-.013c2.148-.283 3.263-1.871 3.311-4.795-.062-1.246.252-2.267.905-2.953 1.052-1.104 2.987-1.205 4.86-.241 1.426.734 2.246 1.93 2.25 3.279.005 1.426-.935 2.771-2.449 3.565-1.878.84-3.976 2.16-3.527 4.895.151 1.193 1.112 1.799 2.855 1.799.354 0 .74-.019 1.137-.039.379-.019.768-.039 1.146-.039 1.091 0 1.418.188 1.517.299.103.117.134.407.085.777zm19.239-55.347c-1.243 0-2.453.772-3.521 1.454-.431.275-1.046.668-1.392.797-.348-.581-.487-1.397.688-3.07 1.503-2.19 1.773-4.69.723-6.687-1.004-1.905-3.055-3.043-5.487-3.043l-.28.005c-2.592.093-4.762 1.285-5.803 3.189-.966 1.767-.84 3.93.339 5.923 1.045 1.818.779 2.325.393 2.632-.318-.147-.909-.623-1.316-.951-1.104-.89-2.355-1.898-3.765-1.898-.662 0-1.626.234-2.403 1.288-1.155 1.351-1.631 2.743-1.415 4.14.25 1.62 1.412 3.086 3.457 4.358l.505.308c.708.428 2.368 1.431 2.437 1.943 0 0-.036.013-.131.013-.304 0-.771-.124-1.223-.243-.604-.16-1.288-.341-1.963-.341-1.42 0-2.431.823-2.847 2.319-.83 3.001 1.449 4.896 2.545 5.808l.661.553c.993.823 1.31 1.139 1.358 1.397-.14.008-.306.01-.434.012-.749.01-1.775.023-2.486.758-.432.446-.643 1.051-.628 1.802.067 2.763 3.424 4.834 4.94 5.693-.496 1.782-.36 1.993-.26 2.137l.359.189.044-.016.107.079c.21 0 .488-.015 1.317-1.775.731.174 1.919.416 3.169.416 1.967 0 3.418-.594 4.312-1.766 1.606-2.109-.145-3.582-.804-4.137-.104-.088-.242-.203-.344-.3.188-.3.577-.413 1.813-.627.312-.055.644-.112.989-.184l.176-.035c1.326-.26 4.434-.87 5.272-4.627.264-1.19.15-2.125-.347-2.856-.736-1.084-2.023-1.292-3.058-1.459-.388-.063-1.037-.167-1.151-.243-.059-.675 1.22-1.075 2.896-1.529.263-.071.522-.142.77-.213 2.031-.579 3.61-1.798 4.446-3.432.838-1.638.891-3.579.128-5.68-.746-1.736-1.926-2.101-2.786-2.101zm-16.595 30.004c.018-.021.036-.046.057-.073.013.02.038.03.045.053zm17.194-23.278c-.54 1.056-1.611 1.857-3.022 2.26-.239.068-.486.136-.736.203-2.039.552-4.832 1.309-4.597 3.987.191 1.842 2.005 2.134 3.089 2.309.563.091 1.334.216 1.51.474.041.061.164.317.002 1.052-.47 2.103-1.966 2.564-3.458 2.857l-.195.038c-.323.067-.63.12-.92.171-1.521.264-3.093.536-3.708 2.383-.443 1.263.551 2.099 1.145 2.599.208.175.597.502.635.631 0 .001-.012.105-.182.329-.433.566-1.264.854-2.47.854-.811 0-1.62-.134-2.236-.264.478-1.18 1.059-2.696 1.784-4.69 3.44-9.897 4.236-24.965 3.869-25.481l-.319-.165c-.375 0-.375 0-.72 2.41-.641 4.483-2.142 14.982-4.794 22.582-.705 1.939-1.226 3.437-1.616 4.618-2.84-1.72-3.315-2.9-3.329-3.469-.001-.059.001-.103.005-.134.184-.049.576-.055.823-.058.79-.011 2.113-.028 2.56-1.29.662-1.983-.71-3.12-2.036-4.219l-.659-.551c-1.172-.975-2.19-1.969-1.793-3.407.173-.623.358-.623.614-.623.373 0 .88.135 1.37.265.596.157 1.211.32 1.815.32 1.064 0 1.66-.516 1.961-.935.427-.572.584-1.219.456-1.87-.293-1.498-2.01-2.535-3.524-3.451l-.482-.293c-1.423-.885-2.248-1.834-2.389-2.743-.108-.699.189-1.466.937-2.344.307-.414.507-.414.593-.414.592 0 1.586.801 2.312 1.386 1.001.807 1.866 1.504 2.853 1.504.404 0 .787-.125 1.077-.338 2.725-1.856 1.017-4.828.448-5.817-.771-1.303-.88-2.598-.308-3.645.646-1.18 2.086-1.923 3.853-1.986l.198-.003c1.58 0 2.833.658 3.438 1.806.652 1.24.44 2.806-.575 4.286-.59.838-2.383 3.388-.49 6.002.379.481.926.747 1.541.747.92 0 1.834-.584 2.802-1.201.761-.486 1.707-1.091 2.273-1.091.107 0 .359 0 .637.639.509 1.415.496 2.72-.042 3.77zm-15.928-65.324c-1.846-2.004-4.981-2.334-7.611-.735-2.219 1.354-3.522 3.45-3.489 5.607.032 2.012 1.222 3.831 3.267 4.992 1.708.967 1.653 1.705 1.503 2.129-.034.002-.075.004-.126.004-.38 0-.915-.095-1.482-.195-.705-.124-1.504-.265-2.263-.265-2.613 0-3.282 1.754-3.448 2.796-.276 1.697.027 3.112.902 4.206 1.021 1.277 2.729 1.997 5.093 2.139l.452.018c.977.037 2.794.105 3.181.526.004.005.01.011.013.025-.205.147-.836.309-1.225.409-1.294.331-3.985 1.02-3.261 4.067.711 3.048 3.736 3.613 5.028 3.855l.913.178c1.192.229 1.617.353 1.79.549-.113.072-.248.149-.354.21-.647.374-1.533.885-1.788 1.874-.156.603-.038 1.236.356 1.892 1.489 2.413 5.464 2.552 7.12 2.56.411 1.719.573 1.727.84 1.727.044 0 .086-.006.126-.019.106-.006.325-.089.405-.186.098-.117.297-.372.241-1.785 3.63-1.069 5.623-2.688 5.888-4.816.345-2.613-1.902-3.042-2.748-3.204-.138-.026-.32-.061-.459-.097.015-.364.306-.658 1.315-1.469.229-.184.473-.38.728-.596l.131-.11c1.038-.873 3.471-2.915 2.4-6.624-.642-2.164-1.948-2.618-2.933-2.618-.753 0-1.48.265-2.122.499-.421.153-.896.322-1.221.288-.38-.474.558-1.45 1.728-2.583.231-.224.458-.444.655-.645 1.553-1.519 2.361-3.368 2.277-5.206s-1.035-3.547-2.753-4.943c-.708-.574-1.427-.864-2.136-.864-1.867 0-2.88 1.856-3.692 3.349-.245.45-.596 1.093-.839 1.378-.678-.339-.963-.979-.792-3.079.172-2.066-.401-3.926-1.61-5.238zm1.691 10.532c.255.115.52.173.787.173 1.35 0 2.086-1.352 2.799-2.659.436-.801 1.166-2.141 1.658-2.141.074 0 .291.034.677.346 1.188.967 1.845 2.091 1.897 3.25.054 1.17-.508 2.393-1.598 3.459-.2.204-.415.411-.632.621-1.455 1.409-3.654 3.539-1.947 5.665.458.613 1.112.937 1.892.937.673 0 1.323-.237 1.952-.466.485-.176.985-.359 1.33-.359.139 0 .427 0 .709.952.601 2.08-.494 3.215-1.667 4.2l-.138.117c-.237.2-.466.384-.681.557-1.227.985-2.495 2.003-2.118 3.951.242 1.308 1.517 1.551 2.277 1.696.273.052.781.149.879.25.001.001.044.096.006.384-.077.625-.699 1.771-3.809 2.765-.165-1.29-.433-2.982-.857-5.243-1.675-9.583-8.406-24.125-9.34-24.125-.103 0-.204.042-.277.114-.217.217-.217.217.721 2.598 1.648 4.188 5.509 13.994 6.867 21.815.412 2.193.732 3.849.99 5.12-3.311-.113-4.333-.938-4.64-1.436-.028-.048-.048-.086-.061-.115.138-.13.466-.319.673-.439.687-.396 1.835-1.06 1.589-2.371-.385-2.024-2.094-2.353-3.746-2.67l-.926-.18c-1.491-.279-2.857-.649-3.198-2.109-.157-.659-.199-.836 1.58-1.292 1.123-.288 2.82-.722 2.969-2.462.032-.685-.184-1.301-.625-1.782-1.039-1.133-3.037-1.208-4.8-1.274l-.42-.017c-1.64-.099-2.816-.539-3.403-1.272-.448-.561-.591-1.364-.424-2.392.092-.576.236-.847 1.161-.847.556 0 1.219.117 1.86.23.67.118 1.302.23 1.885.23 1.304 0 1.882-.616 2.161-1.184.511-1.176.88-3.427-2.396-5.281-1.331-.755-2.074-1.826-2.093-3.013-.021-1.329.869-2.672 2.378-3.593 1.69-1.028 3.588-.883 4.702.326.766.831 1.123 2.066 1.007 3.48-.123 1.541-.355 4.403 2.39 5.486zm-45.161-47.296c-1.28 2.261-1.413 4.628-.363 6.495.989 1.758 2.917 2.809 5.32 2.883 2.03.008 2.317.631 2.379 1.098-.286.19-.997.436-1.488.605-1.434.495-3.059 1.055-3.729 2.463-.357.752-.366 1.603-.042 2.486 1.136 3.528 4.255 4.622 8.345 2.67l.405-.205c.956-.486 2.146-1.09 2.836-1.09.124 0 .162.008.19.046-.102.228-.579.681-.871.959-.774.738-1.739 1.656-1.768 2.932-.018.766.309 1.504.94 2.162.897 1.011 2.054 1.524 3.435 1.524 1.114 0 2.132-.341 2.806-.567l.964-.32c.791-.268 1.462-.522 1.798-.417-.066.124-.151.266-.218.377-.383.644-.907 1.525-.651 2.515.155.602.562 1.098 1.222 1.483.589.333 1.286.502 2.07.502 1.822 0 3.762-.882 5.196-1.656 1.092 1.189 1.28 1.205 1.444 1.205.104.018.221-.031.313-.116l.115-.017.104-.22c.08-.168.202-.443-.643-1.81 2.749-2.748 3.741-5.186 2.926-7.237-.612-1.566-1.758-1.8-2.386-1.8-.579 0-1.105.176-1.57.332-.127.042-.294.099-.428.135-.172-.348-.063-.746.416-1.963.1-.251.204-.517.31-.8l.062-.165c.481-1.27 1.609-4.244-1.117-6.993-.839-.791-1.653-1.175-2.491-1.175-1.383 0-2.266 1.024-2.976 1.848-.266.307-.708.82-.913.85-.56-.234-.211-1.554.266-3.126.095-.31.187-.615.261-.884.613-2.031.447-3.93-.481-5.49-.95-1.598-2.621-2.684-4.868-3.149-1.454-.252-2.415.274-2.861.725-1.048 1.055-1.034 2.771-1.022 4.284.004.514.009 1.247-.064 1.618-.729-.004-1.356-.388-2.207-2.238-1.104-2.571-3.208-4.105-5.631-4.105-2.153 0-4.146 1.25-5.335 3.346zm2.014 1.142c.772-1.36 2.013-2.172 3.318-2.172 1.467 0 2.776 1.01 3.514 2.729.821 1.788 1.979 3.615 4.335 3.615.147 0 .3-.008.447-.022 1.951-.177 1.935-2.346 1.922-3.929-.007-.902-.017-2.265.351-2.635.028-.028.112-.113.42-.113.122 0 .255.013.364.032 1.558.322 2.702 1.034 3.312 2.058.587.987.675 2.244.247 3.661-.077.277-.164.565-.252.856-.59 1.942-1.479 4.876 1.032 5.925.312.139.632.209.953.209 1.188 0 1.988-.928 2.632-1.673.401-.465.9-1.044 1.222-1.044.098 0 .382.053.875.517 1.521 1.535 1.114 3.071.567 4.514l-.067.18c-.1.269-.199.52-.292.757-.569 1.444-1.158 2.938.089 4.5.25.305.706.669 1.454.669.479 0 .927-.15 1.358-.294.297-.099.633-.212.875-.213.001 0 .085.065.19.334.243.611.264 1.979-2.102 4.446-.771-1.052-1.824-2.41-3.263-4.178-5.476-6.68-14.938-13.365-18.061-15.571-1.356-1.082-1.439-1.082-1.591-1.082l-.165.001-.241.244.016.179c.02.218.02.218 1.422 1.208l.096.067c3.617 2.888 11.801 9.998 16.943 16.29 1.384 1.699 2.446 2.979 3.271 3.949-.984.501-2.435 1.131-3.626 1.131-.38 0-.693-.068-.917-.194-.051-.03-.088-.055-.112-.074.054-.182.254-.519.38-.73.404-.68 1.082-1.818.255-2.828-.563-.708-1.294-1.067-2.176-1.067-.753 0-1.514.258-2.394.556l-.957.318c-.563.188-1.333.447-2.069.447-.71 0-1.251-.237-1.732-.779-.208-.216-.33-.417-.327-.538.007-.314.635-.912 1.05-1.307.839-.799 2.108-2.007 1.393-3.584-.44-.913-1.261-1.416-2.31-1.416-1.245 0-2.647.713-3.885 1.342l-.374.189c-1.015.483-1.949.739-2.704.739-.756 0-1.83-.211-2.433-2.082-.177-.483-.086-.675-.056-.738.252-.53 1.488-.957 2.392-1.269 1.404-.484 3.152-1.087 3.061-2.756-.106-1.567-1.008-3.438-4.666-3.453-1.565-.048-2.752-.653-3.343-1.703-.642-1.143-.511-2.68.359-4.218zm-112.816 111.066-5.229-13.664h3.127l2.655 7.04c.419 1.105.788 2.313 1.129 3.574h.027c.341-1.235.737-2.469 1.129-3.52l2.733-7.095h2.943l-5.202 13.664h-3.312zm20.179 0h-8.043v-13.664h8.043v2.233h-5.206v3.336h4.967v2.156h-4.967v3.677h5.206zm7.331 0v-11.246h-3.783v-2.418h10.407v2.418h-3.786v11.246zm13.534-11.43v3.336h4.967v2.156h-4.967v3.677h5.202v2.262h-8.04v-13.664h8.04v2.233zm20.444 7.723h.023c-.051-.867-.078-2.181-.078-3.941l-.027-6.016h2.759v13.664h-3.782l-4.704-7.412c-.526-.816-1.024-1.787-1.393-2.6h-.027c.054.761.079 1.604.079 2.862l.027 7.149h-2.759v-13.664h3.783l4.601 7.279c.524.841 1.051 1.734 1.498 2.679zm13.635-.313c0-2.419-6.017-1.157-6.017-5.599 0-2.575 1.999-4.281 5.599-4.281.788 0 1.838.104 2.602.236l-.105 2.418c-.736-.238-1.814-.396-2.604-.396-1.732 0-2.495.683-2.495 1.709 0 2.336 6.095 1.313 6.095 5.597 0 2.783-2.415 4.599-5.911 4.599-.944 0-2.05-.16-2.811-.344l.105-2.549c.788.317 1.866.525 3.021.525 1.286.001 2.521-.575 2.521-1.915zm10.883-9.644v6.095l5.044-6.095h3.493l-5.595 6.569 5.886 7.095h-3.76l-5.068-6.413v6.413h-2.839v-13.664zm14.91 11.01h5.699l.973 2.654h3.155l-5.151-13.664h-3.336l-5.178 13.664h2.838zm2.152-5.914c.263-.71.524-1.471.686-2.128h.022c.186.63.448 1.445.711 2.155l1.419 3.837h-4.309zm16.239-5.175c-1.604 0-3.31.051-4.466.079v13.664h2.838v-4.495c.342.026.867.054 1.208.054 3.47 0 5.86-1.893 5.86-4.889.001-2.758-1.97-4.413-5.44-4.413zm-.42 7.041c-.367 0-.893-.024-1.208-.105v-4.623c.37-.027.867-.027 1.393-.027 1.761 0 2.654.972 2.654 2.313 0 1.603-1.077 2.442-2.839 2.442zm-115.536 29.737c3.916 0 7.173-2.682 7.173-7.202 0-4.624-2.76-6.935-6.727-6.935-3.783 0-7.095 2.705-7.095 7.198.001 4.099 2.207 6.939 6.649 6.939zm.263-11.667c2.339 0 3.861 1.604 3.861 4.649 0 3.05-1.788 4.52-3.967 4.52-2.681 0-3.783-2.05-3.783-4.648 0-2.946 1.811-4.521 3.889-4.521zm10.195 4.885c0-3.862 2.233-7.304 7.357-7.304.894 0 2.023.106 2.944.369l-.263 2.496c-.972-.317-1.944-.475-2.892-.475-2.678 0-4.124 1.944-4.124 4.65 0 2.943 1.576 4.495 4.284 4.495 1.024 0 2.047-.238 2.862-.631l.238 2.521c-1.132.395-2.339.603-3.681.603-4.464.001-6.725-2.57-6.725-6.724zm24.15 6.545v-5.782h-6.439v5.782h-2.838v-13.665h2.838v5.438h6.439v-5.438h2.838v13.665zm17.826 0h-2.838v-13.665h2.838v6.096l5.045-6.096h3.493l-5.598 6.57 5.888 7.095h-3.759l-5.07-6.413v6.413zm17.371.237c3.915 0 7.173-2.682 7.173-7.202 0-4.624-2.76-6.935-6.727-6.935-3.786 0-7.096 2.705-7.096 7.198.001 4.099 2.208 6.939 6.65 6.939zm.263-11.667c2.337 0 3.861 1.604 3.861 4.649 0 3.05-1.789 4.52-3.969 4.52-2.68 0-3.781-2.05-3.781-4.648 0-2.946 1.812-4.521 3.889-4.521zm13.783 1.419h-.027c.055.761.079 1.604.079 2.862l.026 7.149h-2.761v-13.665h3.787l4.599 7.279c.525.84 1.051 1.733 1.497 2.679h.024c-.052-.867-.078-2.181-.078-3.941l-.025-6.017h2.756v13.665h-3.782l-4.703-7.412c-.526-.814-1.025-1.788-1.392-2.599zm20.708 5.989c0-2.417-6.018-1.155-6.018-5.597 0-2.575 1.999-4.281 5.597-4.281.789 0 1.84.104 2.604.235l-.106 2.419c-.735-.238-1.813-.396-2.602-.396-1.734 0-2.496.683-2.496 1.709 0 2.337 6.095 1.313 6.095 5.597 0 2.783-2.416 4.599-5.911 4.599-.945 0-2.051-.16-2.812-.344l.105-2.549c.788.317 1.866.525 3.021.525 1.289.001 2.523-.575 2.523-1.917zm9.61 4.022v-11.246h-3.782v-2.419h10.403v2.419h-3.783v11.246zm-103.082-50.784h-20.814v-1.595l.334-.045c6.654-.887 6.693-2.308 6.868-8.286v-20.437c-.175-5.966-.214-7.386-6.868-8.273l-.334-.045v-1.595h19.246v1.586l-.329.051c-5.616.881-5.655 2.305-5.83 8.289v9.851l9.175-9.793c3.299-3.707 4.69-6.075 4.244-7.23-.241-.621-1.083-.986-2.648-1.152l-.347-.037v-1.602h15.82v1.602l-.347.037c-5.972.63-10.451 5.335-14.402 9.488l-1.004 1.053-4.702 4.808 11.681 13c.676.69 1.312 1.351 1.912 1.976 4.343 4.506 6.523 6.771 10.521 6.945l.377.016-.027 1.602-.334.039c-1.581.193-2.95.287-4.187.287-6.653 0-9.172-2.761-13.742-7.771l-11.99-13.042v10.36c.172 5.963.214 7.383 7.387 8.273l.34.042zm52.52 0h-22.147v-1.601l.338-.039c7.507-.896 7.794-2.6 7.794-9.667v-26.455h-3.101c-6.865 0-9.667 2.126-11.537 8.759l-.1.346-1.493-.323.721-11.359h36.88l.739 11.359-1.493.323-.1-.346c-1.87-6.633-4.672-8.759-11.533-8.759h-3.101v26.455c0 7.067.284 8.771 7.791 9.667l.34.039v1.601zm52.341-30.35v20.438c.175 5.966.214 7.387 6.867 8.273l.334.045v1.595h-20.814v-1.591l.329-.049c7.398-1.074 7.398-2.033 7.398-8.273v-9.199h-21.002v9.199c0 6.24 0 7.199 7.396 8.273l.332.049v1.591h-20.813v-1.595l.335-.045c6.653-.887 6.692-2.308 6.867-8.286v-20.437c-.175-5.966-.214-7.386-6.867-8.273l-.335-.045v-1.595h20.813v1.592l-.332.048c-7.396 1.074-7.396 2.033-7.396 8.273v8.038h21.002v-8.038c0-6.24 0-7.2-7.398-8.273l-.329-.048v-1.592h20.814v1.595l-.334.045c-6.654.886-6.693 2.306-6.867 8.285zm-108.202-62.661c-.141.287-1.086 2.278.306 4.409 1.515 2.321 4.091 1.921 4.177 1.911 1.778 2.248 4.747 4.929 7.174 4.236 0 0 15.292-7.087 36.499-7.118h.018c21.219.03 36.512 7.118 36.512 7.118 2.426.693 5.396-1.988 7.173-4.236.086.011 2.661.41 4.177-1.911 1.392-2.131.446-4.123.306-4.409 1.269-2.055 3.22-3.879 3.22-3.879.899-.833 1.463-2.015 1.463-3.333 0-2.509-2.042-4.554-4.551-4.554-.203 0-.399.018-.593.042-.032-.126-.075-.256-.11-.383 1.23-.633 2.081-1.904 2.081-3.378 0-2.103-1.71-3.813-3.809-3.813-.707 0-1.358.205-1.925.537-.108-.126-.214-.253-.33-.38.593-.57.962-1.366.962-2.25 0-1.734-1.41-3.143-3.146-3.143-1.063 0-2.001.534-2.569 1.348-.181-.12-.361-.238-.546-.355.351-.477.564-1.059.564-1.692 0-1.578-1.285-2.86-2.865-2.86-1.237 0-2.283.796-2.679 1.9-.295-.129-.601-.257-.904-.383.232-.386.371-.832.371-1.315 0-1.429-1.165-2.594-2.595-2.594-1.29 0-2.358.954-2.552 2.196-.195-.061-.379-.124-.578-.184-.432-1.518-1.813-2.639-3.47-2.639-.367 0-.721.063-1.052.169-.13-.109-.263-.215-.398-.317.004-.058.01-.112.01-.169 0-1.683-1.37-3.053-3.056-3.053-.664 0-1.273.217-1.771.58-.121-.046-.237-.094-.357-.139 0-.024.008-.049.008-.073 0-1.523-1.238-2.759-2.766-2.759-1.031 0-1.924.579-2.395 1.424-.212-.04-.428-.079-.648-.118.003-.033.013-.066.013-.099 0-1.384-1.132-2.513-2.52-2.513-1.202 0-2.211.854-2.451 1.988-.242-.019-.492-.036-.739-.051.305-.715.473-1.499.473-2.322 0-2.283-1.293-4.268-3.189-5.267 0 0-.697-.361-1.707-.561 0-2.09 0-4.542 0-4.542s2.302 0 2.554 0c.087-.102.259-.449.259-1.068 0-.609-.172-.956-.259-1.059-.251 0-2.554 0-2.554 0v-2.545c-.105-.087-.455-.256-1.069-.256h-.001c-.615 0-.962.168-1.068.256v2.545s-2.292 0-2.542 0c-.087.103-.259.45-.259 1.059 0 .619.171.966.259 1.068h2.542s0 2.453 0 4.542c-1.004.199-1.698.561-1.698.561-1.894.999-3.188 2.983-3.188 5.267 0 .823.169 1.607.474 2.322-.247.015-.498.033-.739.051-.241-1.134-1.249-1.988-2.452-1.988-1.388 0-2.519 1.128-2.519 2.513 0 .033.009.066.012.099-.22.04-.437.079-.649.118-.47-.845-1.363-1.424-2.394-1.424-1.526 0-2.766 1.236-2.766 2.759 0 .024.009.049.009.073-.121.045-.238.093-.358.139-.498-.362-1.107-.58-1.771-.58-1.686 0-3.056 1.37-3.056 3.053 0 .057.006.111.009.169-.136.102-.268.208-.398.317-.331-.106-.685-.169-1.052-.169-1.656 0-3.038 1.122-3.469 2.639-.199.06-.383.123-.579.184-.193-1.243-1.26-2.196-2.552-2.196-1.429 0-2.594 1.165-2.594 2.594 0 .483.139.929.371 1.315-.305.126-.609.254-.905.383-.395-1.104-1.441-1.9-2.678-1.9-1.581 0-2.865 1.282-2.865 2.86 0 .633.214 1.215.564 1.692-.184.117-.365.235-.546.355-.566-.814-1.505-1.348-2.57-1.348-1.734 0-3.146 1.409-3.146 3.143 0 .884.371 1.68.962 2.25-.115.126-.221.253-.329.38-.567-.332-1.219-.537-1.924-.537-2.099 0-3.81 1.71-3.81 3.813 0 1.474.851 2.745 2.081 3.378-.036.126-.078.256-.111.383-.193-.024-.39-.042-.592-.042-2.509 0-4.551 2.045-4.551 4.554 0 1.318.563 2.501 1.463 3.333-.002 0 1.949 1.824 3.218 3.879zm3.938 4.744c-1.545 0-2.798-1.253-2.798-2.799 0-.583.179-1.126.485-1.575.498-.747 1.348-1.238 2.313-1.238.964 0 1.813.491 2.312 1.236.307.45.486.992.486 1.577 0 1.545-1.253 2.799-2.798 2.799zm44.222-9.161c-1.534 0-2.778-1.244-2.778-2.778 0-1.533 1.244-2.778 2.778-2.778 1.539 0 2.788 1.245 2.788 2.778 0 1.535-1.249 2.778-2.788 2.778zm.004-21.669c1.529 0 2.771 1.236 2.771 2.761 0 1.524-1.242 2.761-2.771 2.761-1.525 0-2.76-1.237-2.76-2.761s1.235-2.761 2.76-2.761zm-2.153-3.062c0-1.189.964-2.153 2.153-2.153 1.192 0 2.161.964 2.161 2.153s-.969 2.153-2.161 2.153c-1.189 0-2.153-.964-2.153-2.153zm2.145 9.661c1.894 0 3.431 1.531 3.431 3.42 0 .865-.322 1.654-.853 2.256-.716-.542-1.608-.863-2.572-.863-.967 0-1.857.323-2.571.868-.531-.603-.854-1.395-.854-2.261-.001-1.89 1.53-3.42 3.419-3.42zm44.238 24.23c-1.546 0-2.797-1.252-2.797-2.798 0-.755.299-1.441.785-1.944.506-.535 1.224-.869 2.019-.869 1.202 0 2.226.762 2.612 1.829.115.307.179.638.179.984 0 1.545-1.253 2.798-2.798 2.798zm4.077-14.964c1.658 0 3.007 1.351 3.007 3.009 0 1.09-1.055 2.413-1.988 2.99-.788-.932-1.961-1.528-3.278-1.528-.116 0-.23.008-.344.018-.252-.439-.407-.938-.407-1.48-.001-1.658 1.35-3.009 3.01-3.009zm-2.431-7.532c1.249 0 2.264 1.017 2.264 2.269 0 1.251-1.015 2.268-2.264 2.268-1.256 0-2.275-1.016-2.275-2.268s1.02-2.269 2.275-2.269zm-4.438-5.236c.884 0 1.602.715 1.602 1.599 0 .881-.718 1.595-1.602 1.595-.88 0-1.595-.714-1.595-1.595 0-.884.715-1.599 1.595-1.599zm-5.416-3.558c.729 0 1.321.591 1.321 1.315 0 .727-.592 1.318-1.321 1.318-.724 0-1.312-.591-1.312-1.318 0-.725.588-1.315 1.312-1.315zm-5.807-2.393c.58 0 1.05.471 1.05 1.049 0 .58-.47 1.05-1.05 1.05-.575 0-1.046-.471-1.046-1.05 0-.578.471-1.049 1.046-1.049zm-3.417 3.149c8.771 2.796 13.319 7.037 15.401 11.274 1.691 3.88 1.4 4.787 1.539 7.256.047.861.265 1.439.436 1.945-2.008 1.094-2.246 2.64-2.274 2.742-.084-.053-.164-.112-.246-.17-.738-.598-1.679-.967-2.703-.958-3.192.028-5.169 3.149-3.876 6.164.312.723 2.091 3.35 5.579 2.085.204.279.438.536.701.76-1.004 1.965-3.355 2.893-5.454 2.074-2.091-.815-3.562-2.537-4.138-4.539-1.56 1.387-3.729 2.051-5.927 1.62-2.355-.461-3.899-2.757-3.436-5.112.042-.22.251-1.077.346-1.394.315 1.644 1.584 3.019 3.324 3.359 2.29.45 4.519-1.052 4.965-3.335.452-2.29-1.049-4.516-3.339-4.965-.247-.051-.518 0-.778-.003.073-.197.154-.423.154-.423.1-.503.1-1.001.023-1.481 2.082-.563 3.62-2.464 3.62-4.72 0-1.819-.999-3.405-2.474-4.25 1.226-.706 2.058-2.015 2.058-3.529 0-2.126-1.635-3.857-3.71-4.05.077-.111.144-.232.209-.35zm-3.076 13.416c-.351-.07-.697-.088-1.039-.07-.135-.365-.219-.757-.219-1.167 0-1.849 1.504-3.351 3.354-3.351s3.354 1.502 3.354 3.351c0 1.592-1.121 2.925-2.614 3.263-.592-1.016-1.596-1.785-2.836-2.026zm5.033-9.015c0 1.406-1.14 2.548-2.545 2.548-1.402 0-2.546-1.143-2.546-2.548 0-1.403 1.144-2.545 2.546-2.545 1.406-.001 2.545 1.142 2.545 2.545zm-5.139-8.177c1.146 0 2.076.929 2.076 2.072s-.93 2.072-2.076 2.072c-1.141 0-2.065-.929-2.065-2.072-.001-1.143.924-2.072 2.065-2.072zm-1.361 21.749c1.534 0 2.778 1.245 2.778 2.778 0 1.534-1.244 2.778-2.778 2.778s-2.777-1.245-2.777-2.778c0-1.534 1.243-2.778 2.777-2.778zm-3.135-25.118c.833 0 1.512.676 1.512 1.508 0 .829-.679 1.502-1.512 1.502-.829 0-1.506-.673-1.506-1.502 0-.832.677-1.508 1.506-1.508zm-4.887-2.392c.673 0 1.222.543 1.222 1.215 0 .67-.549 1.216-1.222 1.216-.665 0-1.209-.546-1.209-1.216 0-.672.544-1.215 1.209-1.215zm-5.55-1.306c.537 0 .976.434.976.968 0 .537-.438.974-.976.974-.53 0-.966-.437-.966-.974 0-.534.436-.968.966-.968zm11.001 24.002.621 1.078c-.772.606-1.347 1.477-1.548 2.518 0 0-.011.232-.015.44-.236-.096-.459-.234-.709-.283-2.286-.449-4.516 1.05-4.961 3.339-.447 2.286 1.046 4.513 3.338 4.962 1.741.341 3.433-.453 4.347-1.858-.034.332-.16 1.2-.203 1.424-.461 2.355-2.755 3.899-5.115 3.435-2.201-.428-3.809-1.84-4.735-3.713-1.263 1.656-3.121 2.756-5.363 2.756-2.402 0-4.365-1.957-4.365-4.358 0-.226.04-1.107.069-1.436.631 1.553 2.15 2.658 3.923 2.658 2.332 0 4.231-1.897 4.231-4.226 0-2.334-1.899-4.231-4.231-4.231-.253 0-.513.103-.767.148.033-.208.07-.447.07-.447 0-.419-.064-.823-.175-1.206l1.512-.975s-.269-14.306-2.826-20.697c.085-.045.169-.097.251-.145 20.912 1.183 19.115 15.712 16.651 20.817zm-15.308-26.312c.005.091.015.181.015.275 0 .862-.259 1.662-.698 2.334-.38-.012-.882-.021-1.418-.027.042-.175.07-.359.07-.549 0-.878-.49-1.632-1.207-2.033zm-3.316-3.929c1.243.298 2.314 1.193 2.872 2.302h-2.872zm-1.062 4.989c.535 0 .968.433.968.966 0 .534-.434.967-.968.967s-.966-.433-.966-.967c0-.533.432-.966.966-.966zm.002 2.858c.802 0 1.456.65 1.456 1.453 0 .802-.654 1.452-1.456 1.452-.803 0-1.453-.65-1.453-1.452 0-.803.65-1.453 1.453-1.453zm-1.06-7.847v2.302h-2.861c.558-1.109 1.625-2.004 2.861-2.302zm-3.304 3.929h3.227c-.712.401-1.2 1.155-1.2 2.033 0 .19.027.374.069.549-.534.006-1.035.015-1.415.027-.438-.672-.697-1.472-.697-2.334.001-.095.01-.185.016-.275zm-4.308 2.31c.531 0 .965.434.965.968 0 .537-.434.974-.965.974-.538 0-.975-.437-.975-.974.001-.534.438-.968.975-.968zm-5.55 1.306c.667 0 1.209.543 1.209 1.215 0 .67-.543 1.216-1.209 1.216-.673 0-1.222-.546-1.222-1.216 0-.672.549-1.215 1.222-1.215zm-4.886 2.392c.829 0 1.505.676 1.505 1.508 0 .829-.676 1.502-1.505 1.502-.833 0-1.511-.673-1.511-1.502 0-.832.678-1.508 1.511-1.508zm16.085-.513c.082.048.166.1.25.145-2.555 6.391-2.823 20.697-2.823 20.697l1.511.975c-.111.383-.174.787-.174 1.206 0 0 .036.238.069.447-.254-.045-.513-.148-.766-.148-2.332 0-4.231 1.897-4.231 4.231 0 2.329 1.9 4.226 4.231 4.226 1.773 0 3.284-1.104 3.912-2.658.03.329.069 1.21.069 1.436 0 2.401-1.955 4.358-4.355 4.358-2.24 0-4.099-1.101-5.362-2.756-.926 1.873-2.534 3.285-4.735 3.713-2.359.464-4.654-1.08-5.116-3.435-.042-.224-.168-1.092-.202-1.424.914 1.405 2.605 2.199 4.346 1.858 2.292-.449 3.785-2.676 3.338-4.962-.446-2.289-2.675-3.788-4.961-3.339-.25.049-.474.188-.709.283-.003-.208-.015-.44-.015-.44-.202-1.041-.775-1.912-1.547-2.518l.622-1.078c-2.465-5.105-4.263-19.634 16.648-20.817zm-16.444 28.408c0 1.534-1.243 2.778-2.778 2.778-1.534 0-2.778-1.245-2.778-2.778s1.244-2.778 2.778-2.778c1.536.001 2.778 1.245 2.778 2.778zm-7.079-5.307c-1.493-.338-2.615-1.671-2.615-3.263 0-1.849 1.505-3.351 3.354-3.351s3.354 1.502 3.354 3.351c0 .41-.084.802-.22 1.167-.341-.019-.688 0-1.038.07-1.24.24-2.244 1.009-2.835 2.026zm2.941-19.219c1.14 0 2.066.929 2.066 2.072s-.926 2.072-2.066 2.072c-1.146 0-2.076-.929-2.076-2.072s.93-2.072 2.076-2.072zm-2.594 5.631c1.402 0 2.545 1.143 2.545 2.545 0 1.406-1.143 2.548-2.545 2.548-1.406 0-2.545-1.143-2.545-2.548-.001-1.402 1.139-2.545 2.545-2.545zm-4.006-5.004c.576 0 1.047.471 1.047 1.049 0 .58-.471 1.05-1.047 1.05-.579 0-1.049-.471-1.049-1.05 0-.578.471-1.049 1.049-1.049zm-5.806 2.393c.724 0 1.312.591 1.312 1.315 0 .727-.588 1.318-1.312 1.318-.73 0-1.321-.591-1.321-1.318 0-.725.591-1.315 1.321-1.315zm9.224.756c.066.117.132.238.208.35-2.075.193-3.71 1.924-3.71 4.05 0 1.514.833 2.823 2.057 3.529-1.475.845-2.473 2.431-2.473 4.25 0 2.256 1.538 4.156 3.62 4.72-.076.48-.076.978.023 1.481 0 0 .082.226.154.423-.259.003-.531-.048-.779.003-2.289.449-3.791 2.675-3.338 4.965.446 2.283 2.675 3.785 4.965 3.335 1.74-.34 3.01-1.715 3.324-3.359.097.316.305 1.173.347 1.394.464 2.355-1.08 4.651-3.436 5.112-2.199.431-4.367-.232-5.927-1.62-.576 2.002-2.047 3.724-4.138 4.539-2.099.819-4.45-.109-5.455-2.074.264-.224.497-.48.702-.76 3.488 1.265 5.267-1.362 5.578-2.085 1.294-3.014-.683-6.136-3.875-6.164-1.025-.009-1.965.36-2.705.958-.082.058-.163.117-.247.17-.027-.102-.265-1.648-2.274-2.742.171-.506.389-1.084.437-1.945.138-2.469-.153-3.375 1.54-7.256 2.083-4.237 6.63-8.478 15.402-11.274zm-14.641 2.802c.881 0 1.596.715 1.596 1.599 0 .881-.715 1.595-1.596 1.595-.883 0-1.602-.714-1.602-1.595.001-.884.719-1.599 1.602-1.599zm-6.701 7.505c0-1.252 1.017-2.269 2.265-2.269 1.254 0 2.274 1.017 2.274 2.269 0 1.251-1.02 2.268-2.274 2.268-1.249-.001-2.265-1.017-2.265-2.268zm-.166 5.263c1.659 0 3.01 1.351 3.01 3.009 0 .542-.155 1.041-.407 1.48-.114-.009-.228-.018-.344-.018-1.317 0-2.49.596-3.279 1.528-.933-.578-1.987-1.9-1.987-2.99 0-1.658 1.348-3.009 3.007-3.009zm78.904 32.487c-9.644-3.574-19.822-5.387-30.267-5.387h-.688c-10.434 0-20.613 1.813-30.258 5.387-.51.19-1.08-.073-1.267-.583-.189-.513.069-1.08.583-1.27 9.863-3.655 20.275-5.507 30.943-5.507h.688c10.679 0 21.088 1.852 30.954 5.507.509.19.768.757.582 1.27-.148.398-.525.642-.927.642-.115 0-.229-.017-.343-.059zm6.3-5.683-1.435-3.836-.218-.582-1.849.304c-10.11-3.879-20.751-5.938-31.665-6.134l-1.749-.999-1.739.999c-10.907.196-21.548 2.255-31.658 6.134l-1.849-.304-.217.582-1.436 3.836 4.126 2.292 1.331-1.58c9.38-3.517 19.237-5.417 29.337-5.643l2.104 1.203 2.116-1.203c10.106.226 19.963 2.126 29.343 5.643l1.33 1.58zm-70.04.365c-.563-.313-1.317-.732-1.9-1.055.235-.622.537-1.43.76-2.033.685.115 2.045.338 3.285.543-.809.959-1.699 2.014-2.145 2.545zm17.4-4.944-3.314.679c-.911.187-1.804-.398-1.987-1.306-.19-.911.392-1.803 1.309-1.99l3.318-.685c.912-.19 1.804.401 1.991 1.312.182.911-.403 1.801-1.317 1.99zm15.725-.925-3.465-1.981 3.47-1.985 3.479 1.985zm21.045.298c-.184.908-1.076 1.493-1.988 1.306l-3.314-.679c-.913-.189-1.498-1.08-1.314-1.99.186-.911 1.078-1.502 1.99-1.312l3.317.685c.917.187 1.498 1.079 1.309 1.99zm9.953 3.025c1.239-.205 2.6-.428 3.284-.543.224.603.525 1.412.761 2.033-.583.323-1.337.742-1.901 1.055-.447-.53-1.336-1.585-2.144-2.545z" fill="#fff"/>
</svg>
