<svg enable-background="new -2.5 -2.272 405 88" height="88" viewBox="-2.5 -2.272 405 88" width="405" xmlns="http://www.w3.org/2000/svg">
	<path d="m251.053 70.696v-29.066h-5.904v-4.426h5.904v-1.022c0-1.795.281-3.389.846-4.782.563-1.393 1.376-2.564 2.434-3.514 1.059-.949 2.349-1.666 3.867-2.151 1.521-.485 3.234-.727 5.146-.727 1.473 0 2.935.175 4.385.526l-.345 4.643c-.484-.082-1.031-.149-1.642-.201-.609-.051-1.213-.077-1.812-.077-2.071 0-3.672.541-4.8 1.625-1.128 1.083-1.691 2.636-1.691 4.658v1.022h6.303v4.426h-6.303v29.066zm-109.943-11.122c0 2.208-.933 3.952-2.798 5.23-1.864 1.28-4.546 1.921-8.045 1.921-1.635 0-3.193-.172-4.678-.512-1.485-.341-2.796-.871-3.936-1.594-1.14-.722-2.049-1.635-2.728-2.74-.679-1.103-1.018-2.43-1.018-3.977h-6.664c0 1.506.253 2.889.76 4.147.505 1.26 1.208 2.395 2.106 3.404.897 1.012 1.95 1.899 3.158 2.662 1.209.764 2.522 1.404 3.938 1.92 1.415.516 2.893.903 4.435 1.161 1.543.258 3.085.387 4.627.387 2.647 0 5.047-.284 7.199-.852 2.153-.567 3.994-1.377 5.526-2.431 1.53-1.052 2.71-2.32 3.538-3.807.829-1.486 1.244-3.146 1.244-4.984 0-1.753-.328-3.321-.984-4.705-.657-1.382-1.658-2.631-3.004-3.745-1.347-1.114-3.057-2.109-5.128-2.987-2.071-.876-4.535-1.676-7.389-2.398-2.072-.517-3.85-1.053-5.335-1.609-1.484-.559-2.699-1.166-3.642-1.826-.945-.661-1.64-1.383-2.09-2.168-.448-.784-.673-1.65-.673-2.6 0-1.052.207-2.022.622-2.91.414-.887 1.047-1.655 1.898-2.305.852-.651 1.935-1.162 3.247-1.533 1.311-.372 2.854-.557 4.626-.557 1.888 0 3.522.217 4.903.65 1.382.433 2.532 1.042 3.453 1.826.921.785 1.606 1.713 2.055 2.786s.673 2.24.673 3.498h6.664c0-1.754-.392-3.456-1.174-5.107s-1.929-3.106-3.436-4.365c-1.508-1.259-3.366-2.27-5.576-3.034-2.21-.763-4.73-1.145-7.562-1.145-2.578 0-4.915.31-7.009.928-2.095.62-3.89 1.482-5.387 2.585-1.495 1.104-2.652 2.405-3.47 3.901-.816 1.496-1.225 3.121-1.225 4.875 0 1.755.38 3.312 1.139 4.675.76 1.361 1.847 2.574 3.263 3.637s3.131 2.001 5.145 2.817c2.014.814 4.263 1.542 6.751 2.182 2.37.619 4.327 1.222 5.87 1.812 1.541.588 2.766 1.218 3.676 1.888.91.671 1.541 1.409 1.899 2.213.357.805.536 1.733.536 2.786m26.311 7.336c-2.002 0-3.659-.351-4.971-1.053-1.312-.7-2.36-1.619-3.142-2.755-.783-1.134-1.335-2.419-1.658-3.854-.323-1.433-.483-2.894-.483-4.38v-1.3c0-1.443.16-2.883.483-4.317.323-1.435.88-2.725 1.674-3.869.795-1.146 1.842-2.069 3.143-2.771 1.3-.701 2.94-1.052 4.92-1.052 1.289 0 2.458.196 3.505.588 1.048.392 1.951.924 2.711 1.594.759.671 1.363 1.455 1.812 2.354.448.897.72 1.861.812 2.894h6.042c-.092-1.713-.507-3.312-1.243-4.798-.737-1.486-1.755-2.771-3.056-3.854s-2.843-1.934-4.626-2.554c-1.785-.619-3.77-.929-5.957-.929-2.809 0-5.248.449-7.32 1.347-2.071.898-3.797 2.11-5.178 3.638-1.382 1.527-2.413 3.302-3.091 5.323-.68 2.023-1.019 4.159-1.019 6.408v1.3c0 2.25.339 4.387 1.019 6.408.678 2.023 1.709 3.798 3.091 5.324 1.381 1.528 3.112 2.74 5.195 3.638 2.084.897 4.529 1.347 7.337 1.347 1.98 0 3.851-.306 5.611-.913 1.762-.609 3.309-1.425 4.645-2.446 1.334-1.021 2.411-2.207 3.228-3.559.817-1.353 1.272-2.771 1.364-4.257h-6.042c-.092.929-.386 1.79-.881 2.584-.495.795-1.14 1.481-1.934 2.06s-1.709 1.032-2.744 1.362c-1.036.327-2.118.492-3.247.492m38.735-41.635h-6.663v45.69h30.488v-4.86h-23.825zm75.165 46.04c1.864 0 3.533-.18 5.006-.541s2.779-.846 3.919-1.455c1.139-.609 2.134-1.3 2.987-2.074.851-.773 1.576-1.573 2.175-2.398l-3.902-2.725c-1.173 1.362-2.543 2.456-4.107 3.281-1.566.826-3.477 1.239-5.732 1.239-1.704 0-3.229-.29-4.576-.867-1.345-.578-2.498-1.362-3.451-2.353-.956-.991-1.692-2.156-2.211-3.498-.518-1.342-.799-2.786-.846-4.334h25.31v-2.569c0-2.354-.301-4.53-.897-6.531-.6-2.002-1.526-3.735-2.78-5.201-1.255-1.465-2.849-2.616-4.781-3.451-1.934-.836-4.235-1.254-6.906-1.254-2.118 0-4.155.387-6.111 1.161-1.957.773-3.694 1.893-5.214 3.358-1.52 1.466-2.734 3.271-3.643 5.417s-1.363 4.582-1.363 7.306v1.3c0 2.353.402 4.52 1.208 6.501s1.956 3.689 3.453 5.122c1.496 1.436 3.298 2.555 5.402 3.359 2.105.805 4.458 1.207 7.06 1.207m-.795-30.025c1.634 0 3.005.269 4.108.805 1.105.538 2.009 1.238 2.71 2.105.702.866 1.221 1.848 1.555 2.941s.535 2.198.604 3.312v.434h-18.713c.207-1.547.591-2.92 1.156-4.117.563-1.196 1.271-2.198 2.124-3.002.851-.807 1.818-1.419 2.899-1.842 1.082-.425 2.268-.636 3.557-.636m26.509-16.283h-6.663v45.69h30.488v-4.86h-23.825zm56.815 45.69v-.495c-.438-.908-.765-1.986-.983-3.235-.219-1.248-.328-2.439-.328-3.575v-15.57c0-1.877-.346-3.519-1.036-4.922s-1.646-2.575-2.865-3.514c-1.222-.939-2.688-1.641-4.402-2.105-1.715-.465-3.586-.697-5.612-.697-2.256 0-4.298.294-6.129.883-1.829.588-3.389 1.352-4.677 2.29-1.29.939-2.286 1.997-2.988 3.174-.701 1.175-1.052 2.362-1.052 3.56h6.422c0-.701.195-1.372.587-2.013.392-.639.938-1.201 1.641-1.687.702-.485 1.548-.872 2.537-1.161.989-.288 2.084-.433 3.28-.433 2.602 0 4.569.593 5.904 1.78 1.336 1.188 2.003 2.781 2.003 4.782v2.632h-6.353c-2.557 0-4.869.237-6.941.712-2.071.476-3.838 1.177-5.299 2.104-1.463.929-2.585 2.08-3.367 3.452-.784 1.373-1.174 2.956-1.174 4.752 0 1.382.299 2.677.896 3.884.6 1.207 1.446 2.255 2.538 3.142 1.094.889 2.417 1.59 3.973 2.105 1.554.516 3.285.774 5.194.774 1.151 0 2.245-.108 3.281-.325s1.997-.516 2.883-.898 1.704-.825 2.452-1.331c.747-.505 1.421-1.037 2.02-1.594.092.681.208 1.336.346 1.966.138.629.322 1.151.552 1.563zm-17.298-4.365c-1.174 0-2.205-.149-3.09-.449-.888-.298-1.636-.701-2.244-1.207-.61-.505-1.065-1.108-1.365-1.811-.299-.701-.448-1.454-.448-2.261 0-2.063.989-3.605 2.969-4.627 1.98-1.021 4.8-1.532 8.459-1.532h5.318v6.872c-.345.64-.824 1.26-1.433 1.857-.61.598-1.33 1.13-2.158 1.594-.829.465-1.749.842-2.762 1.131-1.015.289-2.096.433-3.246.433m53.448-12.66c0-2.559-.323-4.886-.967-6.98-.646-2.095-1.582-3.891-2.814-5.387-1.23-1.496-2.751-2.657-4.557-3.482-1.808-.825-3.885-1.238-6.233-1.238-2.372 0-4.431.371-6.18 1.114-1.75.743-3.246 1.806-4.49 3.188v-15.88h-6.386v45.69h5.869l.31-3.869c1.244 1.444 2.764 2.553 4.559 3.327 1.796.773 3.925 1.16 6.389 1.16 2.301 0 4.35-.423 6.146-1.269 1.795-.846 3.314-2.027 4.558-3.544 1.243-1.518 2.186-3.313 2.831-5.387.644-2.073.967-4.339.967-6.794v-.649zm-6.387.65c0 1.671-.186 3.245-.553 4.721-.369 1.475-.944 2.76-1.727 3.853-.784 1.095-1.784 1.962-3.004 2.602-1.221.639-2.694.959-4.42.959-1.174 0-2.234-.134-3.177-.402s-1.79-.64-2.537-1.114c-.749-.475-1.405-1.031-1.969-1.672-.563-.64-1.053-1.331-1.469-2.074v-14.488c.393-.743.865-1.435 1.417-2.074.553-.64 1.202-1.196 1.951-1.672.748-.474 1.593-.846 2.537-1.114.943-.268 2.003-.403 3.178-.403 1.794 0 3.314.326 4.558.976 1.241.648 2.25 1.532 3.021 2.646s1.329 2.41 1.674 3.886c.346 1.476.52 3.049.52 4.721zm-200.019-16.85h-6.388v33.493h6.388zm.561-8.435c0-2.077-1.684-3.761-3.761-3.761-2.076 0-3.76 1.684-3.76 3.761s1.684 3.76 3.76 3.76c2.077-.001 3.761-1.683 3.761-3.76m47.408-.269c0-2.077-1.685-3.76-3.761-3.76s-3.761 1.683-3.761 3.76 1.685 3.761 3.761 3.761 3.761-1.684 3.761-3.761m-.566 8.435h-6.388v33.493h6.388z"/>
	<path d="m54.745 48.969c-.073.158-.149.314-.23.47-1.29 2.48-3.468 4.311-6.135 5.152-1.045.33-2.105.487-3.146.487-4.307 0-8.322-2.682-9.849-6.903-.049-.137-.096-.273-.14-.414-.025-.082-.051-.164-.074-.246l-.024-.084c-.013-.05-.028-.101-.042-.15-.005-.021-.009-.04-.014-.061-.001-.002-.001-.006-.002-.009-.619-1.934-.449-4.24-.254-6.909.243-3.307.518-7.056-.713-10.956-1.229-3.889-3.595-6.781-5.683-9.333-1.702-2.08-3.172-3.876-3.787-5.848l-.018-.048c-.006-.015-.012-.031-.017-.046-.009-.024-.018-.049-.026-.073-.006-.015-.011-.03-.017-.046l-.029-.083c-.027-.078-.053-.157-.078-.237-.001-.002-.002-.004-.002-.006-.317-1-.479-2.024-.491-3.044-.016-1.359.236-2.712.75-3.992.128-.32.274-.636.435-.946 1.29-2.481 3.469-4.311 6.135-5.153.171-.054.342-.103.514-.148.02-.005.041-.01.062-.015.153-.039.306-.075.459-.108h.002c2.353-.49 4.783-.159 6.945.965 2.157 1.122 3.822 2.916 4.773 5.118.002.005.005.011.007.016.06.14.116.282.17.424.01.025.02.048.03.073.061.166.119.334.173.505.026.081.05.164.075.246l.022.084c.015.051.029.102.043.153.004.019.009.037.014.055.001.004.002.008.003.011.727 2.306.524 4.813.308 7.468-.252 3.1-.537 6.613.659 10.398 1.226 3.886 3.59 6.774 5.675 9.32 1.705 2.082 3.176 3.88 3.793 5.86.009.022.018.045.027.067.017.049.035.098.052.147l.029.082c.027.08.053.16.079.24.001.001.001.003.002.004.315 1 .478 2.024.49 3.043.018 1.53-.304 3.051-.955 4.47m31.419-26.316c-1.782-2.795-4.547-4.729-7.784-5.445-6.683-1.478-13.321 2.756-14.8 9.438-.021.099-.042.199-.062.299l-.018.101c-.014.068-.025.137-.038.206l-.001.006c-.002.016-.005.032-.007.047-.001.003-.001.006-.002.009-.537 2.39-.092 5.111.424 8.263.635 3.876 1.353 8.27.304 13.017-1.054 4.762-3.571 8.465-5.791 11.731-1.787 2.631-3.332 4.903-3.844 7.257-.001.005-.003.01-.004.015-.006.021-.013.043-.018.063-.016.062-.033.123-.048.184l-.026.101c-.024.099-.048.198-.069.297-.717 3.238-.129 6.56 1.653 9.355 1.783 2.795 4.548 4.729 7.784 5.444.901.199 1.806.298 2.706.298 2.337 0 4.631-.665 6.65-1.951.698-.445 1.344-.953 1.928-1.514 1.757-1.681 2.979-3.843 3.516-6.271.001-.002.001-.003.001-.005.022-.099.042-.196.062-.294l.018-.102c.013-.069.027-.137.038-.206l.001-.007c.003-.017.005-.035.008-.052v-.003c.54-2.4.094-5.125-.423-8.28-.635-3.87-1.352-8.256-.304-13 1.023-4.621 3.41-8.075 5.516-11.123 1.8-2.604 3.499-5.064 4.118-7.864.002-.006.004-.013.006-.019.006-.02.012-.04.017-.06.016-.061.032-.123.049-.185l.025-.099c.024-.099.048-.198.069-.298.716-3.235.129-6.558-1.654-9.353m-69.844 4.413c-2.646-1.376-5.669-1.639-8.513-.741-2.843.898-5.167 2.85-6.543 5.496-1.376 2.645-1.638 5.668-.74 8.512s2.85 5.168 5.495 6.543c1.614.839 3.368 1.265 5.138 1.265 1.13 0 2.266-.174 3.375-.523 2.843-.898 5.167-2.851 6.543-5.495 1.375-2.646 1.639-5.669.74-8.513-.898-2.845-2.849-5.169-5.495-6.544" fill="#9ccc58"/>
</svg>
