<svg enable-background="new -4.25 -2.5 91 84" height="84" viewBox="-4.25 -2.5 91 84" width="91" xmlns="http://www.w3.org/2000/svg">
	<g clip-rule="evenodd" fill-rule="evenodd">
		<path d="m48.265 78.568c-.392-.18-.704-.377-.938-.734-.448-.703-2-2.934-2.263-3.371-.035-.059-.044-.174.03-.219l.427-.119c.505-.088.944-.52 1.113-.994.2-.566.155-1.262.006-1.838-.104-.402-.399-.787-.76-1.037-.133-.092-.251-.137-.431-.178-.194-.047-.377-.082-.634-.082-1.302.004-2.442.014-3.734.004-.062-.002-.137.057-.13.125.01.1.139.082.252.127.222.086.347.363.342.691l-.008 6.813c.027.438-.287.703-.553.703-.131 0-.161.223.061.209.691-.039 1.48-.033 2.167.043.06.006.156-.041.156-.129 0-.051-.03-.082-.118-.109-.376-.111-.526-.152-.571-.639l.017-2.662c0-.053.017-.5.017-.559 0-.189.661-.105.929-.086.229.016.337.219.454.387.826 1.186 1.316 1.984 1.977 2.992.191.291.431.479.731.631.445.227.86.271 1.372.314.044.004.113-.039.132-.076.028-.058.048-.164-.043-.207zm-4.492-4.705c-.304.016-.656-.025-.953-.102-.083-.02-.099-.08-.098-.195.008-1.369.025-2.539.025-2.752 0-.188.374-.154.583-.16.641-.016 1.339-.072 1.741.193.254.166.39.439.478.646.131.314.102.775.079 1.119-.024.389-.282.736-.621.98-.101.076-.697.242-1.234.271zm8.899-11.004c-.285-.072-.512-.238-.637-.488-.816-1.635-2.678-6.375-2.678-6.375-.313-.748-.688-1.705-.801-1.975-.043-.146-.153-.027-.21.031-.863 1.959-3.387 7.377-3.744 8.012-.225.4-.51.609-.631.707-.154.123-.358.102-.359.221-.001.051.058.121.111.121.295 0 1.294-.107 2.011-.023.078.008.123-.074.123-.143 0-.09-.167-.117-.255-.205-.186-.184-.212-.365-.15-.545.275-.805.633-1.518.96-2.264.035-.08.109-.16.197-.16l3.096.006c.066 0 .075.037.096.082l.71 1.764c.09.334.248.674.155 1.051-.068.25-.406.15-.406.346 0 .053.058.084.137.082.823-.02 1.54-.1 2.333-.014.065.006.104-.051.104-.104-.001-.066-.071-.103-.162-.127zm-3.659-3.802h-2.125c-.046-.016-.046-.068-.021-.098.434-.965.89-1.924 1.308-2.896.023-.031.086-.102.107-.047.17.43 1.038 2.617 1.11 2.797.094.236-.01.244-.379.244zm20.212 3.802c-.284-.072-.512-.238-.636-.488-.817-1.635-2.678-6.375-2.678-6.375-.314-.748-.688-1.705-.802-1.975-.042-.146-.152-.027-.209.031-.863 1.959-3.388 7.377-3.744 8.012-.225.4-.51.609-.632.707-.153.123-.358.102-.359.221 0 .051.059.121.112.121.295 0 1.293-.107 2.01-.023.078.008.124-.074.124-.143 0-.09-.167-.117-.256-.205-.185-.184-.212-.365-.15-.545.276-.805.634-1.518.96-2.264.035-.08.11-.16.197-.16l3.096.006c.067 0 .075.037.097.082l.71 1.764c.09.334.247.674.154 1.051-.068.25-.406.15-.406.346 0 .053.058.084.137.082.824-.02 1.54-.1 2.334-.014.064.006.104-.051.104-.104-.001-.066-.073-.103-.163-.127zm-3.659-3.802h-2.125c-.046-.016-.046-.068-.021-.098.433-.965.89-1.924 1.307-2.896.024-.031.086-.102.108-.047.169.43 1.038 2.617 1.11 2.797.094.236-.009.244-.379.244zm-23.584-4.688c.204.047.181.18.181.336 0 .412.006.707.019 1.191.002.096.021.227-.084.227-.21 0-.223-.471-.368-.652-.211-.262-.765-.662-1.439-.662-.815 0-1.402.48-1.402 1.146 0 .83.155 1.086 1.227 1.592.673.316 2.205.754 2.742 1.586.272.42.338.871.336 1.379-.024.641-.249 1.26-.657 1.773-.911 1.146-3.19.965-4.357.84-.158-.018-.356.08-.377-.125.032-.58.019-1.113.019-1.688 0-.162.086-.209.146-.154.068.092.077.199.128.295.409.77 1.035 1.063 2.238 1.063.76 0 1.55-.422 1.83-1.221.17-.486.063-1.059-.29-1.408-.67-.803-1.669-1.086-2.581-1.453-.532-.213-1.422-.793-1.422-2.234 0-.629.385-1.287.824-1.576.888-.589 2.359-.466 3.287-.255zm14.097.014c.067-.008.088.125-.004.188-.188.127-.396.135-.497.383-.167.514-.094 1.096-.118 1.625l-.012 3.273c.024 1.264-.155 1.83.591 2.408.285.221 1.726.156 2.101.121.797-.076 1.08-.502 1.248-.801.038-.066.065-.166.152-.166.117 0 .112.088.097.211-.052.414-.108.945-.147 1.256-.022.092-.121.186-.205.189-1.638.066-4.136-.053-5.443.023-.063.004-.164-.014-.164-.102 0-.09.084-.146.166-.191.186-.1.331-.088.462-.332.118-.217.15-.459.155-.725.057-2.686.034-5.857-.067-6.742-.03-.266-.354-.33-.565-.432-.088-.043-.043-.201.075-.189.278.028 1.66.067 2.175.003zm-38.661 22.387.012-5.365c-.007-.238-.039-.334-.097-.502-.1-.287-.242-.496-.531-.648-.112-.059-.095-.219-.016-.213.656.045 1.231.02 1.829-.002.068 0 .132.021.132.068 0 .162-.182.168-.292.279-.174.178-.301.33-.32.604-.081 1.131-.013 6.316-.013 6.316.013.51.004.895.024 1.418.006.152-.112.221-.159.172-.322-.33-.706-.646-1.091-1.094-1.431-1.322-4.535-4.42-5.998-5.727-.035-.031-.098.014-.098.045 0 0-.03 5.031.115 5.881.032.184.341.494.547.572.035.014.08.027.084.088.003.045-.021.078-.107.068-.71-.072-1.41-.117-2.083-.016-.068.008-.089-.051-.089-.096 0-.186.444-.125.64-.568.158-.357.12-7.604.12-7.604l-.001-.799c0-.074.086-.08.133-.039 0 .001 6.596 6.591 7.259 7.162zm49.733-6.758c.039 0 .076.031.091.07l.002 1.434c0 .297-.202.236-.27.027-.075-.234-.162-.438-.228-.52-.238-.295-.542-.457-.888-.484h-1.628c-.21 0-.298.086-.302.273-.043 2.598-.119 6.463.05 7.027.159.529.458.563.649.643.118.049.178.203-.06.203-.631 0-2.476.004-2.476.004-.205 0-.177-.184-.035-.221.232-.063.412-.121.522-.314.104-.184.156-.314.168-.613.015-.4.033-4.818.021-6.318-.004-.486-.073-.621-.172-.65-.298-.094-1.631-.105-2.267.098-.371.135-.577.486-.577.865 0 .072-.05.133-.129.133-.056 0-.091-.02-.091-.109l.019-1.443c0-.074.071-.131.257-.131zm-28.568.177c0 .391-.007.631.014.986.002.031-.034.072-.071.072-.112 0-.232-.357-.471-.488-.648-.355-1.416-.23-2.242-.227 0 0-.464.016-.472.109-.002.033-.043 1.996-.043 3.01 0 .027.027.061.085.061.124-.002 2.625-.016 2.625-.016.215-.008.272-.227.296-.291.046-.123.213-.141.203-.008-.04.498-.057.975-.059 1.451 0 .035-.068.055-.117-.023-.191-.309-.469-.484-.856-.486-.749-.002-1.411-.045-2.147.037-.048.006-.052.047-.052.109 0 .916-.038 1.645-.019 2.566.008.314.089.619.338.824.498.328 1.178.234 1.745.209.457-.02.987.045 1.265-.363.155-.229.071-.35.28-.611.031-.041.13-.025.127.045-.034.623-.022.775-.04 1.467-.002.096-.102.084-.102.084s-5.066.018-5.277.002c-.081-.006-.133-.15-.014-.188.282-.09.613-.107.61-.686l.016-2.654c.029-1.406.14-2.887-.037-4.316-.029-.229-.104-.477-.369-.563-.083-.027-.249-.014-.249-.129s.047-.166.219-.164c1.513.016 3.041-.012 4.545-.02.144.002.269.043.269.201zm-6.369-.177c.126 0 .163.109.074.164-.172.107-.477.182-.591.455-1.127 2.783-2.302 5.465-3.461 8.225-.014.041-.092.076-.129-.018 0 0-2.205-4.82-3.885-8.25-.137-.279-.444-.252-.663-.375-.04-.021-.055-.07-.05-.113.002-.02.011-.086.114-.082.54.012 1.591.016 2.211-.021.051-.002.117.043.105.121-.033.225-.477.232-.289.672.512 1.201 1.31 3.146 2.671 5.816.045.09.13-.148.182-.266.739-1.68 1.38-3.426 2.075-5.125.063-.152.236-.732-.14-.93-.084-.045-.234-.084-.234-.158 0-.051.015-.117.1-.117.679 0 1.222.002 1.91.002zm-9.56.017c.103.002.147.209-.001.227-.409.045-.557.262-.573.998-.02.902-.021 6.039-.021 6.039 0 .42.127.842.212.947.22.273.517.238.517.371 0 .047-.008.129-.083.121-.771-.104-1.564.049-2.313.029-.063-.002-.083-.074-.083-.105 0-.191.291-.076.429-.217.13-.135.194-.316.197-.484.058-3.424.074-4.639.021-7.068-.011-.484-.595-.584-.769-.674-.047-.025-.029-.207.091-.205.797.01 1.576.004 2.376.021zm-1.44-15.666c.098 0 .106.055.106.084 0 .053-.046.086-.104.104-.505.164-.62.691-.643 1.154.001 1.375-.004 2.926.013 4.348-.046.768-.162 1.461-.644 2.031-.373.441-.957.854-1.915 1.012-.65.107-1.296.166-1.957.061-.954-.152-1.28-.344-1.88-.93-.547-.535-.646-1.162-.702-2.072l.003-4.813c-.025-.432-.082-.701-.526-.863-.024-.014-.035-.084-.024-.105.03-.066.241-.031.363-.027.673.008 1.277.004 1.965.01.032 0 .075.023.075.068 0 .096-.16.092-.249.139-.562.295-.427.854-.453 1.439l.004 2.992c-.004 1.164-.158 2.74 1.145 3.285.456.189.993.168 1.411.168 1.874 0 2.49-1.205 2.521-1.98.053-1.305.035-4.791-.027-5.084-.095-.445-.476-.691-.756-.865-.045-.076-.019-.182.113-.172.414.03 1.822.044 2.161.016zm5.923.032c-1.317-.148-2.752.02-4.09-.023-.105 0-.265 0-.265.102 0 .174.203.129.325.17.211.068.484.355.504.982.016.5.027 4.67.008 5.48-.013.553.065 1.598-.58 1.809-.07.023-.185.076-.185.129 0 .055.019.09.069.09.53 0 1.519-.072 2.359.014.083.008.099-.037.095-.111-.005-.088-.197-.109-.318-.176-.313-.172-.346-.666-.346-1.037 0-1.02-.045-1.83-.028-2.691.004-.178.088-.203.175-.195 3.348.289 3.811-1.295 3.793-2.494-.014-.991-.414-1.926-1.516-2.049zm-.68 3.878c-.306.006-1.1.021-1.534.012-.139-.004-.169-.156-.173-.232-.047-1.008-.076-2.135-.012-2.988.011-.146.188-.119.303-.127.674-.041 1.17-.051 1.729.033.227.035.484.201.611.428.197.354.209.764.247 1.172.088.976-.586 1.691-1.171 1.702zm8.13-3.878c-1.317-.148-2.752.02-4.09-.023-.105 0-.265 0-.265.102 0 .174.203.129.325.17.211.068.484.355.504.982.016.5.027 4.67.008 5.48-.013.553.065 1.598-.579 1.809-.07.023-.186.076-.186.129 0 .055.019.09.069.09.53 0 1.519-.072 2.359.014.083.008.099-.037.095-.111-.005-.088-.197-.109-.318-.176-.313-.172-.346-.666-.346-1.037 0-1.02-.045-1.83-.028-2.691.004-.178.088-.203.175-.195 3.348.289 3.811-1.295 3.793-2.494-.014-.991-.414-1.926-1.516-2.049zm-.679 3.878c-.306.006-1.1.021-1.534.012-.139-.004-.169-.156-.173-.232-.047-1.008-.076-2.135-.013-2.988.011-.146.188-.119.303-.127.674-.041 1.17-.051 1.729.033.227.035.484.201.611.428.197.354.208.764.246 1.172.09.976-.584 1.691-1.169 1.702zm-25.632 11.813c.098 0 .106.055.105.086 0 .051-.046.084-.104.104-.505.164-.62.691-.643 1.152.001 1.377-.004 2.926.014 4.348-.047.77-.162 1.463-.644 2.031-.373.441-.957.854-1.915 1.012-.65.107-1.296.166-1.957.061-.954-.15-1.28-.344-1.88-.928-.547-.535-.646-1.162-.702-2.074l.004-4.811c-.025-.434-.082-.703-.526-.863-.024-.014-.034-.084-.024-.107.03-.064.241-.031.364-.027.672.01 1.276.006 1.965.012.031 0 .075.023.075.068 0 .094-.16.092-.249.137-.562.295-.427.855-.453 1.439l.004 2.994c-.004 1.164-.158 2.74 1.146 3.283.456.191.993.17 1.411.17 1.875 0 2.49-1.207 2.521-1.982.053-1.305.036-4.789-.027-5.084-.094-.443-.476-.689-.756-.863-.045-.078-.019-.184.113-.174.41.032 1.819.045 2.158.016zm45.008-.129c.204.045.181.178.181.334 0 .412.006.707.019 1.193.003.094.021.225-.085.225-.21 0-.223-.471-.367-.65-.211-.262-.765-.662-1.439-.662-.815 0-1.402.48-1.402 1.146 0 .828.155 1.084 1.228 1.59.673.318 2.204.756 2.741 1.586.271.42.338.871.336 1.379-.024.643-.248 1.26-.656 1.773-.911 1.148-3.189.965-4.356.84-.158-.018-.356.082-.378-.123.032-.58.02-1.113.02-1.689 0-.162.085-.207.146-.154.068.092.077.199.128.295.409.771 1.035 1.063 2.237 1.063.761 0 1.551-.42 1.831-1.221.17-.486.063-1.059-.29-1.408-.671-.803-1.67-1.086-2.581-1.451-.532-.215-1.422-.793-1.422-2.236 0-.627.385-1.287.824-1.576.886-.59 2.357-.467 3.285-.254zm4.804.031c.102.002.146.211-.002.227-.409.047-.557.264-.573 1-.02.902-.021 6.037-.021 6.037 0 .42.126.842.212.949.22.273.517.238.518.371 0 .045-.009.129-.084.121-.771-.104-1.564.049-2.313.029-.063-.002-.084-.074-.084-.105 0-.191.291-.076.429-.219.13-.133.194-.316.197-.484.058-3.424.074-4.639.021-7.066-.011-.486-.595-.584-.769-.676-.047-.023-.029-.205.091-.203.799.008 1.577.002 2.378.019zm15.719.2c0 .391-.008.631.014.986.002.033-.034.074-.071.074-.112 0-.232-.359-.472-.49-.647-.354-1.415-.23-2.241-.227 0 0-.465.016-.473.111-.002.033-.043 1.994-.043 3.008 0 .029.026.063.085.061.124 0 2.625-.014 2.625-.014.215-.008.271-.227.297-.293.046-.123.212-.139.202-.008-.039.5-.057.975-.059 1.451 0 .035-.068.057-.117-.021-.19-.309-.469-.486-.855-.486-.749-.004-1.411-.045-2.147.037-.048.004-.052.047-.052.107 0 .916-.037 1.645-.019 2.566.008.316.089.621.339.826.498.326 1.178.234 1.744.209.457-.021.987.045 1.265-.363.155-.23.071-.352.28-.613.031-.039.131-.025.127.045-.033.623-.022.777-.04 1.467-.002.098-.102.084-.102.084s-5.065.018-5.277.004c-.081-.006-.133-.15-.014-.189.282-.09.612-.105.61-.686l.016-2.654c.028-1.404.14-2.887-.037-4.314-.028-.23-.104-.479-.369-.563-.082-.029-.248-.014-.248-.129 0-.117.047-.168.219-.166 1.514.018 3.041-.01 4.546-.02.141 0 .267.041.267.2zm9.146-.202c.038 0 .076.031.09.07l.003 1.434c0 .295-.202.234-.27.025-.076-.232-.162-.438-.228-.518-.238-.295-.542-.457-.888-.486l-1.628.002c-.21-.002-.299.086-.302.273-.043 2.598-.12 6.461.05 7.027.159.529.457.563.649.641.118.049.178.205-.06.205-.632 0-2.476.004-2.476.004-.205 0-.177-.186-.035-.223.232-.063.412-.119.522-.314.104-.182.156-.313.167-.611.016-.4.033-4.82.022-6.318-.004-.486-.074-.621-.172-.652-.298-.092-1.632-.104-2.268.1-.371.135-.576.484-.576.863 0 .074-.051.133-.129.133-.057 0-.091-.02-.091-.107l.019-1.445c0-.074.071-.129.257-.129z"/>
		<path d="m32.285 37.147c-.363-.272-.748-.514-1.148-.703-.438-.061-.906 0-1.148.385-.256.287-.204.74-.075 1.065.098.204-.47.335-.515.509-.226.286 0 .766.205.934.219.18.417.309.627.461.333.271.718.4 1.095.559.053.016.156.035.205-.031.126-.172.012-.131-.108-.297-.174-.295.183-.758.289-.992.21-.431.332-.855.771-1.097.189-.083.499.068.589-.159-.175-.309-.545-.377-.787-.634zm-1.655 2.27c-.225.108-.419-.21-.594-.308-.009-.118.019-.293.069-.4.083-.067.292-.29.399-.24.091.125.277.26.419.327.033.165-.219.489-.293.621zm.717-1.427c-.05.083-.15.34-.258.373-.174-.058-.339-.208-.481-.361-.295-.317.033-.597.083-.796.265-.183.776-.169 1.008.005.167.275-.285.555-.352.779zm7.62-14.655c-.204.076-.02.393-.362.423-.272.023-.651-.225-.802-.489.12-.148.482-.212.473-.675-.007-.412-.107-.659-.601-.815-.34-.106-.748-.038-1.126-.061-.144.023-.368-.034-.459.103-.052.113.127.114.195.213.083.499.001 1.335-.037 1.833 0 .151-.319.219-.176.37.105.181.452.033.625.063.091.015.166.053.25 0 .159-.113.014-.272.03-.431.014-.141-.164-.531.375-.195.298.186.528.491.876.574.211.037.596.109.747-.109.128-.212.229-.403.176-.667-.053-.081-.079-.182-.184-.137zm-1.466-.413c-.081.172-.28.189-.453.172-.154-.073-.02-.525-.083-.644-.037-.09-.015-.243.039-.325.163-.064.411-.074.5.134.055.137.061.535-.003.663zm-.059-13.096c-.106-.128-.76.075-.888.136-.325.227-.144.642-.083.944l-.03.937c-.046.31-.137.605-.25.892.15.15.386-.004.566-.064.114-.09.294-.08.332-.23-.007-.083-.106-.061-.159-.091-.037-.061-.09-.106-.075-.188.007-.197.182-.31.316-.431.151-.062.722-.372.888-.251.09.068.135.149.143.255.045.151-.372.363-.052.455.318.092.767-.327 1.077-.449l.015-.06c-.272-.249-.224-.058-.435-.368.002-.001-1.055-1.298-1.365-1.487zm.197 1.366c-.099.053-.645.342-.751.258-.09-.227-.148-.811-.012-1.061.301-.136.596.417.763.561.038.069.038.181 0 .242zm-3.11 1.725c-.128-.03-.257.007-.34.106-.061.105-.053.249-.038.37-.037.136-.121.279-.272.317-.136 0-.431-.016-.431-.016.109-.321.123-.807-.15-1.071-.197-.208-.378-.363-.673-.302-.332-.008-.649.113-.815.415-.257.249-.617.44-.874.682-.053.075.016.159.068.197.249-.053.431.113.612.241.234.295.514.709.755 1.004.211.189-.075.461.145.651.052.053.151.061.211.03l.723-.727c.053-.128-.038-.3-.198-.233-.093-.01-.203-.046-.226-.167.348-.204.839-.076 1.217-.227.234-.106.476-.333.537-.588.035-.251-.002-.538-.251-.682zm-1.864 1.072c-.234 0-.514-.599-.717-.688.015-.091.208-.289.291-.319.354-.255.655.253.686.517.029.157-.176.403-.26.49zm6.936 26.738.609.001c-.059.155-.118.31-.159.473l-.316.558c.106.037.47-.288.553-.34.15-.1.243-.158.394-.24.665-.363 1.07.222 1.5.438.15.098.522.4.703.342.061-.105-.091-.145-.137-.213-.245-.31-.502-.646-.705-1.018l.6.002c.084.133.179.258.278.373.333.461.861.498 1.344.604.151.037.295-.113.416.022.098.083.053.242.038.348-.145.227-.34.459-.612.492-.664.035-1.053.096-1.936-.146l-.912-.465c-.333-.039-.771.352-1.058.459-.273.143-.598.166-.885.303-.317-.008-.664.006-.966-.045-.477-.01-.604.053-1.005-.137-.068-.053-.121-.137-.083-.227.378-.4.544-.047 1.02-.189.324-.09.657-.219.883-.514.215-.266.338-.569.436-.881zm-1.955-2c.011.003.021.007.033.01.468.06 1.005.03 1.45.136.219.204.554.221.681.529.061.146.076.34.029.498-.088.271-.153.553-.238.826h.609c.092-.242.186-.484.219-.751.038-.267.115-.579-.06-.843-.069-.133-.183-.27-.316-.405zm4.329 0c-.174.308-.291.64-.294.916.042.394.18.754.362 1.086l.6-.002c-.273-.428-.428-.936-.243-1.438.159-.273.491-.273.786-.295.389-.107.791-.185 1.192-.267zm-12.329-4h1.076c.464.411.97.773 1.471 1.079.74.492 1.541.847 2.319 1.262.362.083.695.25 1.05.362.529.281 1.156.325 1.729.506.431-.007.906.234 1.292-.03.03-.053.022-.144-.03-.174-.121-.03-.31-.121-.393.008-.083.03-.174-.008-.212-.083-.053-.167.008-.333.068-.477.113-.256.542-.108.776-.123.499.196.863.403 1.369.569.491.241.499-.438.861-.574l-.029-.038c-1.179-.105-2.388-.151-3.505-.4-.869-.219-1.753-.393-2.583-.704-.815-.212-1.529-.677-2.223-1.184h1.057c1.503.918 3.233 1.293 5.01 1.539.515.106 1.058.137 1.579.227.385.008.755.121 1.141.046l3.098-.31.362-.083 1.263-.431c.59-.307 1.172-.642 1.75-.989l1.049-.001c-.004.002-.009.005-.013.008-.74.574-1.541.998-2.364 1.36-.785.446-1.654.694-2.606.748-.589-.038-1.096.182-1.677.144-.333-.007-.642.105-.959.045l-.007.06c.098.121.219.212.348.303.423.128.722-.034 1.07-.147.302-.03.604-.204.907-.099.166.083.335.132.312.336-.12.317-.461.287-.664.453-.061.076-.023.181.008.257.09.151.286.144.452.122.665-.25 1.398-.325 2.025-.658 1.087-.385 2.115-.907 3.12-1.481.693-.474 1.457-.823 2.073-1.449h.81c-.455.482-.91.959-1.432 1.328-.613.431-1.255.801-1.896 1.179-.741.332-1.466.702-2.26.914-.572.303-1.215.447-1.859.579l-2.403.001c.199-.351.474-.669.743-.838.023-.038-.007-.083-.03-.114-.136.03-.424.19-.561.206-.317.045-.748.158-.951-.189-.143-.03-.212.159-.303.242-.294.31-1.226-.273-1.603-.273-.09.038-.15.037-.158.135.176.183.614.5.939.83h-2.406c-.725-.231-1.557-.213-2.241-.556-.53-.159-1.051-.31-1.541-.552-.847-.416-1.692-.846-2.494-1.375-.543-.536-1.224-.868-1.707-1.496-.005-.005-.011-.012-.017-.02zm-4.31-8c.198.713.437 1.41.701 2.099.339.544.454 1.187.771 1.738.887 1.42 1.759 2.833 2.838 4.164h1.076c-.523-.463-.994-.989-1.346-1.565-.929-1.147-1.639-2.379-2.229-3.663-.143-.446-.43-.846-.582-1.292-.208-.478-.374-.975-.52-1.479zm2.006 0 .229.853c.197.642.514 1.24.71 1.882.34.981 1.11 1.79 1.708 2.658.483.718 1.201 1.322 1.828 1.964.29.212.577.432.868.644h1.057c-.203-.123-.401-.257-.595-.401-.831-.574-1.662-1.269-2.312-2.062-.499-.521-.907-1.103-1.322-1.677-.423-.431-.567-.99-.853-1.481-.268-.768-.516-1.548-.627-2.38zm3.6 0c.241.437.512.861.739 1.306.4.74 1.109 1.367 1.639 2.032.408.408.868.763 1.268 1.148 1.217.997 2.667 1.42 4.095 1.912.786.227 1.617.324 2.47.385.785.016 1.51-.121 2.236-.249.303.045.521-.128.786-.189.611-.061 1.095-.438 1.67-.619.634-.295 1.237-.688 1.872-.99.757-.544 1.3-1.359 1.987-2.01.303-.573.86-1.034 1.087-1.638.153-.38.392-.724.578-1.087h-.674c-.161.328-.401.625-.628.92-.273.061-.462-.227-.636-.407-.147-.169-.287-.343-.432-.513h-.854c.328.332.658.657 1.007.974.189.279.536.604.279.974-.265.605-.883 1.02-1.358 1.496-.093.083-.22.114-.348.083-.417-.695-.734-1.442-1.104-2.16-.197-.303-.295-.658-.461-.975-.064-.136-.149-.264-.232-.392h-.659c.095.195.189.39.295.581.326.528.506 1.118.786 1.669.332.514.596 1.058.967 1.564.029.068.037.136 0 .204-.379.362-.853.552-1.315.748-.37.113-.732.272-1.141.264-.113-.03-.211-.113-.219-.242-.242-1.254-.264-2.613-.482-3.883-.041-.294-.055-.602-.082-.905h-1.511l.167.112c.326.279.792.522.769 1.005.151.551.234 1.33-.136 1.806-.219.566-.642 1.216-1.247 1.457-.544.333-1.7.362-2.198-.007-.814-.476-1.209-2.342-.801-3.135.169-.408.647-.93 1.159-1.237h-1.412c-.729.68-1.091 1.558-1.147 2.535l-.139.947c-.294.333-.335.786-.636 1.096-.446.061-.771-.264-1.126-.476-.234-.219-.204-.604-.091-.876.234-.635.755-1.148.967-1.791.288-.462.445-.971.729-1.433l-.571-.001c-.25.547-.499 1.096-.8 1.623-.242.31-.31.696-.537 1.013-.204.211-.211.626-.582.657-.567-.174-1.05-.65-1.442-1.118-.106-.514.249-.915.483-1.323.239-.276.454-.564.67-.853h-.746c-.161.184-.325.361-.513.513-.227.113-.363.438-.658.339-.228-.24-.424-.535-.566-.852zm23.319 0c-.014.068-.026.136-.038.204-.183.475-.325.967-.528 1.427-.258.491-.386 1.035-.727 1.496-.392.574-.731 1.171-1.223 1.692l-.612.687c-.574.378-1.034.997-1.609 1.39-.332.234-.611.544-.968.733-.203.125-.407.249-.612.372h1.049c.44-.272.837-.654 1.271-.953.877-1.012 2.056-1.858 2.733-2.984.742-.944 1.232-1.993 1.656-3.066.171-.317.289-.654.392-.997zm1.837 0c-.06.181-.122.362-.184.543-.385.982-.771 1.964-1.353 2.871-.491.997-1.169 1.912-1.813 2.841-.43.559-1.034.982-1.496 1.48-.076.094-.155.182-.237.265h.81c.309-.326.617-.654.946-.953.303-.392.613-.792.953-1.171.505-.68 1.004-1.382 1.351-2.13.25-.43.5-.86.704-1.314.446-.747.693-1.583.916-2.43zm-17.783 4.086c.265.574.874.747 1.373.989.423.068.786.272 1.216.333.105.037.091.151.098.241-.121.34-.567.136-.861.182-.483-.151-1.004-.189-1.458-.409-.409-.083-.801-.218-1.141-.483-.076-.044-.03-.136-.015-.204.098-.287.204-.574.355-.838.029-.098.108-.205.108-.205zm5.694-.521c.061.559.159 1.102.211 1.661 0 .144-.143.227-.248.288-.31.174-.673.212-1.036.265-.362.015-.771.151-1.11-.008-.121-.151-.068-.362.03-.506.377-.347.899-.333 1.254-.74.377-.272.491-.68.725-1.027.061-.121.174-.017.174.067zm-19.1-5.565c.101.684.247 1.349.428 1.999l.709.001c-.192-.661-.352-1.335-.535-1.998zm1.965 0c.016.094.022.175.011.238-.068.264.279.96.309 1.209l.148.552h.69c-.008-.062-.016-.122-.022-.183-.076-.37-.197-.718-.227-1.103.075-.363.475-.181.74-.211.242 0 .439-.121.68-.121.408.053 1.02-.173 1.201.34.114.453.313.87.539 1.278h1.221c-.121-.27-.203-.556-.23-.837.031-.166.039-.393.234-.438.461-.197 1.13.089 1.636.005l.408.023c.166.023.348.045.46.159-.015.242-.226.4-.34.604-.149.156-.289.323-.431.485h.746c.228-.303.459-.605.727-.892.483-.468 1.239-.567 1.873-.355.061.045.076.128.076.196-.038.264-.242.46-.317.718-.051.11-.101.221-.151.332l.571.001c.037-.058.075-.117.117-.175.234-.408.416-.868.854-1.147.469-.212 1.042-.068 1.353.339.144.068.204-.098.317-.113.235-.076.469-.106.687.015.091.113.204.189.355.166.272-.007.469-.204.718-.279.384-.053.861-.113 1.208.076.182.211.174.499.234.763.016.076.016.173-.037.234-.197.09-.147-.116-.477-.231 0 0-.536-.23-.748-.32-.385-.174-.846-.031-1.269-.054-.567.151-1.242.202-1.718.594-.052.043-.103.088-.151.133l1.412-.001c.246-.147.5-.246.73-.258.521-.03 1.027.053 1.487.212l.069.046h1.511c-.013-.148-.029-.295-.055-.439-.053-.181-.038-.407.022-.574.189-.204.536-.121.702.076.207.296.364.616.521.938h.659c-.153-.234-.302-.471-.312-.764.007-.113.105-.196.204-.25.377-.053.793-.022 1.17.007l.28.129c.298.294.585.587.874.878l.854-.002c-.211-.249-.433-.489-.7-.696-.105-.144-.287-.271-.272-.461l.112-.075c.793-.038 1.595-.25 2.373-.038l.278.106.061.105c.078.4-.002.745-.156 1.06l.674-.001c.08-.156.151-.316.202-.484.165-.355.24-.74.475-1.065.482-.167 1.057-.121 1.587-.167l.943.015c.144.128.021.341-.007.499-.098.402-.224.794-.31 1.203l.784-.001c.146-.492.259-.995.447-1.466.082-.059.142-.302.18-.534zm29.687 0c-.006.028-.01.052-.011.073-.064.678-.246 1.306-.452 1.927h.598c.029-.11.058-.221.087-.333.13-.545.216-1.107.308-1.666zm-31.915-2.001h.73c.02.146.055.316.088.367.06.083.105.227.226.219.174.03.434.042.547-.063l.255-.34c.033-.013.016-.089-.027-.183l1.032-.002c.083.411.255.809.329 1.215.022.083.054.204.159.211.386-.007.823.016 1.216-.022.944.256 2.017.211 3.029.294.658-.09 1.224.122 1.859.106 1.488.023 3.013-.015 4.494.023.899.061 1.813-.068 2.735 0 .604.008 1.239-.098 1.805-.015 1.013.031 2.024-.03 3.014.045.59-.075 1.254-.098 1.843-.014.379.037.741-.054 1.112.007.393-.067.839.015 1.208-.105.377-.061.815-.031 1.194-.068.814.075 1.646-.045 2.47-.076.272-.031.529.068.785-.008.121-.037.271-.091.324-.219.064-.48-.072-.906-.106-1.372l.96-.001c-.001.001-.002.002-.004.003-.052.068-.154.404-.124.487.092.144.219.317.401.332.172.038.316-.06.444-.173.083-.106.159-.242.1-.385l-.051-.207c-.021-.021-.046-.039-.072-.055h.75c-.016.389-.021.771-.129 1.131-.058.288-.106.58-.154.871l-.529.001c.045-.188.201-.503.116-.628-.116-.056-.289.069-.445.047-.16-.023-.304-.194-.444-.125-.062.076-.056.172-.062.265-.005.067-.022.25-.054.441h-28.796c-.041-.233-.145-.543-.217-.833-.063-.255-.417.009-.56.213-.227.204-.407-.297-.618-.168-.152.129-.084.355-.046.514.027.092.053.184.079.274l-.603-.001c-.006-.046-.013-.092-.02-.138-.227-.559-.218-1.217-.243-1.865zm.069-1.999.681-.001c-.038.271-.066.545-.077.826.015.053.061.083.113.068.083-.113.219-.144.348-.173.196-.091.339.083.46.211.128.045.242.196.371.113.067-.345.131-.694.198-1.044l1.408.001c.167.021.336.034.509.038.378.008.786.061 1.156-.015.092-.041.225.012.319-.024h3.038c.41.133.913.127 1.331 0l1.327-.001c-.043.029-.086.058-.13.086-.045.067-.008.151.06.188.416.046.915.083 1.276-.106.048-.055.098-.111.148-.167l.589.001c-.015.029-.029.06-.041.091-.008.053-.031.158.045.158.234-.053.551.114.71-.136.024-.039.048-.078.074-.115h.58c-.029.041-.058.082-.086.123-.03.045-.039.128.007.167.197.061.393.091.613.068.169-.07.244-.204.288-.357l.462.001c-.013.094-.002.186.073.264.054.128.219.099.325.099.119-.079.156-.22.155-.364l.437.002c.047.109.105.242.238.242.091-.023.212-.008.25-.122.006-.042.009-.082.01-.122l.528-.001c.096.123.248.149.39.169.106.006.167-.085.2-.167l.665-.001c.023.031.048.063.072.093.092.098.234.083.362.083.151-.007.288-.038.408-.121.009-.016.011-.034.01-.054h1.137c.094.048.19.092.289.13.281.091.604.068.906.099.061-.023.159 0 .189-.061-.102-.044-.197-.103-.291-.167l.662-.001c.032.017.064.032.097.048.243 0 .446.114.658.189.37.008.739.015 1.088.067.044-.022.166-.008.12-.105-.085-.079-.179-.14-.273-.198l.742-.001c.035.02.073.037.113.048l.498.038c.113.03.205.105.325.113.166.023.393.061.507-.105.005-.029.011-.06.015-.092l.529-.001c.002.029.004.057.006.086l.046.045c.369.045.726-.083 1.096 0 .332-.053.709-.045 1.065-.076.03-.022.065-.039.104-.054h1.5c.012.112.028.221.072.319.077.377.103.785.096 1.17.014.03.398-.18.556-.196.153-.017.382.165.382.165s-.058-.782-.147-1.458l.578-.001c.059.532.094 1.073.115 1.619-.011.127-.017.254-.021.38l-.75-.001c-.195-.126-.508-.15-.694.001l-.96.001c-.006-.083-.009-.167-.006-.254-.031-.37-.008-.763-.189-1.065-.099-.083-.226-.121-.354-.136-.453.053-.938.007-1.382.075-1.42 0-2.917-.007-4.314.105-.295 0-.627-.053-.921.008-.96-.09-1.995-.023-2.962-.09-.581.082-1.147.022-1.745.082-.211.046-.401-.045-.612-.007-.748.022-1.496.105-2.251.068-.377.082-.808.113-1.208.059-.362-.113-.748.008-1.125.008-.65-.022-1.42-.135-2.031.069-.703.03-1.331-.287-2.033-.159-.762.023-1.496-.128-2.244-.022-.226.053-.46-.061-.672.03-1.027-.038-2.063.023-3.074.016-.129.029-.25.158-.31.279-.108.322-.096.629-.035.932h-1.032c-.076-.167-.234-.392-.341-.421-.121-.06-.41-.064-.562-.042-.067.015-.161.195-.198.255-.006.035 0 .116.012.208l-.73.001c-.009-.231-.021-.461-.051-.685.02-.44.03-.897.115-1.316zm.355-2c-.055.241-.092.488-.083.755-.196.279-.173.649-.21.997-.024.081-.044.164-.061.248h.681c.074-.531.186-1.047.271-1.577.038-.14.071-.281.103-.423zm2.103 0c-.09.422-.18.843-.222 1.284-.049.237-.096.477-.142.717l1.408-.001c-.182-.022-.359-.057-.533-.104-.106-.136-.197-.272-.159-.46-.016-.518.101-.981.243-1.434zm3.714 0c-.236.632-.37 1.303-.612 1.934-.019.034-.044.054-.073.065l3.038.001c-.014-.004-.027-.009-.041-.014-.068-.045-.022-.137 0-.188.657-.529 1.473-.681 2.198-1.051.461-.113.833-.445 1.285-.588.126-.041.243-.096.354-.159h-.901c-.175.085-.355.16-.541.219-.672.257-1.337.528-1.979.854-.514.212-.982.597-1.58.514-.074-.046-.127-.122-.074-.197.528-.46 1.224-.559 1.828-.86.193-.078.7-.29 1.273-.529h-1.314c-.538.148-1.038.423-1.621.445-.083-.038-.204-.09-.22-.196-.012-.099.011-.177.051-.248zm7.004 0c-.115.078-.244.158-.394.256-.831.666-1.774 1.059-2.644 1.632-.088.044-.183.081-.283.112h1.327c.74-.503 1.4-1.2 2.136-1.713.125-.184.271-.225.351-.288zm.972 0c-.011.008-.022.018-.033.031-.174.219-.328.451-.457.694-.32.447-.741.858-1.122 1.277l.589-.002c.151-.293.435-.486.668-.747.174-.264.368-.468.52-.748.105-.068.166-.188.158-.324 0-.091-.02-.071-.081-.139-.042-.009-.079-.027-.113-.042zm.914 0c.227.118.462.215.719.256.242-.014.499.031.717-.037.129.098.341-.046.423.121.03.242.158.438.242.658-.067.359.107.656.102 1.003h.528c-.012-.017-.022-.033-.033-.051-.113-.423-.249-.846-.272-1.307-.06-.144-.151-.279-.144-.431.106-.083.205.053.257.128.242.551.823.967.793 1.624-.003.011-.008.023-.013.035l.665.001c-.457-.604-.771-1.263-1.174-1.887-.021-.055.012-.093.054-.113zm3.004 0c.089.057.094.222.238.234.303.248.605.566.893.876.265.249.469.536.68.793.01.029.022.065.024.099l1.137-.002c-.294-.15-.569-.341-.844-.535-.567-.441-1.012-1.047-1.593-1.463zm1.023 0c.479.188.836.63 1.294.876.444.31.966.43 1.368.845.126.092.25.192.38.28l.662-.001c-.572-.292-1.08-.695-1.588-1.124-.521-.098-.907-.521-1.345-.831-.026-.014-.053-.028-.079-.043zm1.459 0c.073.035.146.066.219.083.393.128.786.226 1.128.476.255.09.452.332.709.438.445.302 1.042.219 1.428.665.132.155.294.244.451.339l.742-.001c-.193-.11-.332-.319-.536-.421-.166-.053-.332-.151-.453-.287-.31-.046-.545-.272-.824-.386-.278-.166-.581-.28-.868-.416-.253-.231-.558-.333-.836-.491zm1.765 0c.041.016.082.03.123.045l.227.03c.175.219.477.121.688.234.379.129.785.167 1.103.423.492.091.931.295 1.405.4.265.189.56.355.795.575.044.079.043.192.029.292l.529.001c-.036-.487-.083-.974-.349-1.366-.084-.208-.152-.423-.23-.634h-.849c.19.149.213.387.241.611-.038.075-.105.144-.205.114-.738-.142-1.374-.52-2.087-.725zm7.271 0c.038.089.078.177.12.264.098.483.4.884.423 1.398-.032.305-.366.258-.599.34l1.5-.001c-.018-.173-.023-.35-.102-.497-.131-.503-.258-1.008-.412-1.502zm2.031 0c.105.433.193.872.256 1.321.042.178.081.42.115.679h.578c-.062-.55-.147-1.089-.27-1.615-.028-.129-.06-.257-.095-.384zm-17.122 2c.283-.393.606-.768.805-1.199.105-.189-.091-.303-.121-.461-.061-.053-.136-.09-.22-.076-.174.204-.226.461-.347.688-.178.368-.465.698-.697 1.047zm1.283 0c.014-.103.057-.209.073-.301.121-.287.106-.634.197-.937.007-.091-.068-.173-.152-.204-.135-.016-.271.008-.332.136-.151.204-.03.477-.09.71-.093.173-.101.4-.157.595zm.99 0c-.009-.02-.018-.04-.026-.059-.098-.355.023-.718.076-1.058-.015-.129-.091-.272-.235-.311-.105-.015-.219.016-.257.113-.044.197-.121.461.031.635.023.174-.037.31-.053.461.016.067.026.143.027.218zm-16.075-3.25c-.006.018-.012.037-.018.056-.076.409-.224.791-.318 1.196l.7-.001c.058-.259.108-.521.162-.778l.177-.472h-.703zm2.065 0c-.045.151-.091.301-.141.449-.044.271-.1.537-.156.802l.596-.001c.131-.414.283-.82.374-1.251zm4.064 0c-.176.271-.293.566-.474.834-.064.136-.122.275-.174.416h1.071c.034-.058.078-.112.123-.167.256-.068.469-.241.726-.324.797-.027 2.458-.526 3.345-.76l-2.042.001c-.423.077-.855.137-1.296.177-.122-.045-.264-.03-.378-.083.008-.034.018-.064.028-.092zm5.916 0c-.165.046-.314.092-.367.086-.477.098-2.842.959-3.28 1.148-.019.005-.038.01-.056.015h1.314c.878-.366 1.913-.795 2.22-.9.087-.081.564-.236.718-.349zm1.115 0c.098.37.292.7.638.939.191.101.379.213.573.312l2.865-.001c.017-.008.035-.013.052-.015.037-.004.065.002.087.017l.535-.001c-.016-.009-.031-.021-.047-.031-.083-.045-.151-.143-.151-.241.008-.052.054-.091.105-.106.197.008.303.258.47.341.038.011.075.023.111.038h.692c-.346-.194-.658-.472-1.031-.62-.067-.053-.144-.144-.083-.227.054-.139.129-.269.189-.404l-.417.001c-.092.228-.235.435-.44.614-.249.219-.589.196-.898.271-.733.174-1.413-.059-1.957-.483-.205-.085-.338-.231-.434-.401zm6.641 0c.128.032.252.069.373.116.682.197 1.442.212 2.116.438.528.083 1.005.288 1.532.385.402.106.81.204 1.225.279.016.01.031.021.046.032l.849-.001c-.084-.225-.18-.444-.32-.643-.062-.215-.165-.413-.281-.606l-.667-.001c.118.211.249.416.275.668-.023.068-.098.105-.167.105-.346-.053-.664-.196-.996-.279-.49-.076-.923-.302-1.436-.302-.271-.026-.515-.116-.764-.191zm8.632 0c.152.418.286.843.46 1.25h.931c-.134-.427-.288-.847-.48-1.25zm2.134 0c.132.412.254.828.357 1.252l.585-.002c-.118-.426-.271-.84-.436-1.25zm-18.938 1.25c.3-.171.558-.398.861-.539.155-.072-.014-.325-.141-.277-.566.212-1.076.557-1.622.817zm1.349 0c.044-.037.069-.08.057-.159-.099-.099-.215-.138-.264-.059-.087.079-.181.147-.286.218zm.609 0c-.045-.018-.086-.029-.129 0zm7.429 0c-.021-.013-.042-.025-.063-.038-.378-.077-.733-.205-1.065-.394-.31-.038-.573-.181-.876-.234-.099 0-.227-.022-.241.099.029.325.358.252.577.359.179.016.345.125.51.207zm2.026 0c-.009-.003-.018-.005-.027-.008-.566-.196-1.148-.363-1.723-.544-.491-.121-1.005-.166-1.45-.4-.121-.045-.279-.03-.386.023-.06.03-.091.114-.045.166.264.234.657.159.937.348.42.151.853.272 1.274.417zm-22.555-2.505c-.188.408-.352.825-.487 1.255h.704l.246-.654c.12-.195.224-.397.324-.601zm1.987 0c-.164.407-.282.833-.409 1.256l.672-.001c0-.005.001-.008.002-.012.074-.442.26-.842.438-1.243zm4.592 0c-.08.094-.155.188-.226.284-.219.219-.445.454-.537.74-.065.074-.123.152-.175.232l.929-.001c.073-.183.209-.255.36-.425.181-.211 4.212-.182 4.288-.514.135-.211-3.946.089-3.581-.296l.019-.019zm6.022 0c-.009.053-.008.109.008.17-.033.37-.025.744.064 1.084h.859c-.116-.205-.179-.444-.254-.655-.017-.214.017-.412.078-.6zm1.337 0c-.038.051-.081.097-.093.154-.083.113-.09.37-.294.325-.171-.166-.057-.323.033-.48zm.623 0c-.06.05-.141.051-.217.026-.01-.007-.02-.016-.028-.024zm1.074 0c-.033.15-.118.291-.151.441-.045.038-.106.038-.166.038-.062-.154-.073-.322-.107-.481zm1.035 0v.003c-.015.144-.068.295-.196.371-.181-.038-.03-.302-.241-.348-.166-.075-.166.227-.317.054-.023-.021-.04-.048-.05-.078zm.34 0c.021.12.042.24.107.343.098.03.271-.008.279.151 0 .272-.04.528-.135.761h.417c.041-.094.075-.19.091-.292.12-.158.265.008.385.031.374.119.778.166 1.16.261h1.785c-.182-.054-.365-.101-.566-.11-.354-.113-.725-.196-1.126-.211-.551-.144-1.2-.106-1.578-.612-.029-.121.03-.227.144-.257.507-.02.997-.048 1.485-.063zm3.728 0c.182.008.365.019.551.035l.582-.03c.063-.001.127-.002.191-.005zm2.157 0c.176.012.345.041.501.095.054.061.175.129.151.227-.574.083-1.261.167-1.858.038-.385.023-.748-.015-1.147.023-.288.083-.644-.212-.839.106-.016.075.015.181.105.196.514.068 1.05.106 1.594.113.265-.06.553-.014.831-.014.658.014 1.45-.228 1.904.384.016.03.031.06.049.089l.667-.001c-.129-.211-.272-.417-.392-.631-.193-.205-.388-.413-.571-.626zm4.541 0c.047.118.089.237.123.359.153.288.275.59.387.897l.91-.001c-.02-.039-.039-.079-.059-.118-.129-.404-.355-.766-.553-1.139zm2.116 0c.175.387.327.781.5 1.167.009.029.019.058.027.086l.507.001c-.168-.418-.347-.833-.509-1.254zm-19.294 1.255c.08-.022.153-.041.219-.057.113-.174 1.579-.156 1.503-.497-.022-.099-2.847.337-3.127.42-.21.048-.423.092-.637.132zm1.848 0c.018-.012.032-.025.04-.037-.032-.115-.33-.038-.588.036zm-11.284-2.75c-.309.485-.584.981-.822 1.495h.786c.249-.51.47-1.033.828-1.496zm2.077 0c-.105.15-.21.301-.313.449-.264.321-.45.675-.598 1.044l.704.001c.022-.051.045-.103.068-.154.248-.459.518-.909.833-1.339zm5.245 0c-.105.091-.21.179-.316.26-.418.386-.876.797-1.249 1.235h1.078c.314-.301.912-.184 1.357-.177l2.011.066c.352 0 .597.076.967 0 .075-.075.199.005.199-.144-.001-.182-.468-.056-.703-.176-.565-.023-1.123-.14-1.675-.102-.482.038-.937-.091-1.412-.113-.053-.03-.154-.086-.083-.159.429-.442 2.43-.056 2.815-.071.046-.016.079-.091.102-.137-.012-.111-1.248-.271-1.666-.482zm2.934 0c.211.099.417.195.602.26l.31.128c.249.159.559.182.816.34.145.297-.16.489-.205.766h.755c.074-.229.188-.442.301-.654.21-.309.474-.644.801-.841h-1.062c-.16.179-.312.413-.567.314-.193-.099-.378-.225-.577-.315zm5.373 0c.094.055.184.118.271.183.197.106.37.295.538.446.068.053.037.158.03.226-.114.128-.409.144-.349.37.036.085.053.177.068.268l2.448.001c.425-.012.849-.017 1.28 0h1.324c.275-.009.562-.023.833-.001l.995.001c-.176-.205-.343-.413-.494-.63-.319-.253-.558-.594-.853-.865l-.822.001c-.375.069-.744.157-1.104.268l-.768.046c-.334-.016-.668.014-.978.083-.408.022-.733.242-1.11.332-.228-.076-.099-.385-.257-.536-.021-.069-.011-.133.018-.191zm1.738 0c-.05.021-.1.042-.149.064-.045.022-.052.083-.029.128.068.083.174.068.272.083.198-.1.399-.188.603-.275zm8.48 0 .361.532c.116.328.278.639.406.963h.809c-.01-.02-.02-.038-.028-.056-.165-.502-.401-.981-.675-1.438zm2.136 0c.103.21.203.421.295.638.176.277.32.564.452.857h.525c-.024-.063-.049-.127-.072-.192-.284-.398-.418-.866-.632-1.302zm-15.221 1.495c.033-.06.063-.119.073-.178.091-.038.31-.128.348.038-.004.056-.033.1-.066.142zm.731 0c-.115-.111-.122-.312-.305-.382-.083.015-.195.022-.264-.031-.046-.038-.039-.121-.008-.166.181-.121.415-.129.643-.106l.09.106c.151.136.181.354.121.543-.01.014-.021.025-.032.035zm.896 0c-.008-.038-.017-.074-.028-.11-.061-.159-.235-.317-.159-.498.022-.038.06-.084.105-.091.249-.022.385.242.484.416.042.1.042.194.022.285zm.654 0c-.027-.074-.017-.167.005-.239.023-.151.159-.264.302-.302.143-.03.249.038.354.113.12.113.144.262.144.426zm4.556-.872c.348-.067.686-.151 1.033-.227.296.015.629-.151.877.037.196.128.452.265.416.529-.22.166-.545.204-.815.151-1.225-.038-2.396.075-3.605.09l-.535.038c-.076-.038-.091-.113-.068-.181.249.015.4-.189.635-.211.166-.083.385-.038.573-.091l.906-.113zm-18.217-2.623c-.004.009-.008.017-.012.025-.235.446-.627.815-.877 1.253-.172.238-.337.479-.493.724l.792-.002c.042-.056.086-.11.132-.162.347-.62.883-1.126 1.262-1.73.03-.037.062-.072.093-.108zm2.22 0c-.564.629-1.055 1.323-1.525 1.999l.692.001c.203-.277.425-.546.671-.805.31-.363.521-.816.906-1.103.044-.03.087-.06.13-.09zm6.881 0c-.747.277-1.421.73-2.111 1.135-.364.237-.707.567-1.05.865h1.425c-.122-.061-.174-.126-.105-.197.366-.37 1.014-.08 1.614.198l1.173-.001c-.136-.063-.279-.108-.435-.118-.393-.272-.846-.408-1.292-.559-.068-.022-.038-.098-.03-.136.121-.188.302-.007.453-.015.204.129.461.137.695.196.317.211.694.272 1.027.438.068 0 .122-.053.144-.106.016-.091-.052-.159-.121-.196-.189 0-.302-.174-.483-.189-.204-.181-.431-.302-.649-.454-.053-.052-.068-.15-.016-.204.076-.105.188-.211.325-.219.362-.099.483.339.763.431.409.218.529.68.876.951l-.008.076c-.036.029-.07.065-.104.103h1.062c.025-.016.05-.03.076-.043.476-.211 1.118-.211 1.639-.091.097.034.189.08.279.133h1.071c.021-.042.053-.082.088-.118.611-.604 1.359-1.359 2.267-.906l.122.121c.006.242-.312.174-.447.302-.463.171-.909.396-1.362.6l.696.001c.362-.153.729-.298 1.082-.487.619-.22 1.283 0 1.775.385 0 .03.029.068.008.099-.01.002-.02.003-.029.005l.822-.001c-.11-.103-.229-.194-.362-.268-.438-.386-.945-.635-1.429-.922-.438-.25-.938-.333-1.359-.597-.165-.104-.351-.164-.54-.214h-2.179c.003.005.005.011.007.017-.038.4-.204.74-.341 1.103-.045.03-.052.076-.105.068-.167-.431.137-.756.113-1.17.004-.005.008-.01.011-.016l-.495-.001c.006.289-.055.552-.127.81-.113.144.038.377-.174.468-.242.083-.543.075-.8.015l-.075-.083c-.061-.37-.038-.762-.053-1.125-.01-.027-.021-.055-.026-.083zm3.762 0c.017.022.031.044.042.07.008.218-.151.574.106.687.098-.007.174-.083.197-.166l.015-.431.08-.161h-.44zm9.838 0c.604.512 1.053 1.159 1.635 1.747l.044.129.085.125h.873c-.039-.064-.078-.129-.119-.193-.226-.242-.354-.521-.521-.793-.313-.327-.534-.686-.825-1.014zm2.699 0c.287.387.545.794.809 1.188.123.273.259.542.393.814l.568-.001c-.029-.06-.061-.119-.094-.178-.165-.271-.157-.626-.399-.876-.075-.31-.347-.551-.535-.816-.055-.04-.104-.083-.149-.129zm-13.733.659c-.038-.174-.182-.393-.022-.559.037-.03.083-.053.121-.068.083.015.181 0 .219.091-.083.37-.015.778.083 1.125-.045.136-.211.189-.325.25-.263.045-.317-.279-.528-.37-.234-.234-.393-.521-.672-.71-.031-.053-.016-.129 0-.188.09-.106.219-.129.347-.099l.113.075c.205.287.317.65.627.847.068.03.173 0 .188-.083.038-.145-.121-.198-.151-.311zm3.467.416c.045.015.105.045.15.007.28-.294.461-.944.998-.785.067.053.158.083.195.174.024.158-.143.143-.234.203-.385.424-.846.718-1.253 1.125-.114.054-.19-.052-.273-.104-.332-.371-.022-.847.068-1.224.151-.167.205-.484.492-.454.128-.023.227.03.339.067l-.015.091c-.204.219-.386.446-.536.687-.029.077.009.152.069.213zm-13.324-3.075c-.053.055-.104.113-.153.174-.294.393-.62.709-.982 1.042-.176.28-.518.488-.675.786l.897-.002c.514-.586 1.152-1.078 1.622-1.683.144-.094.283-.204.418-.318zm3.219 0c-.483.278-.958.578-1.468.793-.498.348-.938.761-1.341 1.208l.875-.001c.572-.402 1.118-.873 1.743-1.146.333-.234.681-.438 1.021-.65.137-.069.275-.137.414-.204zm15.197 0c.055.038.11.075.166.113.778.356 1.33 1.164 2.04 1.677.093.067.183.138.269.21h1.171c-.052-.058-.106-.116-.163-.172-.355-.219-.581-.635-.968-.808-.46-.281-.857-.698-1.296-1.02zm3.212 0c.285.281.563.576.874.831.426.339.773.743 1.088 1.168l.592.001c-.255-.253-.405-.578-.713-.821-.319-.427-.702-.809-1.101-1.177zm-11.035 2c-.008-.035-.009-.07.003-.104.053-.068.151-.061.219-.061.083.047.178.094.238.166l.439-.001.108-.217c.083-.045.219-.023.242.091.004.042.006.084.007.125l.495.001c.034-.051.064-.12.134-.134.084-.007.148.058.182.134h2.179c-.251-.068-.509-.12-.737-.24-.619-.15-1.262-.264-1.918-.34l-1.866.008c-.642.06-1.253.182-1.858.332l-.725.098c-.151.04-.298.086-.443.141zm-3.342-6h1.417c-.041.229-.121.439-.232.598-.211.234-.468.469-.793.446-.393-.324.34-.347.257-.687-.047-.106-.19-.084-.288-.076-.211.053-.514.091-.552.371-.052.249.016.491.197.671.249.167.589.046.854.008.476-.182.896-.697.934-1.181.031-.082.068-.126.11-.15l.187.001c.104.029.222.077.341.031.023-.009.048-.019.072-.032l.878-.001c-.076.122-.149.207-.201.269-.168.2-.551.701-.217.587.358-.122.909-.529 1.232-.855l.492-.001c.285.321.792.719 1.266.856.339.098.019-.316-.15-.516-.06-.07-.154-.179-.25-.34h1.235l.202.709c.241.347.528.71.967.747.12 0 .218-.029.294-.128.076-.106.296-.129.304-.265.045-.144.058-.37.029-.393-.221-.015-.362-.204-.598-.188-.045.007-.112.022-.112.083.083.203.188.392.218.611-.036.068-.097.068-.15.091-.128.061-.241-.03-.339-.106-.152-.329-.272-.747-.318-1.162h.522c.005.038.013.077.025.117.219.128.483-.023.725.053.469.106.861.378 1.292.566.182.129.394.167.574.28.604.242 1.156.582 1.729.892.394.181.732.491 1.148.627.341.196.62.536.968.702.28.255.567.507.848.763h-.74c-.298-.294-.604-.573-.962-.778-.695-.543-1.457-.944-2.25-1.253-.627-.332-1.247-.665-1.897-.937-.12.227-.362.355-.534.551-.176.122-.395.136-.568.257-.045.053-.007.121.045.159.469.136.922.287 1.36.491.718.438 1.48.778 2.222 1.171.21.084.404.203.592.34h-1.219c-.332-.221-.666-.422-1.028-.552-.529-.271-1.08-.498-1.594-.786-.355-.128-.703-.279-1.058-.407-.937-.212-1.897-.401-2.931-.363-.295-.016-.529.121-.839.068-1.307.242-2.682.317-3.882.815-.303.219-.68.287-.99.484-.547.24-1.094.48-1.633.74l-1.242-.001c.382-.221.769-.43 1.183-.573.672-.333 1.322-.71 2.024-.952.914-.385 1.941-.506 2.893-.801 1.096-.204 2.251-.453 3.392-.256.128-.039.788.148.9.034 0-.022 0-.045-.022-.052-.423-.099-1.206-.101-1.567-.335-.114-.06-.375-.296-.519-.296-.227.211-.47.289-.734.425-.446.197-.611.116-1.103.155-.15-.039-.4-.222-.567-.206-.128.03-.452.313-.542.404-.287.287-.665.37-1.021.476-.604.137-1.102-.286-1.443-.747-.121-.098-.325-.083-.476-.045-.4.189-.838.272-1.231.468-.484.325-1.005.566-1.488.892l-1.436 1.125c-.11.093-.222.191-.336.287h-1.127c.371-.392.827-.683 1.237-1.026.514-.341.975-.801 1.488-1.126.733-.551 1.602-.763 2.387-1.186.423-.166.824-.393 1.277-.483.275-.086.571-.126.862-.179zm1.416 0c.067-.379.029-.811-.15-1.155.121-.075.772.16.84.333 0 .219-.037.484.182.59.136.046.288-.136.348.053.011.097-.058.146-.131.181l.878-.001c.166-.269.342-.715.331-1.494-.018-1.134-.762-1.39-1.078-1.407s-.54-.027-.423-.162c.116-.135.649-.15 1.033-.066.384.083 1.212.809 1.212.809s.828-.726 1.212-.809 1.099-.133 1.215.001c.117.135-.088.121-.403.138-.316.017-1.262.362-1.279 1.495-.011.732.173 1.201.35 1.495h1.235l-.019-.063c-.149-.144-.369-.038-.55-.098-.144-.054-.341-.068-.402-.25-.022-.113-.057-.275.073-.32l.112-.094c.015-.068.171-.069.262-.061.212-.016.257.325.49.256.266.023.331-.411.527-.509.427-.342.523-.231.787-.359l.016.03v.03c-.378.257-.779.48-.817.949-.009.158-.002.324.017.49l.522-.002c-.033-.294.168-.546.222-.827.242-.408.771-.144 1.103-.377.114-.098.106-.271.091-.393-.227-.287-.498-.521-.876-.476-.574.09-1.049.385-1.496.771-.257.211-.49-.091-.74-.136-.219-.06-.363-.302-.385-.521 0-.242.256-.393.43-.529.363-.31.877-.173 1.286-.045.149-.023.271-.189.302-.333.029-.182-.009-.378-.114-.529-.166-.098-.34-.181-.536-.211-.643-.053-1.368-.137-1.889.233-.264.128-.446.483-.778.453-.316-.249-.694-.317-1.02-.529l-.521-.218c-.529-.098-1.02.181-1.284.628-.068.249-.234.611 0 .846.083.113.212.144.34.113.189-.022.234-.234.34-.347.076-.076.189-.061.288-.046.181.046.37.212.438.393.083.249-.113.446-.271.612-.144.129-.378.114-.566.083-.627-.378-1.308-.96-2.116-.605-.34.167-.771.507-.771.915.174.287.446-.008.673 0 .37-.038.725.03.959.302.075.211-.031.43-.189.566-.225.105-.473.162-.725.208h1.415zm.675 0c-.068-.018-.132-.028-.187.001zm2.105 0c.153-.155.256-.292.263-.372.006.081.092.217.229.371zm-1.728-.822c.129-.188.355-.377.597-.31l.069.076c.022.136.026.375-.08.48-.135.106-.389.071-.57-.004-.06-.06-.038-.173-.016-.242zm22.528 15.323c-.092-.492-.083-1.036-.144-1.527-.22-1.76-.589-3.452-1.247-5.023-.09-.378-.265-.71-.476-1.028-.106-.354-.332-.649-.513-.967l-.047-.121c-.845-1.125-1.353-2.395-2.378-3.43-1.081-1.095-2.146-2.364-3.43-3.203-.823-.732-1.707-1.299-2.614-1.828-.498-.227-.959-.521-1.443-.779-.491-.226-1.004-.408-1.518-.604-.854-.37-1.866-.37-2.742-.694-.591-.068-1.194-.083-1.774-.167-.923-.061-1.853-.099-2.751-.076-.687-.128-1.427-.068-2.062.128-.423.008-.809.128-1.225.151-.702-.023-1.269.279-1.925.355-.235.053-.416.234-.665.227-.522.242-1.096.325-1.655.477-.445.067-.8.362-1.231.475-.28.333-.726.28-1.02.583-1.17.505-2.183 1.413-3.346 1.94-.944.809-2.07 1.405-2.787 2.455-.371.348-.604.779-.944 1.141-.303.355-.408.778-.688 1.14-.196.552-.671.99-.846 1.542-.166.181-.158.438-.347.611-.167.431-.416.823-.604 1.239-.076.355-.31.634-.378.982-.233.445-.422.914-.513 1.428-.219.302-.265.672-.348 1.035-.204.998-.551 1.949-.612 2.999-.211.801-.03 1.617-.083 2.456-.151.256.053.513-.03.792.158.446.121.967.182 1.451l.067.106c.106.431.159.876.242 1.322.114.786.393 1.503.612 2.251.377.838.575 1.753.937 2.598.264.483.431.998.763 1.459.431.884 1.05 1.7 1.542 2.568.657.793 1.404 1.572 2.16 2.281 1.02 1.051 2.161 1.813 3.338 2.501.976.688 2.071 1.072 3.12 1.594.65.227 1.285.484 1.942.688.582.076 1.042.445 1.647.477.446 0 .785.256 1.224.256 1.579.166 3.218.25 4.812.076.779-.084 1.579-.129 2.334-.258 1.405-.15 2.713-.535 3.975-1.043.663-.414 1.405-.671 2.129-.943 1.157-.611 2.351-1.162 3.393-2.055.589-.37 1.104-.883 1.678-1.321.587-.778 1.352-1.466 1.971-2.251.045-.181.159-.339.265-.505.521-.604.914-1.269 1.374-1.904.212-.46.604-.847.68-1.367.189-.386.95-2.5 1.191-3.127.196-.937.493-1.791.592-2.766.054-.921.265-1.805.211-2.749-.047-.681.043-1.361.005-2.048zm-.837 4.335c-.076.181-.008.385-.061.574-.106.551-.166 1.118-.394 1.624-.341 1.322-.762 2.606-1.299 3.853-.31.597-.648 1.177-1.026 1.745-.483.778-1.05 1.526-1.595 2.266-.188.294-.491.46-.717.717-.318.672-1.036 1.087-1.571 1.579-.612.71-1.397 1.027-2.078 1.594-.771.648-1.714.906-2.529 1.436-.407.249-.869.361-1.255.642-.34.091-.626.295-.975.362-.942.309-1.971.424-2.975.58-.56.16-1.111.35-1.737.35-.484.051-.998.09-1.466.113-.386.029-.779.158-1.164.037-.4-.137-.861-.053-1.292-.037-.869.029-1.737-.047-2.5-.324-.658-.152-1.262-.416-1.95-.508-.777-.354-1.63-.527-2.401-.913-1.021-.415-2.033-.869-2.923-1.608-.529-.439-1.156-.704-1.669-1.209-.688-.513-1.45-1.087-1.903-1.835-.333-.234-.544-.596-.74-.921-.075-.166-.295-.121-.333-.302-.37-.672-.838-1.299-1.224-1.964-.204-.144-.204-.393-.347-.574-.438-.777-.876-1.548-1.133-2.395-.257-.483-.362-1.02-.605-1.503-.127-.468-.249-.937-.302-1.436-.022-.219-.204-.37-.271-.573-.211-.921-.241-1.881-.378-2.833-.053-.408-.174-.831-.151-1.269-.06-.581-.053-1.178.068-1.744-.008-.838.363-1.549.46-2.357.219-.838.371-1.707.778-2.47-.007-.302.235-.506.25-.801.385-.778.582-1.639 1.035-2.394.271-.725.854-1.314 1.095-2.054.242-.559.703-1.013 1.028-1.533.347-.37.68-.809 1.11-1.065.249-.188.476-.423.679-.643.763-.46 1.39-1.2 2.168-1.631.362-.144.626-.529.997-.642.521-.363 1.081-.612 1.631-.892.816-.309 1.526-.876 2.403-1.027.649-.159 1.292-.31 1.956-.415.4-.122.846-.167 1.239-.31.597-.068 1.193-.173 1.79-.241.838-.151 1.73-.167 2.613-.204.627.053 1.246.038 1.859.121l1.11.188c.361-.076.687.053 1.025.076 1.081.113 2.085.423 3.03.869.544.302 1.117.521 1.676.8 1.163.409 2.184 1.179 3.173 2.018.4.415.846.792 1.284 1.14.869.846 1.7 1.692 2.508 2.561.286.408.59.808.838 1.231.454.635.938 1.284 1.254 1.987.688 1.209 1.065 2.545 1.421 3.89.672 1.737.664 3.724.702 5.672-.14.834-.186 1.718-.216 2.602zm-15.963-3.811c.069.136-.061.131-.037.275.015.106.059.28-.075.333-.258.053-.183-.365-.455-.251l-.383.069c-.029.468-.014 1.101-.082 1.554.015.188.247.101.27.29 0 .099 0 .225-.105.231-.121.007-.204.047-.295-.014-.234.068-.536.108-.778-.006-.075-.06-.083-.166-.052-.249.097-.136.31-.105.317-.287-.008-.476.112-1.081-.001-1.526-.083-.121-.32-.106-.403-.076-.188.038-.096.424-.277.378l-.099-.128-.038-.555.062-.053c.703 0 1.45.045 2.13-.039.096.009.225-.029.301.054zm6.6.1c0 .196.038.423-.03.597-.081.061-.195.008-.295.008-.06-.039.046-.219.009-.263-.075-.129-.205-.235-.349-.227-.082.015-.383.18-.396.262.014.544.894.435 1.122.853.206.377.109.666-.124.923-.303.287-.876.287-1.232.114-.211-.008-.431.234-.604.022l.202-.317c.129-.196.086-.302.267-.453l.069.008c.096.363.176.531.567.541.261.007.429-.042.466-.171.062-.083.016-.189 0-.272-.255-.362-1.058-.312-1.239-.727-.082-.295-.111-.684.146-.895.316-.211 1-.311 1.362-.107zm-17.342-.072c.097.174.06.431.037.627-.037.105-.167.098-.264.083-.166-.053-.068-.257-.242-.28-.136-.03-.317-.045-.423.061-.069.068-.089.311-.074.4.068.122.341.06.439.104.158.151.103.145.058.364-.039.204-.272 0-.445.038-.106.128-.075.577-.007.707.27.074.633-.038.763-.148.131-.11.162-.281.301-.325.083 0 .182.038.189.128-.091.211-.031.539-.25.683-.575.233-1.314-.01-1.948.05-.114-.038-.099-.144-.083-.234.461-.423.28-1.279.294-1.854-.015-.151-.26-.279-.177-.422l.076-.045c.4-.031.948.055 1.349.002.143-.006.293.001.407.061zm6.93.096c.015.083.015.167-.031.234-.113.038-.234.098-.316.211.052.445.012.926.005 1.357.083.112.279.083.31.249.06.144.031.261-.075.329-.211.098-.625-.023-.875-.008-.144.076-.33.031-.48-.029-.099-.083-.105-.148-.045-.27.075-.189.333-.076.4-.28.159-.377.032-1.024.085-1.44-.053-.174-.269-.029-.383-.173-.053-.061-.17-.302-.078-.302.445 0 .886-.068 1.362-.015.061.017.099.085.121.137zm-11.365-.056c.015.098-.046.101-.144.132-.061-.008-.113.037-.144.075.03.302.128.692.325.925.114.031.189-.09.235-.166l.601-.869c-.235-.119-.107-.257-.107-.257.248-.037.656-.06.846 0 .06.03.288-.064.23.116-.05.156-.241.119-.344.266-.461.654-.896 1.472-1.266 2.077-.121-.008-.28.03-.317-.098l-.008-.249-.777-1.677c-.06-.068-.174-.023-.241-.076-.099-.083-.083-.108-.06-.229.105-.144.31-.099.461-.151.249.029.605-.091.71.181zm18.773 1.934c-.349-.642-.749-1.254-.998-1.935-.045-.09-.127-.196-.234-.196-.104.016-.352.061-.383.174-.112.748-.564 1.352-.927 1.994-.13.091-.235.219-.372.28-.051.053-.029.106.017.151.294-.023.768 0 1.084-.015.038-.015.104-.038.09-.098-.014-.068-.075-.091-.12-.128-.037-.038-.016-.093 0-.129.16-.377.432-.271.695-.241.175.06.458-.068.499.256.012.096-.144.023-.205.053-.075.038-.137.114-.114.211 0 .099.092.095.182.103.333-.045.623-.042 1.007-.055.155-.005-.147-.312-.221-.425zm-1.008-.492c-.109.09-.518.077-.671.068-.192-.045.186-.512.131-.638.035-.118.016-.322.161-.35.127 0 .108.213.146.35.056.126.262.442.233.57zm1.246-11.525c-.053-.158-.12-.146-.346-.153-.318.091-.604.257-.817.551-.361.265-.718.574-1.125.733-.135.098-.286.038-.43.106-.015.045 0 .09.021.121.146.068.273.174.431.212.175.068.25.37.477.204-.007-.105-.112-.227-.023-.325.395-.121.556.075.844.302.059.068.075.129.016.219-.129.031-.272.085-.385-.004-.03 0-.061.037-.061.075.008.212.379.444.501.565.099.189.406.374.608.412.062-.022.114-.091.106-.159-.136-.378-.249-.072-.075-.443.06-.113.205-1.776.273-1.883-.038-.318-.015-.533-.015-.533zm-.774 1.266c-.021.128-.503-.16-.594-.273-.047-.045.323-.303.338-.349.174-.12.201-.208.391-.299l.029.03c-.015.203-.117.602-.164.891zm-5.516-3.667c-.015.25-.053.506-.091.756-.015.053-.068.091-.12.083-.123-.012-.294-.015-.26-.546-.239-.266-.568-.126-.578.153-.028.811-.151.929-.068 1.48.12.144.12.347.301.453.038.076-.022.159-.097.174-.212.037-.378-.091-.583-.099-.257-.023-.521.053-.755-.03-.075-.038-.045-.129-.014-.182.528-.348.415-1.035.46-1.609-.008-.091-.056-.182-.144-.219-.442-.186-.355.144-.559.189-.045.046-.144.046-.188 0-.151-.105-.053-.295-.053-.438.038-.113.022-.287.166-.302.575-.068 1.186.053 1.753-.038.286.048.664-.081.83.175zm2.998.683c.136.046.271.122.362.235-.03.294-.416.12-.529.347-.173.551-.811 1.185-.351 1.79.016.06-.016.121-.076.136-.234.008-.585-.301-.78-.407-.205-.045-.446-.038-.575-.226.022-.227.317-.167.461-.295.341-.144.367-.588.487-.875.038-.211.197-.408.15-.635-.098-.12-.339-.181-.233-.385.099-.174.295-.015.438-.03.122.158.503.255.646.345zm6.375 4.832c.279.264.407.612.589.929.029.128.144.264.045.4-.098.137-.257.159-.415.159-.076-.039-.056-.137-.038-.196.122-.415-.053-.65-.386-.673-.061.219-.417.119-.32.383.077.105.214.244.178.388.015.159-.144.234-.257.294l-.099-.007c-.12-.167-.287-.302-.325-.492-.03-.037-.091-.067-.136-.03-.067.136-.317.219-.241.416.181.173.166.438.393.582.105.03.189-.045.302-.045.158.067.408-.03.514.121.022.166-.174.151-.271.203-.25.092-.544.22-.809.099-.28-.25-.287-.604-.552-.854l-.016-.091c-.195-.196-.362-.408-.604-.506-.067-.039-.053-.136-.029-.189.12-.272.331.007.521-.053.393-.204.801-.348 1.156-.635.15-.022.256-.166.338-.279-.021-.136-.073-.272-.028-.408.061-.038.144-.09.203-.03.159.143.181.348.287.514zm-22.361.784c.045.233-.23.381-.38.54-.114.219-.158.626-.022.86.129.204.295.469.552.491l.506-.053c.052-.129.188-.205.173-.37-.035-.413-.415.052-.514-.151-.015-.234.11-.57.276-.721.249-.045.479.117.683.268.091.038.242.022.265.159v.144c-.076.317-.105.68-.265.974-.211.265-.425.352-.771.491-.202.081-.453.14-.642.064-.279-.264-.755-.4-.831-.831-.332-.582-.021-1.458.318-1.935.182-.096.545-.24.652.07zm4.543 16.009c-.038-.083-.128-.188-.234-.174-.477.204-.899.521-1.405.666-.205.105-.401.241-.642.279-.204.068-.379-.038-.575-.046-.053.023-.075.076-.083.129.325.242.597.603.876.89.128-.113.046-.323.167-.445.144-.06.294.03.438.068.257.144.56.408.551.732-.022.068-.204.035-.264.051-.016.075-.135.068-.043.159l.482.281c.204.128.324.401.551.461.091-.016.068-.137.061-.212-.507-.958.271-1.849.12-2.839zm-.875 1.389c-.152.03-.373-.25-.471-.372-.046-.045-.061-.114-.038-.182.182-.113.548-.464.76-.479l.032.039c-.015.25-.231.752-.283.994zm16.892-.731c-.389-.1-.174.079-.561-.029-.283-.079-1.169-.44-1.449-.53-.174-.068-.386-.242-.574-.083-.098.294.093.528.063.838.122.43.327 1.198.181 1.35-.183.189-.294.351-.151.533.138.045.188-.076.286-.137.219-.173.498-.279.664-.521-.03-.144-.219-.046-.287-.159-.075-.211.241-.293.347-.437.173-.083.266-.318.478-.318.233.075-.016.25.007.393.016.023.046.068.084.061.354-.166.626-.552.951-.778.013-.063.013-.138-.039-.183zm-1.985.765c-.143-.144-.237-.678-.213-.875.037-.061.194.085.241.107l.474.212c.031.022.125.047.132.078-.15.182-.399.546-.634.478zm-16.896-4.634.016.136c-.151.423-.375 1.247-.405 1.715.038.067.279-.19.332-.221.264-.106.438-.399.711-.474.158.053.193.128.291.264.083.173.302.333.227.543-.181.159-.25-.173-.438-.113-.37.076-.665.325-.99.521-.181.242-.453.317-.665.514-.098-.045-.287.015-.294-.144.029-.566.352-1.181.299-1.77-.062-.083-.631.42-.7.458-.293.205-.151.187-.243.534-.082.03-.166-.06-.226-.113-.076-.159-.105-.34-.197-.491-.083-.083-.196-.159-.158-.295.385.038.423.027.754-.101.249-.181 1.211-.847 1.219-.953.015-.091-.123-.162-.069-.253.068-.09.196-.068.279-.022.114.054.212.152.257.265zm19.844.294c.067.061.144.144.082.227-.278.099-.596.099-.845.288-.099.09-.258.181-.272.325.09.173.315.372.489.357.234-.098-.084-.446.249-.446.241.007.323.041.443.23.016.037.054.098.016.144-.1.083-.287-.008-.333.166-.007.083.012.267.103.327.083.121.234.15.369.121.175-.046.243-.234.341-.355.121-.249-.158-.408-.295-.582-.007-.098.054-.188.144-.227.333.068.533.314.835.442.022.098-.03.189-.076.265-.46.552-.762 1.052-1.306 1.543-.061.038-.117.125-.185.087-.144-.136.183-.374.092-.498-.195-.266-.721-.807-1.145-.973-.242-.067-.282.037-.426.211-.083.068-.184.096-.274.059-.099-.045-.095-.14-.065-.223.091-.242.386-.4.516-.62.241-.423.527-.675.822-1.083.277-.181.471.147.721.215zm-14.932 4.078c.626.211 1.239.446 1.881.627.09.038.181.105.234.181.038.227-.144.386-.196.589-.061.053-.144.045-.205 0-.166-.174-.136-.597-.491-.514-.25.068-.271.426-.385.615-.075.303-.302.559-.295.883.076.182.196.254.333.39.03.061-.023.129-.083.152-.188.014-.31-.136-.483-.166-.31-.114-.68-.099-.959-.287-.037-.038 0-.083 0-.121.129-.061.272-.075.4-.144.287-.34.31-.786.514-1.164.038-.144.188-.256.143-.415-.105-.091-.227-.129-.362-.151-.189.121-.295.333-.469.453-.06-.014-.143-.022-.166-.097-.014-.333.114-.604.265-.869.113-.03.226.008.324.038zm5.124 1.055c.047-.086.147-.041.24-.054.273.006.623-.053.893.043.059.097.01.185-.036.262-.041.07-.218.049-.315.122-.287.707.128 1.669-.68 2.063-.389.081-1.057.064-1.357-.195-.341-.59-.01-1.251-.186-1.893-.044-.088-.102-.193-.217-.19-.065-.022-.141-.091-.087-.168.022-.074.101-.11.168-.096.288.083.65-.04.934.005.06.022.061.082.079.122-.016.074-.1.081-.149.121-.165.127-.068.357-.086.53.11.468-.233.975.26 1.27.198.074.406.043.552-.117.311-.43.309-.912.273-1.448.012-.113-.115-.126-.187-.171-.07-.044-.124-.117-.099-.206zm5.564.534c-.075-.068-.174-.106-.28-.076-.144.038-.165.189-.203.302-.053.159-.234.121-.378.144-.121-.038-.517-.283-.441-.4.156-.244.32-.62.056-.944-.249-.529-.944-.4-1.352-.234-.31.211-.68.279-.989.475-.03.083.013.172.072.233.114.105.275-.044.403-.037.166.151.227.355.332.537.121.325.257.642.334.989.028.196-.16.408.015.544.188-.098.407-.143.61-.205.219-.128-.161-.616-.124-.79.03-.06.091-.09.158-.075.144.098.641.351.808.388.505 0 .806.009 1.031-.498 0-.119.069-.263-.052-.353zm-1.774-.128c-.075.076-.23.153-.329.114-.105-.09-.477-.764-.282-.861.25-.053.544-.008.681.257.054.166-.01.361-.07.49zm-11.25-30.301c.007.348.239.531.133.841-.076.09-.058.12-.179.12-.052-.022-.135.015-.159-.061-.022-.151-.182-.311-.317-.364-.159-.008-.678.212-.784.401-.052.122-.03.257.061.363.438.445 1.005.015 1.481-.038.196.023.37.136.536.264.288.317.453.763.31 1.186-.233.446-.649.96-1.216.907-.204.061-.363-.196-.521-.038-.007.121.03.264-.098.31-.099.022-.212.015-.288-.061-.121-.174.03-.362-.015-.552-.03-.204-.201-.328.057-.478.309-.038.611.4.875.311.247-.083.377-.146.474-.414.043-.12.068-.265-.015-.378-.076-.091-.181-.151-.31-.151-.317.03-.513.347-.876.287-.34-.038-.665-.151-.869-.476-.166-.272-.339-.604-.211-.945.105-.302.37-.566.665-.694.212-.077.486-.154.706-.116.249-.053.147-.467.494-.308zm16.665 1.24c.122.121.129.37.349.393.112.007.278-.038.309.114-.104.242-.385.324-.558.506l-.26.207c-.059.022-.112-.038-.127-.083-.145-.31.151-.35-.036-.629-.092-.128-.189-.303-.355-.333-.113-.007-.212.083-.265.173-.205.386.097.673.188.998.151.181.211.4.271.62.091.325-.037.619-.271.823-.348.265-.702.332-1.146.196-.212-.121-.453-.196-.627-.393l-.243-.386c-.144-.037-.331-.007-.438-.136-.046-.083.016-.174.062-.242l.642-.71c.045-.045.142-.037.195-.008.075.039.083.129.105.197-.016.211-.249.332-.21.566-.031.28.263.438.452.567.128.06.333.068.46.007.168-.099.25-.287.183-.469-.022-.355-.453-.536-.507-.869-.052-.302-.166-.687.054-.943.295-.438.822-.529 1.307-.469.179.046.346.152.466.303zm-20.819 1.005c.044.279-.235.414-.023.663.242.431.768.785.965 1.223.128.166.219.37.423.46.219.128.472-.219.563.091-.091.226-.428.342-.587.501-.233.167-.506.393-.642.642-.061.053-.159.099-.227.038-.181-.264.183-.579.047-.874-.068-.203-.28-.354-.386-.544-.279-.468-.702-.921-1.178-1.186-.167-.083-.399.156-.497-.033.008-.144.15-.257.265-.332.324-.25.687-.416.989-.726.092-.044.257-.044.288.077zm22.593 1.259c.211.182.218.438.182.71-.038.272-.302.431-.552.492-.265 0-.589 0-.71-.287-.091-.219-.022-.492.121-.681.121-.128.24-.279.399-.339.205-.008.401 0 .56.105zm-25.254 1.13c.053.083.023.197-.008.28-.083.091-.173.196-.302.144-.091-.038-.24-.223-.331-.125-.067.061-.273.473-.221.542.098.075.313.185.441.177.401-.054.946-.53 1.407-.378.249 0 1.014.144 1.012.933 0 .234.014.495-.099.707-.174.325-.461.726-.854.801-.075-.016-.174-.023-.25.007-.106.114-.045.317-.196.393-.287.083-.34-.272-.468-.431-.091-.211-.152-.319-.19-.554.008-.053.063-.059.106-.076.493-.195.434.524 1.194-.043.128-.096.15-.257.15-.423-.113-.182-.028-.516-.521-.423-.49.092-.853.317-1.307.408-.339.022-.635-.151-.861-.401-.144-.287-.212-.702-.045-1.004.151-.196.519-.954.692-.848.257.083.462.14.651.314zm-2.475 2.429c.091.174-.098.302-.06.491.076.362.385.681.739.771.589.378 1.056.786 1.676 1.096.053.038.053.113.038.165-.272.303-.625.212-.995.22-.597.008-1.232.031-1.768.228.181.15.317.369.575.415.21.257.506.378.823.317.144-.007.181-.256.34-.188.098.046.128.159.098.257-.287.453-.438.959-.709 1.421-.038.083-.137.135-.204.06-.151-.136.007-.31-.038-.484.007-.37-.363-.552-.612-.748-.438-.294-.929-.543-1.481-.513-.188-.015-.272.264-.476.189-.144-.091-.015-.266.023-.379.181-.324.326-.592.727-.675.588-.166 1.279-.313 1.932-.343.113-.005.181-.069.249-.151-.242-.227-.521-.423-.808-.59-.181-.113-.295-.2-.507-.237-.113.061-.212.196-.355.113-.068-.053-.166-.099-.181-.189-.016-.105.106-.15.128-.241.204-.371.251-.805.613-1.078.089-.01.164.013.233.073zm-2.395 5.916c.121.174.49.053.43.34-.106.151-.49.012-.641.065-.204.136-.318.366-.295.66.007.113.064.303.162.348.174.039.541.21.662.006.008-.144-.019-.598.042-.644.151-.037.168.048.312.04.175-.015.407-.002.368.066-.181.322-.182.509-.355.683 0 .044.038.06.068.067.362-.03.739.206 1.072.244.067-.234.073-.652.126-.901.045-.386-.62-.536-.484-.921.068-.114.196-.106.302-.076.265.114.473.123.655.35.257.347.056 1.01-.088 1.342-.196.409-.234 1.602-.302 1.693-.061.045-.159.061-.227.015-.294-.219-.041-.788-.711-.831-.573-.036-1.102-.265-1.676-.393-.34-.031-.257.536-.612.385-.227-.31.314-2.103.451-2.579.052-.067.056-.065.131-.088.232-.03.398.114.61.129zm-1.164 5.197c.499.136 1.096.044 1.617.113.318 0 .71.075.899-.212.03-.075.061-.218.159-.241.083-.007.204-.038.271.03l.038.076c-.03.477-.067.929.038 1.383.007.128.015.264-.113.325-.302.06-.429-.444-.709-.498-.514-.144-1.118-.076-1.684-.09-.348-.022-.545.232-.765.49-.052.038-.278.018-.287-.166-.021-.427-.135-.702-.035-1.176.031-.147.02-.365.194-.418.21.006.188.308.377.384zm2.905 2.961c.113.023.287-.023.333.114-.053.257.067.392.098.618.104.461.529 1.723.529 1.897-.03.083-.106.173-.189.204-.407.03-.182-.361-.605-.27-.438.121-1.441.415-1.925.422-.076.022-.182.038-.189.122-.007.105.03.286-.106.323-.159.007-.249-.159-.332-.265-.167-.423-.56-.8-.417-1.299.046-.099.144-.099.235-.106.242.016.203.4.46.355.257-.068.688-.098.968-.128.332-.211 1.262.045 1.196-.422-.188-1.332-.601-1.02-1.029-1.489-.128-.14.144-.121.211-.182.286-.045.505.076.762.106zm33.824.632c.499.347 1.14.338 1.743.444.228.022.479.261.681.065.069-.113.107-.257.235-.332.113-.015.226.061.249.167-.046.302-.219.544-.266.831-.203.4-.338.838-.362 1.314-.037.091-.09.211-.203.242-.311.031-.573-.038-.846-.091-.1-.045-.218-.256-.105-.257.7-.007 1.04-.924.985-1.035-.053-.105-.666-.128-.907-.206-.177-.058.105.523-.197.629-.257.045-.106-.043-.362-.021-.083-.038-.159-.105-.188-.196-.031-.105-.008-.227.083-.302.046-.03.098-.058.112-.119.03-.113-.112-.16-.218-.19-.287-.03-.74-.408-.914-.144-.082.355-.277.813.238 1.351.036.039-.014.113-.076.136l-.157-.023-.613-.423c-.104-.136-.044-.34-.014-.483.105-.431.249-.832.392-1.246.076-.174.122-.37.288-.491.302-.018.187.289.422.38zm-1.488 3.553.016.234c.377.392.822.703 1.306.876.348.287.74.484 1.134.68.106.068.189.181.136.316-.37.423-1.073.257-1.587.257-.061-.022-.323-.082-.384-.067-.075.091.126.37.156.453.196.393.424.665.598 1.065.016.09-.053.143-.09.204-.377.038-.657-.264-.989-.392-.206-.08-.312-.228-.499-.295-.378-.128-.879-.628-1.223-.362-.127.098-.242.015-.371-.076.015-.295.204-.559.34-.823.144-.076.084-.4.316-.302.242.106-.041.445.23.482.25.114 1.241.579 1.438.813.098.045-.82-1.189-.828-1.484.008-.113 1.682.115 1.698.032-.022-.128-.982-.526-1.073-.579-.257-.007-.531-.406-.874.147-.049.079-.219.015-.259-.091.023-.113.122-.196.151-.31.174-.287.092-.718.447-.906.09-.008.159.052.211.128zm-2.418 4.358c.113.316.542.402.791.659.417.271.66.916 1.197.916.196-.006.437-.124.542.049.091.279-.241.294-.385.422-.197.25-.454.469-.643.695-.061.038-.136.022-.189-.015-.09-.129.115-.311.04-.447-.113-.204-.599-.563-.817-.677-.362-.272-.499-.599-.93-.772-.25-.068-.479.291-.675.011-.007-.355.381-.518.516-.819.159-.129.228-.333.4-.438.221.022.092.288.153.416zm-24.897.957c.022.369.332.642.657.755.031.083-.03.166-.106.188-.166.076-.37.061-.559.083-.174.158-.188.099-.407.15-.083.031-.182 0-.212-.083v-.09c.144-.114.237-.173.291-.37.022-.325-.277-.597-.548-.771-.136-.045-.253-.027-.389.04-.173.137-.068.312-.016.516.113.294.133.532.163.857 0 .4-.075.763-.37 1.035-.241.136-.49.287-.8.196-.265.008-.431-.241-.62-.4-.174-.279-.37-.536-.483-.831.008-.189.219-.242.34-.333l.469-.121c.227.174-.121.287-.137.454-.022.242.068.445.272.589.181.061.355.03.514-.061.136-.097.061-.264.068-.408-.068-.551-.446-1.035-.295-1.624.06-.204.166-.415.37-.537.536-.196 1.11.023 1.519.378.135.115.218.251.279.388zm19.372 3.357c-.046.159-.327.2-.197.389.128.288.098.62.324.869.113.311.235.921.537 1.133.166.189.363-.043.59.003.083.06.129.159.121.265-.068.242-.355.158-.529.257-.514.188-1.137.438-1.635.658-.144.053-.16.31-.356.211-.219-.211-.211-.551-.399-.792-.016-.068-.023-.167.053-.205.128-.045.188.092.294.113.151.016.164.229.331.162.113-.137.578-.289.578-.289l-.234-.711c-.068-.067-.159-.09-.25-.067-.15.113-.083.325-.233.422-.091.017-.144-.09-.174-.15-.129-.242-.167-.345-.129-.632.158-.182.34.067.528.021.083-.061.038-.174.008-.249-.249-.188-.174-.892-.641-.696-.189.076-.51.158-.569.393-.076.135-.054.362-.241.4-.077.015-.16-.008-.183-.084-.03-.15.061-.249.069-.385 0-.136-.138-.362.046-.431.481-.204 1.025-.28 1.509-.483.175-.098.525-.351.728-.26zm11.878-20.532c-.06-.076-.136-.182-.242-.182-.317.121-.604-.061-.93-.053-.119-.038-1.328-.083-1.781-.295-.41-.191-.506-.521-.506-.521-.038-.136-.28-.215-.326-.083-.052.15-.023.42.069.617.136.29.166.494.279.759.021.09.111.121.188.098.09-.008.063-.342.042-.425.037-.076.214.054.29.031.158-.015.195.035.31.125.09.211.136.553.188.765.008.166.067.325.052.491-.036.083-.259.242-.357.219-.167-.038-.186-.299-.358-.299-.105.029-.084.151-.091.241.083.197.053 1.027.145 1.247.044.083.105.211.225.158.364-.234.003-.255.347-.543.363-.304 1.688-1.457 1.945-1.608.121-.06.36-.334.459-.44.059-.083.09-.203.052-.302zm-2.017 1.041c-.083.008-.098-.09-.128-.144l-.113-.806c.212-.151.982.099 1.296.091.251-.006-.858.708-1.055.859zm-2.571-9.232c-.023-.129-.18-.136-.294-.144-.816.227-1.542.672-2.351.929-.249 0-.514.045-.724-.076-.1-.015-.236-.098-.326 0-.03.105.008.204.061.287.316.196.518.728.878.728.152 0-.055-.24.226-.372.372-.177.694.316.892.596.037.121.008.257-.054.363-.046.091-.164.016-.271.001-.097.008-.176-.105-.243.008-.015.023-.021.173-.007.187.273.129.446.409.619.642.107.099.201.354.317.272.212-.148.073-.271.1-.431.058-.353.375-.823.532-1.329.13-.536.561-1.109.645-1.661zm-1.394 1.5c-.219-.008-.427-.28-.525-.439.113-.151.72-.45.878-.533.171-.053-.217.882-.353.972zm-1.466 27.759c-.167-.634-.355-1.261-.461-1.918-.03-.264-.098-.559-.054-.823.092-.174.259-.317.28-.521-.03-.075-.121-.12-.211-.105-.196.212-.438.34-.688.453-.114.197-.236.094-.311.321.045.121.196.105.317.121.12.022.067.159.082.242-.173.333-.528.524-.831.691-.098.015-.175-.061-.219-.137-.158-.181-.052-.209-.074-.397-.023-.054-.084-.069-.143-.062-.288.258-.657.378-.93.666-.068.067-.197.09-.182.211.038.098.067.211.166.279.083.038.186.041.265 0 .594-.308.968.546 1.481.819.377.098.883.732 1.126.705.198-.022.337-.096.475-.232.063-.123-.051-.214-.088-.313zm-.637-.388c-.151-.03-.682-.679-.803-.747-.037-.029-.091-.014-.113-.067l.008-.076c.136-.129.624-.632.744-.248.054.144.239.881.27 1.032-.015.054-.053.099-.106.106zm-25.236-6.01c-.166-.34-.379-.995-.567-.982-.285.02-.007.469-.249.612-.105.067-.257.098-.386.053-.279-.136-.273-.254-.453-.626-.079-.165-.279-.348-.121-.536.121-.106.175-.333.371-.333.083.015.083.106.113.167.045.09.09.241.234.188.053-.015.128-.06.128-.128-.045-.355-.324-.605-.43-.937-.151-.182-.099-.543-.408-.567-.189.083-.06.34-.114.507-.233.302-.415.626-.702.914-.264.302-.483.657-.792.929l-.303.499c-.021.113-.174.346-.015.363.918.099 1.662.053 2.493.037.333.008.755-.09.997.189.098.068.121.204.227.241.091.031.174.038.241-.045.016-.212-.166-.371-.264-.545zm-2.025-.307c-.234-.007-.598.016-.832.023-.053-.03.573-.612.588-.658.166-.174.272.191.272.191s.08.313.186.374c.023.053-.162.077-.214.07zm30.522-17.011c-.18-.332-.261-.592-.254-.792.009-.199.181-.424.204-.599.101-.243.334-.442.538-.615s.448-.3.734-.383c.261-.014.517-.134.729-.121.215.014.411.067.59.16.186.095.287.253.46.392.51.655.585 1.382.308 1.528l-.08.053-.303.143c-.122.08-.208.085-.257.113-.047.029-.083.046-.106.053-.033.01-.063.01-.09 0s-.042-.026-.047-.048c-.006-.034.029-.103.105-.204.037-.049.065-.089.086-.119.102-.149.212-.178.248-.304.038-.125.005-.354-.018-.471-.044-.235-.203-.436-.453-.526-.247-.091-.536-.021-.872.077-.378.109-.614.224-.802.446-.187.224-.274.542-.179.813.021.11.056.183.104.218.03.183.505.723.595.697.13.081-.092.228-.092.228-.054.018-.908-.268-1.148-.739zm-20.681 26.965c-.063-.023-.14-.064-.164-.104s-.026-.083-.007-.135c.028-.075.289-.096.303-.1.07-.018.164-.164.282-.439.022-.055.186-.589.249-.799.008-.021.068-.357.084-.402.087-.24.016-.398-.042-.538-.057-.138-.16-.237-.376-.315-.227-.083-.322-.053-.472.01-.151.063-.267.125-.343.334-.019.053-.172.273-.184.314l-.413.771c-.103.341-.188.561-.149.619.015.022.039.051.071.086.067.073.164.196.143.254-.017.047-.042.076-.077.09s-.078.011-.131-.008l-.894-.389c-.058-.021-.097-.051-.118-.088-.023-.036-.025-.078-.008-.127.021-.057.08-.09.176-.097 0 0 .258.043.284.022.026-.02.569-1.059.569-1.059.008-.025.266-.559.297-.645.106-.293.287-.478.541-.554.253-.075.521-.063.918.081.456.166.724.318.883.554.158.237.206 1.032.112 1.231-.043.087-.093.311-.115.36l-.126.647c-.012.023-.042.207-.053.231s-.057.173-.051.204c.004.031.098.136.098.136.073.069.099.134.077.194-.016.043-.044.074-.084.09-.04.018-.085.016-.135-.002zm28.663-21.106c-.159-.876-.159-1.813-.477-2.629-.235-1.375-.732-2.651-1.186-3.936-.235-.475-.393-.982-.732-1.405-.175-.34-.387-.658-.537-.997-.355-.469-.514-1.02-.86-1.48-.439-.469-.749-1.02-1.156-1.503-.377-.543-.906-.99-1.292-1.534-.37-.174-.484-.619-.854-.823-.144-.28-.49-.34-.643-.627-.46-.394-.868-.876-1.359-1.231-.726-.62-1.64-.785-2.351-1.428l-.603-.302c-.53-.393-1.156-.552-1.724-.861-.483-.242-.981-.431-1.464-.657-.4-.113-.771-.31-1.194-.378-.113 0-.188-.105-.303-.091-.975.008-1.79-.362-2.704-.483-.821-.023-1.63-.167-2.439-.273-.362.045-.725-.022-1.072.053-.657.045-1.322.06-1.956.151-.953.167-1.941.242-2.788.65-.943.317-1.889.642-2.818.982-.196.121-.415.189-.642.234-.566.151-1.02.551-1.587.688-.596.363-1.269.514-1.798 1.027-.604.25-1.156.62-1.692 1.05-.627.28-1.179.771-1.723 1.232-.552.642-1.231 1.125-1.783 1.737-.188.287-.445.56-.611.854-.28.332-.544.664-.786 1.012-.348.332-.566.732-.808 1.118-.272.552-.65 1.05-.93 1.594-.121.4-.332.763-.476 1.156-.279.461-.446.967-.641 1.465-.159.552-.401 1.065-.515 1.631-.06.197-.219.348-.173.582-.166.423-.196.906-.279 1.36-.023.741-.288 1.39-.288 2.13 0 .62-.045 1.262-.052 1.866.029 1.042 0 2.107.128 3.134.083.446.061.907.212 1.322.302 1.163.529 2.35.967 3.452.218.816.619 1.556.914 2.342.242.422.596.793.748 1.253.317.499.529 1.058.952 1.503.061.159.279.258.294.439.233.257.4.559.604.846.295.288.506.635.809.914.068.257.37.393.483.62.25.234.574.399.741.709.46.182.725.635 1.132.929.998.869 2.07 1.579 3.188 2.19.506.203.967.521 1.465.74.658.332 1.353.582 2.018.883.604.061 1.118.379 1.737.363.234.016.416.152.658.152.823.182 1.631.393 2.462.551 1.314.047 2.689.271 4.003.053 1.798.037 3.468-.264 5.085-.688.748-.279 1.533-.459 2.289-.732.892-.49 1.865-.771 2.749-1.277.233-.098.431-.271.672-.34.649-.316 1.208-.867 1.835-1.253.886-.559 1.738-1.239 2.547-1.934.702-.786 1.434-1.602 1.971-2.479.665-.815 1.263-1.669 1.707-2.59.092-.068.115-.189.168-.28.029-.235.157-.423.257-.626.218-.681.641-1.277.876-1.957.173-.371.263-.778.354-1.187.257-.717.498-1.435.665-2.19.226-1.359.521-2.697.657-4.102.167-.874-.02-1.795-.051-2.694zm-.587 3.618c-.13 1.213-.33 2.465-.612 3.609-.092.885-.631 1.509-.776 2.372-.214.503-.286 1.151-.6 1.616-.367.71-.709 1.303-1.036 2.02-.46.877-2.351 3.92-4.163 5.093-.702.473-1.381.976-2.053 1.534l-.886.541c-.434.068-.716.496-1.097.688-.284.189-.611.273-.916.42-.917.479-1.831.969-2.839 1.236-.756.318-1.602.426-2.357.754-.992.152-1.976.305-2.984.412-1.03-.016-2.052.215-3.044.023-.586-.146-1.273-.115-1.883-.137-.275.021-.474-.131-.726-.16-.686-.123-1.319-.367-2.036-.42-.833-.16-1.595-.473-2.389-.711-.167-.105-.366-.105-.549-.182-.793-.482-1.678-.756-2.449-1.283l-.153-.068c-.603-.495-1.25-.87-1.892-1.274-.71-.571-1.488-1.021-2.174-1.678-.458-.382-.802-.885-1.199-1.32-.335-.26-.564-.604-.869-.901-.564-.618-.863-1.373-1.412-2.006-.45-.595-.648-1.29-1.007-1.922-.199-.496-.48-.954-.656-1.458-.305-.793-.458-1.648-.809-2.418-.129-.549-.32-1.076-.381-1.656-.114-.854-.336-1.701-.229-2.609-.069-.511-.115-1.099-.039-1.602-.076-.198.015-.412.039-.603-.077-.419.106-.832-.008-1.243 0-.732.251-1.328.229-2.075.084-.465.191-.938.229-1.427.138-.267.183-.572.321-.839.039-.511.29-.931.412-1.404.19-.565.434-1.106.748-1.618.312-.571.572-1.167.801-1.777.45-.603.74-1.274 1.297-1.846.282-.526.717-1.007 1.114-1.48.167-.466.648-.725.976-1.099.694-.694 1.45-1.243 2.251-1.686.504-.297.962-.694 1.473-.969.084-.137.251-.13.366-.221.84-.526 1.671-1.091 2.579-1.465 1.129-.633 2.38-.953 3.608-1.358.443-.092.886-.19 1.305-.351.397-.023.733-.183 1.099-.259.382-.099.801-.099 1.167-.229.839-.13 1.655.076 2.51.061.344.031.648-.068 1-.031.206.016.42.008.61-.03.665-.016 1.267.114 1.884.221.298.092.596.16.909.229.404.015.724.251 1.121.313.396.145.84.176 1.243.305.991.412 2.015.763 2.983 1.243.709.519 1.533.748 2.22 1.335.572.351 1.129.763 1.679 1.183.282.183.488.502.755.717.352.358.726.687 1.076 1.038.32.274.557.618.894.87.274.335.518.687.808 1.022.596.809 1.183 1.618 1.648 2.479.451.542.732 1.152 1.007 1.762.313.923.786 1.786.992 2.754.206.809.549 1.556.709 2.388.138.671.191 1.381.244 2.083.083.572.13 1.229.038 1.809.016.564.032 1.174-.121 1.685zm-1.937-3.24c-.246-.373-.285.19-.384.322-.261.099-.577.178-.862.161-.558-.132-.974.135-1.541.002-.1-.058-.289.064-.334-.068-.069-.116-.169-.257-.315-.24-.037.016-.076.041-.076.099.107.439.07 1.086.108 1.566-.007.298.582 1.092.766 1.233.307.224.684.232 1.102.232.37 0 .684-.281.982-.538l.306-.422c.07-.116.047-.265.131-.372.046-.29.129-.65.129-1.02-.001-.284.063-.674-.012-.955zm-.616 2.016c-.414.57-1.179.456-1.776.389-.185-.091-.406-.232-.476-.463-.022-.108-.074-.448-.005-.547.269-.157.648-.092.954-.051.269.033 1.228-.137 1.343-.013-.008.124-.001.561-.04.685z" fill="#bf2f38"/>
	</g>
</svg>
