<?xml version="1.0" encoding="utf-8"?>
<svg version="1.1"
	 xmlns="http://www.w3.org/2000/svg"
	 x="0px" y="0px" width="29px" height="34px" viewBox="0 0 29 34" style="enable-background:new 0 0 29 34;" xml:space="preserve">
<g id="bone_marrow__lymphoid_tissues">
	<polygon style="fill:#D62328;" points="28.9,8.2 14.5,0 0,8.7 0,25.6 14.4,33.7 28.9,25 	"/>
	<path style="fill:#231F20;" d="M14.3,28.7c6.4,0,11.6-5.2,11.6-11.6S20.7,5.5,14.3,5.5C8,5.5,2.7,10.7,2.7,17.1S8,28.7,14.3,28.7"
		/>
	<path style="fill:#FFFFFF;" d="M15.1,20.7C15.1,20.8,15.1,20.8,15.1,20.7c-0.2,1.4-0.6,2.6-1.4,5.4c0,0-0.1,0-0.3,0
		c-0.1,0-0.2,0-0.2,0c0,0,0,0,0.1-0.1c0.2-0.4,0.7-1.9,0.9-5.1c0-0.1,0-0.2,0-0.2c0.1-0.1,0.2-0.3,0.2-0.4c0.1-0.2,0.1-0.4,0.1-0.5
		c0,0,0-0.1,0-0.1c0,0,0,0.1,0,0.1C14.7,20,14.7,20.4,15.1,20.7 M9,18.9c0-0.1-0.1-0.1-0.1-0.2c0,0,0-0.1-0.1-0.1c0,0,0,0,0,0
		c-1,0.3-2.1,1.1-2.6,1.9c0,0,0,0,0,0l0.2,0.2c0,0,0,0,0,0C7,20,8.1,19.2,9,18.9 M8.4,15.7C8.4,15.7,8.4,15.7,8.4,15.7
		c-0.7-0.2-1.7-0.6-2.6-1.5l-0.2,0.2l0,0c0.1,0.1,0.3,0.3,0.4,0.4c0.9,0.8,1.7,1.1,2.3,1.2C8.4,15.9,8.4,15.8,8.4,15.7
		C8.4,15.7,8.4,15.7,8.4,15.7 M11.2,12.7c-0.1-0.3-0.2-0.5-0.3-0.9c-0.2-0.7-0.5-1.5-1.1-2.2C9.7,9.5,9.6,9.4,9.5,9.3l0,0L9.3,9.6
		c0.7,0.7,1,1.6,1.3,2.4c0.1,0.3,0.2,0.5,0.3,0.8c0,0,0,0.1,0.1,0.1c0,0,0,0,0.1,0C11,12.7,11.1,12.7,11.2,12.7 M15.4,8.4
		C15.4,8.4,15.4,8.4,15.4,8.4L15.4,8.4l-0.3-0.1c-0.1,0.3-0.3,2-0.2,3.6c0,0,0,0.1,0,0.1c0,0,0.1,0,0.1,0c0.1,0,0.1,0,0.2,0
		C15.2,10.5,15.4,8.8,15.4,8.4 M20.7,10.7l-0.1-0.2c0,0-0.1,0-0.1,0c-1,0.3-1.8,1.4-2.4,2.3c0,0,0,0,0,0c0.1,0,0.1,0.1,0.2,0.1
		c0,0,0.1,0,0.1,0.1C19,12.1,19.8,11.1,20.7,10.7L20.7,10.7z M20.3,16.6c0-0.4-0.1-0.9-0.2-1.2c0-0.1-0.1-0.2-0.1-0.3
		c-0.1-0.2-0.2-0.4-0.4-0.6c-0.2-0.3-0.5-0.6-0.8-0.8c-0.1-0.1-0.3-0.2-0.5-0.3c-0.1-0.1-0.2-0.1-0.3-0.2c-0.8-0.4-1.7-0.7-2.8-0.8
		c-0.1,0-0.2,0-0.3,0c-0.1,0-0.3,0-0.4,0c-1.1,0-2.2,0.2-3.1,0.7c-0.1,0-0.2,0.1-0.3,0.1c-1.2,0.6-2,1.5-2.3,2.6
		c0,0.1-0.1,0.2-0.1,0.3c0,0.2-0.1,0.4-0.1,0.6c0,0.7,0.2,1.3,0.6,1.9c0.1,0.1,0.1,0.2,0.2,0.3c0,0,0,0.1,0.1,0.1
		c0.2,0.3,0.5,0.5,0.8,0.8c0.6,0.5,1.4,0.8,2.2,1c1.5,0.3,1.7-0.4,1.8-0.9c0.1-0.4,0.1-0.7,0.4-0.7c0.5,0,0.3,0.7,0.5,1.2
		c0.2,0.4,0.6,0.6,2,0.2c1.2-0.3,2.1-1.1,2.7-2c0.1-0.1,0.1-0.2,0.2-0.3C20.2,17.7,20.3,17.2,20.3,16.6 M21.8,12.4L21.8,12.4
		c-0.3,1.1-0.9,1.8-1.6,2.4c0,0,0,0.1,0.1,0.1c0,0.1,0,0.1,0.1,0.2c0,0,0,0,0,0c0.6-0.6,1.3-1.4,1.6-2.5c0,0,0-0.1,0-0.1L21.8,12.4z
		 M21,18.2c-0.1,0-0.3,0-0.4,0c-0.1,0-0.1,0-0.2,0c0,0.1-0.1,0.2-0.2,0.3c0.1,0,0.2,0,0.4,0c0.1,0,0.3,0,0.4,0
		c0.8,0,1.4,0.3,1.9,0.9l0.3-0.2C22.6,18.6,21.9,18.2,21,18.2"/>
</g>
</svg>
