<?xml version="1.0" encoding="utf-8"?>
<svg version="1.1"
	 xmlns="http://www.w3.org/2000/svg"
	 x="0px" y="0px" width="29px" height="34px" viewBox="0 0 29 34" style="enable-background:new 0 0 29 34;" xml:space="preserve">
<g id="brain">
	<polygon style="fill:#FBBC18;" points="28.9,8.2 14.5,0 0,8.7 0,25.6 14.4,33.7 28.9,25 "/>
	<path style="fill:#231F20;" d="M14.5,28.5c6.4,0,11.6-5.2,11.6-11.6c0-6.4-5.2-11.6-11.6-11.6c-6.4,0-11.6,5.2-11.6,11.6
		C2.8,23.3,8.1,28.5,14.5,28.5"/>
	<path style="fill:#FFFFFF;" d="M21.7,20c0.1,1.4-1.5,3.1-3.2,3.1c-1.1,0-2-0.5-2.5-1.1c0.7-0.2,1.4-0.5,2.1-0.8
		c0.5-0.2,1-0.4,1.4-0.6c0.3-0.1,0.5-0.2,0.8-0.2C20.8,20.3,21.3,20.2,21.7,20 M14.4,10.5c4.9-0.1,8.6,3.4,8.4,6.7
		c-0.2,2.2-1.6,2.2-3.5,2.8c-1.4,0.5-3,1.4-4.9,1.6c-1.1,0.1-2.1-0.1-2.7-0.7c-0.4-0.3-0.4-0.8-0.3-1.1c0.8-2.1,5.6-2.2,6.7-3.8
		c-1.8,1-6.2,1-7.6,3.2c-0.3,0.5-0.5,0.6-0.9,0.6c-2-0.1-3.6-0.7-3.6-2.7C6.1,13.5,9.5,10.5,14.4,10.5 M14.3,22.3l1.6,2.4
		c0.2,0.3,0.9,0,0.7-0.4L16,23c0,0-0.1-0.1-0.1-0.1c-0.3-0.2-0.5-0.5-0.7-0.8c-0.3,0-0.5,0.1-0.8,0.1C14.4,22.3,14.4,22.3,14.3,22.3"
		/>
</g>
</svg>
