<?xml version="1.0" encoding="utf-8"?>
<svg version="1.1" xmlns="http://www.w3.org/2000/svg" x="0px" y="0px" width="29px" height="34px" viewBox="0 0 29 34" style="enable-background:new 0 0 29 34;" xml:space="preserve">
	<g id="adipose__soft_tissue">
		<path d="m28.9 8.17-14.43-8.17-14.45 8.71-.02 16.87 14.43 8.17 14.45-8.71z" fill="#E67C20"/>
		<path d="m2.6 17.12c0-6.41 5.2-11.62 11.61-11.62s11.61 5.2 11.61 11.62c0 6.41-5.2 11.61-11.61 11.61s-11.61-5.2-11.61-11.61" fill="#231f20"/>
		<path d="m16.08 18.84c-.01.11.01.52.16.55.17.03.34.11.5.17.27-.08.44-.42.35-.63-.1-.24-.15-.29-.38-.27-.1.01-.37 0-.52.06-.01.01-.02.01-.03.02-.04.02-.07.05-.08.1zm.38-.02c.26-.2.54.16.46.36s-.18.27-.39.18c-.22-.08-.31-.36-.07-.54zm.06.08c.14-.11.37.1.3.24-.07.16-.12.19-.26.13-.15-.06-.21-.24-.04-.37zm5.73 1.96c-.15 1.52-.53 2.13-.89 2.39-.38.28-.66.17-1.04.28-.1.03-.71.09-1.33-.03-.39-.08-.73-.23-.97-.46.07-.94-.23-1.76-.69-2.36-.1-.46-.15-.85-.07-1.2.09-.38.27-.69.47-.93.15.04.32.07.5.05.91-.1 1.27-.15 1.46-.28.04-.03.08-.07.13-.13.25.04.52.1.78.19.95.33 1.79 1.03 1.65 2.48zm-4.76.51c.19.38.3.83.31 1.32.01.39-.03.8-.18 1.24-.39 1.13-.64 1.54-.85 1.68-.09.06-.18.07-.3.06-.86-.07-3.12-.51-3.09-1.78.01-.72-.09-1.01-.04-1.42.34-.57.74-1.27.9-1.93.35-.39.8-.57 1.5-.57.6-.01 1.34.54 1.75 1.4zm-.74-5.78c-.04-.4-.16-.78-.32-1.12.17-.36.7-1.02.84-1.23.45-.67.86-1.37 1.8-1.39.79-.02 1.36 1.12 1.62 1.75.39.93.58 1.53.51 2.6-.02.35-.15.5-.35.65-.47.35-.82.55-1.13 1.09-.06.1-.09.15-.14.19-.01.01-.02.01-.03.02-.14.08-.44.13-1.32.22-.1.01-.19.01-.28 0-.46-.07-.78-.43-1.02-.92 0-.71-.14-1.54-.18-1.86zm-6.48 3.09c-.21.06-.4.15-.57.27-.31.13-.61.23-.85.21-.66-.06-1.44-.56-2.11-.71-.48-.1-1.49-.61-1.47-1.4.02-.83.8-1.94 1.52-2.46.37-.26.65-.57.95-.77.28-.19.53-.27.87-.15.25.09.55.25.85.46.17.32.38.56.67.65.03.01.06.01.08.02.25.3.43.63.47.99.04.4.4 2.52-.08 2.73-.1.05-.21.1-.33.16zm3.66-5.27c.46-.08.88-.09 1.16.01.43.16.82.55 1.09 1.07.08.16.15.32.21.5.06.2.12.41.14.63.02.17.09.63.13 1.12.02.26.04.52.04.76-.01.42-.07.77-.25.85-.46.2-1.24.67-1.74.62-.53-.05-1.71-.1-2.18-.2-.43-.09-1.42-1.08-1.4-1.9.02-.59.07-1.35.29-1.95.09-.03.19-.05.28-.1.58-.31 1.73-.8 2.23-1.41zm.1 7.01c-.13.59-.46 1.3-.76 1.73-.05.07-.1.15-.15.23-.4.67-.89 1.7-1.77 1.41-1.12-.37-3.07-1.22-2.65-2.87.36-1.4 1.1-2.15 2.48-2.16.19.01.86.13 1.5.29.38.09.82.18 1.17.37.27.14.28.54.18 1zm-.45-9.95c-.01-.01-.03-.02-.04-.03.06-.14.14-.28.26-.41.46-.51 1.46-1.33 2.18-1.3.74.03 1.33.6 1.38 1.08.05.57.1.73.26 1.1.3.7.03.91-.39 1.38-.25.27-.72.78-1.11.73-.56-.08-1.43-.3-1.74-.97.03-.34-.01-.65-.18-.88-.14-.19-.3-.37-.42-.49-.11-.13-.2-.21-.2-.21zm-2.04 4.17c-.09.04-.19.08-.29.09-.29.04-.61-.02-1.07-.17-.55-.17-.98-1.42-1.03-2.47-.04-.87-.23-1.76.68-2.29.86-.51 3.29.63 3.61.85.02.02.04.04.05.06.19.19.37.38.53.6.06.08.1.19.12.32.06.35-.03.85-.24 1.39-.02.06-.07.13-.11.19-.07.1-.15.19-.26.29-.54.47-1.48.88-1.94 1.13-.02 0-.03 0-.05.01z" fill="#fff"/>
	</g>
</svg>