<svg xmlns="http://www.w3.org/2000/svg" viewBox="0 0 983.59 718.08">
		<path d="m756.36 33.15a43 43 0 0 0 -37.8 63.55c-4.28 2.14-14.25 7.14-28.22 14.39a32 32 0 1 0 -56.34 30.19c-7.18 4-14.64 8.12-22.28 12.45a25.14 25.14 0 0 0 -43.43 25.2c-7.91 4.72-15.89 9.56-23.87 14.49a18.34 18.34 0 0 0 -29.6 18.73c-32.16 20.9-62.93 42.8-87.85 64.07-29.06-65-71.92-136.31-131.56-194.39l-.17-.17c-7-6.88-12.76-3.84-4.74 4.72l.31.33c50.59 54.47 90.36 133.29 117.46 205.19-102.81 87.79-216.14 257.89-91.93 311.34 18.09 7.79 26.33-7.09 18.55-11.67-1.4-.83-56.72-30.73-21.55-122.61h88.52a8.59 8.59 0 1 0 0-17.17h-81.19a350.42 350.42 0 0 1 17.52-32.51h63.67a8.59 8.59 0 0 0 0-17.17h-52.72c6.57-9.83 13.95-20.13 22.23-30.91h30.49a8.59 8.59 0 0 0 0-17.17h-16.86q14.42-17.62 32-36.86l.3-.34c23.35 67.61 34.62 125.25 32.15 144.48-1.35 10.47-8.1 14.84-10.81 16.13-4.35 2.06-6.14 8.06.68 10.07 21.75 6.41 35.14-15.18 37.55-32.51 2.43-17.48-9.46-81.46-40.87-157.75 26.24-26.11 56.52-51.05 87.39-73.9a18.35 18.35 0 0 0 27.55-15.91 18.73 18.73 0 0 0 -.36-3.61q12.3-8.58 24.45-16.64a25.11 25.11 0 0 0 40-25.72c8.06-5 15.88-9.76 23.39-14.26a32 32 0 0 0 53.86-31.07c13.67-7.61 23.65-13 28.51-15.77a43 43 0 1 0 35.55-67.22z" fill="#ee7601"/>
		<g fill="#544f4c">
			<path d="m267 377.43c1.59-3.48 2.94-7.22 4.55-11.79a116 116 0 0 0 4.55-15.8l16.35-70.72c1.34-7.24 2.39-12.6 2.68-15.81a41 41 0 0 0 .53-8.57v-3.21h37l-22.24 98.31q-2.42 10.46-3.21 16.07a56.46 56.46 0 0 0 -.81 11.52z"/>
			<path d="m174.75 377.43h-109.57c-11 0-18.48-2.41-22.51-7.5-2.13-2.94-3.21-6.95-3.21-12.05a56.94 56.94 0 0 1 1.87-13.67l13.67-59.47c2.94-12.05 7.22-20.62 13.12-25.72 6.16-5.08 14.47-7.49 25.73-7.49h80.9c11.52 0 19 2.41 22.76 7.49 2.41 3 3.5 7 3.5 12.33a52.08 52.08 0 0 1 -1.88 13.39l-8.85 39.39h-110.1l-5.9 25.71a35.44 35.44 0 0 0 -.8 6.17c0 1.33 0 2.41.55 2.93.78 1.62 3.2 2.42 7 2.42h80.35a97.2 97.2 0 0 0 20.91-2.13zm-8.58-98.31a21.25 21.25 0 0 0 1.08-6.43 7.92 7.92 0 0 0 -.54-2.68c-1.08-1.61-3.74-2.4-7.5-2.4h-56.8c-3.74 0-6.43.79-8 2.4-1.87 1.61-3.2 4.56-3.74 9.11l-6.74 28.88h75.54z"/>
			<path d="m202.06 377.43c1.7-3.89 3.12-8.1 4.83-13.21a134.2 134.2 0 0 0 4.83-17.73l28.14-130.33c1.7-8.12 2.84-14.12 3.4-17.72.29-3.31.58-7.81.58-13.22h39.21l-35 161.27q-2.55 11.73-3.42 18a68.32 68.32 0 0 0 -.84 12.91z"/>
			<path d="m480.71 377.43c1.6-3.48 2.94-7.22 4.54-11.79a111.75 111.75 0 0 0 4.56-15.8l16.35-70.72c1.33-7.24 2.4-12.6 2.66-15.81a39.56 39.56 0 0 0 .55-8.57v-3.21h37l-22.27 98.31q-2.4 10.46-3.21 16.07a56.46 56.46 0 0 0 -.81 11.52z"/>
			<path d="m654.06 272.69c-4-.27-8-.54-12.6-.54h-18c-3.46 0-6.41.8-8 2.14-2.15 1.62-3.49 4.29-4.56 8.31l-15 67.24c-2.68 10.45-3.75 18.49-3.75 24.65v2.94h-39.08c1.6-4 3.21-7.78 4.28-11.52 1.07-3.47 2.42-8.84 4.29-16.07l16.06-70.72c1.88-7 2.69-12.32 3.5-16.34a78.57 78.57 0 0 0 .54-11.25h32.94l-1.34 12.85a22.86 22.86 0 0 1 8.31-9.64c3.48-2.14 8-3.21 14.19-3.21h32.16l7.75 13.91a30.84 30.84 0 0 0 -4.55 5.1c-1.87 2.41-3.2 3.48-4 3.48-4.83-.52-9.14-1.02-13.14-1.33z"/>
			<path d="m338.79 207.49a18.14 18.14 0 1 1 -18.13-18.14 18.13 18.13 0 0 1 18.13 18.14z"/>
		</g>
		<g fill="#544f4c">
			<path d="m431.32 535.98-2.7 10.6h-27.3q-4.8 0-5.8 4l-8.7 34.8q-.2.8-.2 1.4 0 2.6 4 2.6h27.3l-2.6 10.6h-40.7q-12.3 0-12.3-11 0-3 .9-6.7l7.1-28.6q4.4-17.7 20.3-17.7z"/>
			<path d="m496.61996 566.58-4.9 19.8q-1.7 6.8-5.2 10-4 3.6-11.2 3.6h-37.999998q-10.4 0-10.4-8 0-2.3.8-5.6l4.9-19.8q1.7-6.8 5.2-10 4-3.6 11.2-3.6h37.999998q10.4 0 10.4 8 0 2.3-.8 5.6zm-23.3-.9q.2-.8.2-1.3 0-2.2-2.7-2.2h-10.2q-3.2 0-4.1 3.5l-5.399998 21.6q-.2.8-.2 1.4 0 2.1 2.6 2.1h10.199998q3.3 0 4.2-3.5z"/>
			<path d="m554.61985 552.98-3.2 13.1h-11.9q-5.9 0-8.5 1.6-2.5 1.5-3.5 5.7l-6.6 26.6h-23.6l11.7-47h21.8l-1.9 7.6h.2q2.8-4.4 5.8-6 3.1-1.6 8.2-1.6z"/>
			<path d="m622.41976 566.38-3.8 15.2h-39.5l-1.1 4.4q-.2.9-.2 1.6 0 3.2 3.9 3.2h33.6l-2.3 9.2h-49q-10.5 0-10.5-7.9 0-2.5.9-6.1l4.9-19.6q1.7-6.8 5.3-10 4-3.4 11.1-3.4h36.9q10.6 0 10.6 8 0 2.3-.8 5.4zm-22.9-.5q.2-1 .2-1.6 0-2.1-2.9-2.1h-9.3q-3.6 0-4.5 3.7l-1.6 6.5h16.5z"/>
			<path d="m740.11962 553.68-7.1 28.6q-4.4 17.7-20.2 17.7h-50.3l16-64h50.3q12.2 0 12.2 10.9 0 3-.9 6.8zm-23.6-3.1q.2-.8.2-1.4 0-2.6-4-2.6h-12.5l-10.7 42.8h12.5q4.8 0 5.8-4z"/>
			<path d="m808.31959 569.78-7.5 30.2h-22.5l1.3-5.2h-.2q-2.4 5.2-10.2 5.2h-17.8q-10.8 0-10.8-8 0-2.4.9-5.8l1.1-4.3q1.9-7.3 5.6-10.5 3.8-3.2 10.8-3.2h26.1l.8-3q.1-.4.1-.8 0-2.2-3-2.2h-33.3l2.3-9.2h45q12.3 0 12.3 9.9 0 2.9-1 6.9zm-25.5 7.6h-10.4q-3 0-4.2.9-1.2.9-1.8 3l-1.5 5.7q-.2.9-.2 1.5 0 2.3 4.1 2.3h6.4q2.7 0 3.8-1.1 1.1-1.2 1.9-4.6z"/>
			<path d="m872.81945 552.98-2.3 9.2h-18.8l-6.2 25.1q-.2.8-.2 1.4 0 2.1 3.1 2.1h17.4l-2.3 9.2h-32q-4.7 0-7.4-2.5-2.6-2.5-2.6-6.8 0-2 .5-4.1l6.1-24.4h-9.9l2.3-9.2h9.9l2.6-10.2h23.6l-2.6 10.2z"/>
			<path d="m942.01927 569.78-7.5 30.2h-22.5l1.3-5.2h-.2q-2.4 5.2-10.2 5.2h-17.8q-10.8 0-10.8-8 0-2.4.9-5.8l1.1-4.3q1.9-7.3 5.6-10.5 3.8-3.2 10.8-3.2h26.1l.8-3q.1-.4.1-.8 0-2.2-3-2.2h-33.3l2.3-9.2h45q12.3 0 12.3 9.9 0 2.9-1 6.9zm-25.5 7.6h-10.4q-3 0-4.2.9-1.2.9-1.8 3l-1.5 5.7q-.2.9-.2 1.5 0 2.3 4.1 2.3h6.4q2.7 0 3.8-1.1 1.1-1.2 1.9-4.6z"/>
			<path d="m438.82 640.18-3.1 12.3q-2.4 9.7-12.2 9.7l6.5 27.8h-26.7l-4.7-27.8h-7.5l-6.9 27.8h-24.4l16-64h50.8q13 0 13 8.7 0 2.4-.8 5.5zm-24.4 0q.3-1 .3-1.7 0-1.9-3-1.9h-14.2l-3.7 15h14.2q3.6 0 4.5-3.6z"/>
			<path d="m507.41988 656.38-3.8 15.2h-39.5l-1.1 4.4q-.2.9-.2 1.6 0 3.2 3.9 3.2h33.6l-2.3 9.2h-48.999996q-10.5 0-10.5-7.9 0-2.5.9-6.1l4.9-19.6q1.7-6.8 5.3-10 4-3.4 11.099996-3.4h36.9q10.6 0 10.6 8 0 2.3-.8 5.4zm-22.9-.5q.2-1 .2-1.6 0-2.1-2.9-2.1h-9.3q-3.6 0-4.5 3.7l-1.6 6.5h16.5z"/>
			<path d="m577.11989 642.98-2.1 8.6h-33.3q-3.2 0-3.6 1.9l-.4 1.7q-.4 1.8 2.6 1.8h20.8q10.2 0 10.2 7.6 0 1.8-.6 4.2l-2.2 8.8q-1.4 5.5-5.9 9-4.5 3.4-10.7 3.4h-44.9l2.1-8.6h33.5q2.9 0 3.5-2.3l.4-1.5q.6-2.2-2.4-2.2h-21.4q-9.7 0-9.7-7.6 0-1.8.6-4.1l2.2-9q1.3-5.3 6.2-8.5 5-3.2 11.1-3.2z"/>
			<path d="m645.71979 656.58-4.9 19.8q-1.7 6.8-5.2 10-4 3.6-11.2 3.6h-38q-10.4 0-10.4-8 0-2.3.8-5.6l4.9-19.8q1.7-6.8 5.2-10 4-3.6 11.2-3.6h38q10.4 0 10.4 8 0 2.3-.8 5.6zm-23.3-.9q.2-.8.2-1.3 0-2.2-2.7-2.2h-10.2q-3.2 0-4.1 3.5l-5.4 21.6q-.2.8-.2 1.4 0 2.1 2.6 2.1h10.2q3.3 0 4.2-3.5z"/>
			<path d="m721.71967 642.98-11.7 47h-22.5l1.2-4.9h-.2q-3.2 4.9-7.6 4.9h-19q-12.2 0-12.2-10.7 0-2.7.8-5.9l7.6-30.4h23.6l-8.6 34.4q-.2.7-.2 1.2 0 2.2 2.8 2.2h9.8q3.2 0 4-3.4l8.6-34.4z"/>
			<path d="m777.31965 642.98-3.2 13.1h-11.9q-5.9 0-8.5 1.6-2.5 1.5-3.5 5.7l-6.6 26.6h-23.6l11.7-47h21.8l-1.9 7.6h.2q2.8-4.4 5.8-6 3.1-1.6 8.2-1.6z"/>
			<path d="m838.91956 642.98-2.3 9.2h-25.1q-4.9 0-6.1 4.8l-4.7 19q-.2.9-.2 1.6 0 3.2 3.9 3.2h25.1l-2.3 9.2h-39.2q-11.5 0-11.5-9.5 0-2.1.6-4.5l4.7-19q3.5-14 17.9-14z"/>
			<path d="m906.11938 656.38-3.8 15.2h-39.5l-1.1 4.4q-.2.9-.2 1.6 0 3.2 3.9 3.2h33.6l-2.3 9.2h-49q-10.5 0-10.5-7.9 0-2.5.9-6.1l4.9-19.6q1.7-6.8 5.3-10 4-3.4 11.1-3.4h36.9q10.6 0 10.6 8 0 2.3-.8 5.4zm-22.9-.5q.2-1 .2-1.6 0-2.1-2.9-2.1h-9.3q-3.6 0-4.5 3.7l-1.6 6.5h16.5z"/>
		</g>
</svg>
