<?xml version="1.0" encoding="utf-8"?>
<svg version="1.1"
	 xmlns="http://www.w3.org/2000/svg"
	 x="0px" y="0px" width="29px" height="34px" viewBox="0 0 29 34" style="enable-background:new 0 0 29 34;" xml:space="preserve">
<g id="endocrine_tissues">
	<polygon style="fill:#D1CBE4;" points="28.9,8.2 14.5,0 0,8.7 0,25.6 14.4,33.7 28.9,25 	"/>
	<path style="fill:#231F20;" d="M14.5,28.5c6.4,0,11.6-5.2,11.6-11.6c0-6.4-5.2-11.6-11.6-11.6S2.8,10.5,2.8,16.9
		C2.8,23.3,8.1,28.5,14.5,28.5"/>
	<path style="fill:#FFFFFF;" d="M23,14.2c0,0,0,0.1,0,0.1c0,0.1-0.1,0.2-0.1,0.2c-0.1,0.1-0.3,0.2-0.4,0.2c0.1-0.1,0.2-0.2,0.2-0.4
		c0-0.1,0-0.1,0-0.2c0,0,0-0.1,0-0.1v-0.1l0,0c0-0.1,0-0.2-0.1-0.4c-0.1-0.1-0.1-0.2-0.2-0.4c0.3,0.1,0.6,0.4,0.6,0.7L23,14.2
		L23,14.2z M22.4,19.8c-0.2,0.3-0.5,0.5-0.8,0.4c0.1-0.1,0.2-0.2,0.3-0.3c0.1-0.1,0.2-0.2,0.2-0.3c0.1-0.1,0.1-0.2,0.2-0.3
		s0.1-0.2,0.1-0.4c0.1,0.1,0.1,0.3,0.1,0.4C22.6,19.5,22.5,19.7,22.4,19.8 M18.3,15.3c0.1,0,0.2,0.1,0.2,0.2
		c0.1,0.1,0.2,0.3,0.2,0.5c0,0,0,0.1,0,0.1v0.1c0,0,0,0,0,0.1c0,0.1,0,0.2-0.1,0.3c-0.1,0.2-0.2,0.3-0.4,0.3
		c0.1-0.1,0.2-0.3,0.2-0.4c0-0.1,0-0.1,0-0.2v-0.1l0,0c0,0,0-0.1,0-0.1c0-0.1-0.1-0.3-0.1-0.4c-0.1-0.1-0.1-0.3-0.3-0.3
		C18.1,15.2,18.2,15.2,18.3,15.3 M19.6,18.4c0.1-0.1,0.2-0.2,0.2-0.4c0-0.1,0.1-0.3,0.1-0.4c0-0.1,0-0.3-0.2-0.4
		c0.1,0,0.2,0,0.3,0.1c0.1,0.1,0.1,0.2,0.2,0.3c0.1,0.2,0,0.4,0,0.6c-0.1,0.2-0.2,0.4-0.4,0.5c-0.1,0.1-0.2,0.1-0.3,0.1
		c-0.1,0-0.2,0-0.3-0.1C19.4,18.5,19.5,18.5,19.6,18.4 M19.9,12.5c0.1,0.1,0.2,0.3,0.2,0.5c0,0.2,0,0.4-0.1,0.5
		c-0.1,0.1-0.2,0.3-0.4,0.3c0.1-0.1,0.1-0.3,0.2-0.4c0-0.1,0-0.3,0-0.4c0-0.1,0-0.3-0.1-0.4c0-0.1-0.1-0.2-0.2-0.4
		C19.7,12.2,19.8,12.3,19.9,12.5 M20.5,11.4c0.1,0,0.2,0,0.3,0c0.2,0,0.3,0.1,0.5,0.3c0.1,0.1,0.2,0.3,0.2,0.5c0,0,0,0,0,0.1l0,0
		l0,0c0,0,0,0.1,0,0.1c0,0.1-0.1,0.1-0.2,0.2c0-0.2,0-0.3,0-0.4c0-0.1-0.1-0.2-0.2-0.3c-0.1-0.1-0.2-0.2-0.3-0.2
		c-0.1-0.1-0.3-0.1-0.4-0.2C20.4,11.4,20.5,11.4,20.5,11.4 M20.5,9.5C20.6,9.5,20.5,9.5,20.5,9.5c0.1,0,0.2,0,0.2,0
		c0.1,0,0.2,0.1,0.3,0.2C21,9.8,21,10,21,10.1c0,0,0,0,0,0.1l0,0.1c0,0.1-0.1,0.1-0.1,0.1c0-0.1,0-0.1,0-0.1l0-0.1c0,0,0,0,0,0
		c0-0.1-0.1-0.1-0.1-0.2c0-0.1-0.1-0.1-0.1-0.2c0,0,0,0,0,0c0,0,0,0,0,0c0,0-0.1,0-0.1-0.1C20.4,9.6,20.4,9.6,20.5,9.5 M20.8,19.8
		c0,0.1-0.1,0.3-0.2,0.4c-0.1,0.1-0.4,0.2-0.6,0.2c-0.1,0-0.1,0-0.2-0.1c0,0,0.1,0,0.1,0c0.1,0,0.2-0.1,0.2-0.1
		c0.1-0.1,0.2-0.1,0.2-0.2c0.1-0.1,0.1-0.1,0.2-0.2c0-0.1,0.1-0.2,0.1-0.3C20.8,19.5,20.8,19.6,20.8,19.8 M20.5,15.6
		c0.2-0.1,0.3-0.2,0.4-0.3c0.1-0.1,0.2-0.3,0.2-0.4c0-0.1,0-0.3-0.1-0.4c0-0.1-0.1-0.1-0.2-0.2c-0.1,0-0.1-0.1-0.2,0
		c0,0,0.1-0.1,0.1-0.1c0.1,0,0.1,0,0.2,0c0.1,0,0.2,0.1,0.3,0.1c0.2,0.1,0.3,0.4,0.2,0.6c0,0.2-0.2,0.4-0.3,0.6
		C20.9,15.6,20.7,15.6,20.5,15.6 M22,16.8c0.1,0.2,0.2,0.4,0.2,0.5c0,0.1,0,0.2-0.1,0.3s-0.1,0.2-0.2,0.2c-0.2,0.1-0.3,0.1-0.5,0.1
		c0.1-0.1,0.3-0.2,0.4-0.3c0.1-0.1,0.1-0.2,0.1-0.4c0-0.1,0-0.3-0.1-0.4c0-0.1-0.1-0.3-0.2-0.4C21.7,16.5,21.9,16.6,22,16.8
		 M20.1,22.4c-0.1,0.1-0.3,0.2-0.5,0.3c0,0-0.1,0-0.1,0h-0.1c0,0,0,0-0.1,0c-0.1,0-0.2,0-0.3-0.1c-0.2-0.1-0.3-0.2-0.3-0.4
		c0.2,0.1,0.3,0.1,0.4,0.1c0.1,0,0.1,0,0.2,0l0,0l0.1,0c0,0,0.1,0,0.1,0c0.1,0,0.3-0.1,0.4-0.1c0.1-0.1,0.2-0.2,0.3-0.3
		C20.3,22.1,20.2,22.3,20.1,22.4 M17.7,20c0,0.2-0.1,0.3-0.3,0.4c-0.1,0.1-0.3,0.2-0.5,0.2c-0.2,0-0.4,0-0.5-0.1
		c0.2,0,0.3-0.1,0.4-0.1c0.1-0.1,0.2-0.1,0.3-0.2s0.2-0.2,0.2-0.3c0.1-0.1,0.1-0.2,0.2-0.4C17.7,19.7,17.7,19.9,17.7,20 M16.4,18.6
		c-0.1,0.2-0.2,0.3-0.3,0.3c0.1-0.1,0.1-0.3,0.1-0.4c0-0.1,0-0.2,0-0.4c0-0.1-0.1-0.3-0.1-0.4c0-0.1-0.1-0.1-0.1-0.2
		c0-0.1-0.1-0.1-0.2-0.1c0.1,0,0.2-0.1,0.3,0c0.1,0,0.2,0.1,0.2,0.2c0.1,0.1,0.2,0.3,0.2,0.4C16.4,18.2,16.4,18.4,16.4,18.6
		 M13,17.6c0,0-0.1,0.1-0.1,0.2c-0.1,0.1-0.1,0.2-0.1,0.4c0,0.1-0.1,0.2,0,0.4c0,0.1,0,0.3,0.1,0.4c-0.2,0-0.3-0.2-0.3-0.3
		c-0.1-0.2-0.1-0.4,0-0.5c0-0.2,0.1-0.3,0.2-0.4c0.1-0.1,0.1-0.1,0.2-0.2c0.1,0,0.2,0,0.3,0C13.1,17.5,13.1,17.6,13,17.6 M12,20.7
		c-0.2,0-0.3-0.1-0.5-0.2s-0.2-0.3-0.3-0.4c0-0.2,0-0.3,0.1-0.5c0,0.2,0.1,0.3,0.2,0.4c0.1,0.1,0.1,0.2,0.2,0.3
		c0.1,0.1,0.2,0.2,0.3,0.2c0.1,0.1,0.3,0.1,0.4,0.1C12.3,20.7,12.1,20.7,12,20.7 M10.6,15.6c-0.1,0.1-0.1,0.3-0.1,0.4
		c0,0,0,0.1,0,0.1l0,0v0.1c0,0.1,0,0.1,0,0.2c0,0.1,0.1,0.3,0.2,0.4c-0.2,0-0.3-0.2-0.4-0.3c0-0.1-0.1-0.2-0.1-0.3c0,0,0,0,0-0.1
		v-0.1c0,0,0-0.1,0-0.1c0-0.2,0.1-0.4,0.2-0.5c0.1-0.1,0.1-0.1,0.2-0.2c0.1,0,0.2,0,0.3,0C10.7,15.3,10.6,15.4,10.6,15.6 M9.8,22.6
		c-0.1,0-0.2,0.1-0.3,0.1c0,0,0,0-0.1,0H9.4c0,0-0.1,0-0.1,0c-0.2,0-0.3-0.1-0.5-0.3c-0.1-0.1-0.2-0.3-0.2-0.5
		c0.1,0.1,0.2,0.2,0.3,0.3c0.1,0.1,0.2,0.1,0.4,0.1c0,0,0.1,0,0.1,0l0.1,0l0,0c0.1,0,0.1,0,0.2,0c0.1,0,0.3-0.1,0.4-0.1
		C10.1,22.4,10,22.5,9.8,22.6 M7.8,15.5c-0.2-0.1-0.3-0.3-0.3-0.6c0-0.2,0.1-0.5,0.2-0.6c0.1-0.1,0.2-0.1,0.3-0.1c0.1,0,0.1,0,0.2,0
		s0.1,0.1,0.1,0.1c-0.1,0-0.2,0-0.2,0c-0.1,0-0.1,0.1-0.2,0.2c-0.1,0.1-0.1,0.3-0.1,0.4c0,0.1,0.1,0.3,0.2,0.4
		c0.1,0.1,0.3,0.2,0.4,0.3C8.2,15.6,8,15.6,7.8,15.5 M7.1,17.8c-0.1-0.1-0.2-0.1-0.2-0.2c-0.1-0.1-0.1-0.2-0.1-0.3
		c0-0.2,0-0.4,0.2-0.5c0.1-0.2,0.3-0.3,0.5-0.3c-0.1,0.1-0.2,0.3-0.2,0.4s-0.1,0.3-0.1,0.4c0,0.1,0,0.2,0.1,0.4
		c0.1,0.1,0.2,0.2,0.4,0.3C7.4,18,7.2,17.9,7.1,17.8 M6.5,19.8c-0.1-0.1-0.1-0.3-0.1-0.5c0-0.2,0-0.3,0.1-0.4c0,0.1,0.1,0.3,0.1,0.4
		c0,0.1,0.1,0.2,0.1,0.3c0.1,0.1,0.1,0.2,0.2,0.3C7,20,7.1,20.1,7.3,20.2C7,20.3,6.6,20.1,6.5,19.8 M6,14.6C6,14.5,6,14.5,5.9,14.4
		c0,0,0-0.1,0-0.1l0-0.1l0-0.1c0-0.4,0.3-0.7,0.6-0.7c-0.1,0.1-0.2,0.3-0.2,0.4c-0.1,0.1-0.1,0.2-0.1,0.4l0,0l0,0.1c0,0,0,0.1,0,0.1
		c0,0.1,0,0.1,0,0.2c0,0.1,0.1,0.2,0.2,0.4C6.3,14.9,6.2,14.8,6,14.6 M7.7,11.7c0.1-0.1,0.3-0.2,0.5-0.3c0.1,0,0.2,0,0.3,0
		c0.1,0,0.2,0,0.2,0.1c-0.2,0-0.3,0.1-0.4,0.2c-0.1,0.1-0.2,0.2-0.3,0.2c-0.1,0.1-0.1,0.2-0.2,0.3c0,0.1,0,0.3,0,0.4
		c-0.1,0-0.1-0.1-0.2-0.2c0,0,0-0.1,0-0.1l0,0l0,0c0,0,0,0,0-0.1C7.5,12,7.5,11.8,7.7,11.7 M8,9.7C8,9.6,8.1,9.6,8.2,9.5
		c0,0,0.1,0,0.1,0c0.1,0,0,0,0.1,0c0.1,0,0.1,0.1,0.1,0.1c0,0-0.1,0-0.1,0.1c0,0,0,0,0,0c0,0,0,0,0,0c0,0-0.1,0.1-0.1,0.2
		c0,0.1-0.1,0.1-0.1,0.2c0,0,0,0,0,0l0,0.1c0,0,0,0.1,0,0.1c0,0-0.1-0.1-0.1-0.1l0-0.1c0,0,0-0.1,0-0.1C7.9,10,7.9,9.8,8,9.7
		 M9.1,20.2c-0.2,0.2-0.6,0.1-0.8-0.1c-0.1-0.1-0.2-0.2-0.2-0.4s0-0.3,0.1-0.4c0,0.1,0.1,0.2,0.1,0.3c0,0.1,0.1,0.2,0.2,0.2
		C8.6,20,8.7,20,8.8,20.1C8.8,20.1,8.9,20.2,9.1,20.2 M8.8,17.5c0-0.1,0.1-0.2,0.2-0.3c0.1-0.1,0.2-0.1,0.3-0.1
		C9,17.3,9,17.4,9,17.6c0,0.1,0,0.3,0.1,0.4c0.1,0.1,0.1,0.3,0.2,0.4c0.1,0.1,0.2,0.2,0.4,0.2c-0.1,0.1-0.2,0.1-0.3,0.1
		c-0.1,0-0.2,0-0.3-0.1c-0.2-0.1-0.3-0.3-0.4-0.5C8.7,17.9,8.7,17.7,8.8,17.5 M9,12.5c0.1-0.1,0.3-0.2,0.4-0.3
		c-0.1,0.1-0.2,0.3-0.2,0.4c0,0.1-0.1,0.3-0.1,0.4c0,0.1,0,0.3,0,0.4c0,0.1,0.1,0.3,0.2,0.4c-0.2,0-0.3-0.2-0.4-0.3
		c-0.1-0.1-0.1-0.3-0.1-0.5C8.8,12.8,8.9,12.6,9,12.5 M21.8,10c-0.2-0.2-0.3-0.4-0.5-0.5c-0.2-0.2-0.5-0.3-0.7-0.3
		c-1.9,0.1-0.6,3.5-2.7,5c-1.2,0.9-0.6,2.1-1.6,2.3c0,0-0.1,0-0.2,0c-0.1,0-0.2,0-0.2,0c-0.7,0-0.8-0.7-0.9-1.2v0
		c0-0.1,0-0.2-0.1-0.3c-0.1-0.2-0.2-0.3-0.3-0.3h0c-0.1,0-0.1,0-0.1,0c-0.4,0.3-0.2,1.8-1.2,1.8c-1.6-0.1-0.6-1.4-2-2.4
		C9.4,13,9.9,10.7,9.2,9.7C9.1,9.5,9,9.4,8.9,9.4C8.7,9.3,8.6,9.2,8.4,9.2C6.5,9.1,4.6,15,5.7,18.5c0.6,1.8,1.2,3.3,1.9,4.4
		c0.1,0.1,0.1,0.2,0.2,0.3c0,0,0.1,0.1,0.1,0.1c0.2,0.3,0.5,0.6,0.7,0.7c0,0,0.1,0.1,0.1,0.1c0.1,0,0.1,0.1,0.2,0.1
		c0.3,0.2,0.7,0.3,1,0.3c1.3,0,1.2-1.4,2.4-2.2c0.8-0.5,1.5-0.7,2.1-0.7s1.3,0.2,2.1,0.7c1.2,0.8,1.1,2.2,2.4,2.2
		c1.1,0,2-0.9,2.8-2.3c0,0,0-0.1,0.1-0.1c0.5-1,1-2.2,1.4-3.6C24.1,15.8,23.1,11.6,21.8,10"/>
</g>
</svg>
