<?xml version="1.0" encoding="utf-8"?>
<svg version="1.1"
	 xmlns="http://www.w3.org/2000/svg"
	 x="0px" y="0px" width="29px" height="34px" viewBox="0 0 29 34" style="enable-background:new 0 0 29 34;" xml:space="preserve">
<g id="eye">
	<polygon style="fill:#FEEF79;" points="28.9,8.2 14.5,0 0,8.7 0,25.6 14.4,33.7 28.9,25 "/>
	<path style="fill:#231F20;" d="M14.3,28.7c6.4,0,11.6-5.2,11.6-11.6S20.7,5.5,14.3,5.5C8,5.5,2.7,10.7,2.7,17.1S8,28.7,14.3,28.7"/>
	<path style="fill:#FFFFFF;" d="M21.8,18.6C21.8,18.6,21.8,18.6,21.8,18.6c0.6,0.4,1,0.9,2.1,1.9c0,0,0,0.1-0.1,0.3
		c0,0.1-0.1,0.2-0.1,0.2c0,0,0,0,0-0.1c-0.1-0.2-0.7-0.9-2.1-1.5c0,0-0.1,0-0.1,0c0-0.1-0.1-0.2-0.1-0.3c-0.1-0.1-0.1-0.2-0.2-0.2
		c0,0,0,0,0,0c0,0,0,0,0.1,0C21.4,18.9,21.6,18.9,21.8,18.6"/>
	<path style="fill:#FFFFFF;" d="M16.3,9.3c0.4,0.1,1.3,0.2,1.9,0.6c0.1,0.1,1.5,1,1.6,1.1c1.1,0.8,1.9,2.2,2,3.4
		c0.2,1.3,0.8,3.7,0.2,3.7c-0.7,0.1-1.1,0.2-1.3,0.7c-0.1,0.3-0.1,0.8,0.4,1c0.7,0.3,0.2,0.8,0.1,0.9c-0.4,0.7-1,1.6-1.6,2.3
		c-0.3,0.3-0.8,0.8-1.7,1.2c0,0-1.1,0.3-1.1,0.4c-0.1,0-0.8,0.1-0.9,0.1c-1,0.1-2,0.1-3.1-0.3c-1.6-0.5-2.1-1-2.7-1.6
		c-0.7-0.8-1.7-2.1-2.9-3c-0.8-0.6-1.5-1.7-1.5-2.8c0-2,0.8-2.5,1.8-3.5c0-0.1,0.5-0.7,0.5-0.9c0-0.1,0.9-1,1-1.1
		c0.8-0.6,0.3-0.2,1.1-0.8c0.1-0.1,0.7-0.5,0.8-0.5c0.2-0.1,0.5-0.2,0.6-0.3c0.4-0.2,1-0.3,1.5-0.4c0.3-0.1,0.6-0.1,0.9-0.1
		c0.1,0-0.1,0,0.4,0s1.1,0.1,1.3,0.1"/>
	<path d="M8.4,14.2c-0.7,1.1-0.8,3.7,0.1,5.3c0.3,0.5,1.5,0.9,1.8,0.1c0.4-1.1,0.3-5.3-0.1-5.8C9.8,13.2,8.9,13.3,8.4,14.2z"/>
</g>
</svg>
