<?xml version="1.0" encoding="utf-8"?>
<svg version="1.1"
	 xmlns="http://www.w3.org/2000/svg"
	 x="0px" y="0px" width="29px" height="34px" viewBox="0 0 29 34" style="enable-background:new 0 0 29 34;" xml:space="preserve">
<g id="female_tissues">
	<polygon style="fill:#906BA6;" points="28.9,8.2 14.5,0 0,8.7 0,25.6 14.4,33.7 28.9,25 	"/>
	<path style="fill:#231F20;" d="M26.1,17c0,5.6-3.9,10.2-9.1,11.3c-0.8,0.2-1.6,0.3-2.5,0.3C8,28.6,2.8,23.4,2.8,17
		c0-0.8,0.1-1.7,0.3-2.5c1.1-5.2,5.8-9.1,11.3-9.1c0.8,0,1.6,0.1,2.3,0.2c4.6,0.9,8.2,4.5,9.1,9.1C26,15.5,26.1,16.2,26.1,17"/>
	<path style="fill:#FFFFFF;" d="M18,14.6c0.6,0,0.9,0.2,1.2,0.3c0,0.1,0,0.1,0.1,0.2c-0.1,0-0.2,0-0.2,0c-0.4,0-0.9-0.4-1.7-0.1
		c0-0.1,0.1-0.2,0.1-0.3C17.6,14.7,17.8,14.6,18,14.6 M21.7,14.6c-0.1,0-0.1-0.1-0.1-0.1c0-0.1,0.1-0.1,0.1-0.2
		c0-0.1,0.2-0.2,0.1-0.2c-0.1,0-0.2,0-0.3,0c-0.1,0-0.2,0-0.2,0c-0.1,0-0.1-0.1-0.2-0.1c0-0.1,0-0.1,0.1-0.2c0,0,0,0,0,0
		c-0.3,0-0.4-0.1-0.5-0.1c0,0,0,0,0,0c-0.5,0-0.9,0.2-1.1,0.5c-0.2,0.2-0.3,0.4-0.2,0.6c0,0.2,0.2,0.6,1.1,0.6
		c0.4,0,0.8-0.2,1.1-0.5c0.1-0.1,0.2-0.2,0.2-0.3C21.8,14.6,21.7,14.6,21.7,14.6 M16.5,18.9c0.1-0.6-0.3-0.9-0.3-1.8v0
		c-0.2,0.2-0.6,0.6-0.8,0.7c0.8-1,2.1-3.4,2.2-4.4c0.1,0,0.1,0,0.2,0c0.5,0,0.9,0.5,1.3,0.5c0.6,0,0.8-0.4,1.2-0.7
		c0.1,0,0.5-0.1,0.9-0.3c0.4-0.1,0.7-0.4,1-0.4c0,0,0,0,0.1,0c0.4,0,0.6,0.2,0.6,0.5c0,0.4-0.3,0.7-0.7,0.7c-0.1,0-0.1,0-0.2,0
		c-0.2,0-0.4-0.1-0.6-0.1c-0.3,0-0.5,0-0.5,0.1c0,0.1,0.4,0.1,0.6,0.1c0.1,0,0.1,0,0,0c0,0.1-0.2,0.2-0.2,0.2c0,0,0,0,0,0
		c0.1,0,0.4-0.1,0.5-0.1c0,0,0.1,0,0.1,0c0.3,0.1-0.3,0.5-0.2,0.5c0,0,0.3-0.2,0.4-0.3c0.1-0.1,0.1-0.1,0.1,0c0,0.2-0.1,0.3-0.1,0.4
		c0,0,0,0,0,0c0.1,0,0.4-0.4,0.5-0.4c0.1,0-0.1,0.5-0.1,0.5c0.3,0,1.1-1,1.1-2c0-0.6-0.9-1-1.5-1c-0.8,0-1.1,0.5-1.8,0.7
		c-0.6,0.1-0.7,0.7-1.4,0.7c-0.7,0-1.2-0.7-1.6-1.2c-0.5-1-1.8-1.4-2.9-1.4c-1,0-2.4,0.3-2.9,1.4c-0.4,0.4-0.9,1.2-1.6,1.2
		c-0.6,0-0.8-0.6-1.4-0.7c-0.8-0.1-1-0.7-1.8-0.7c-0.6,0-1.5,0.4-1.5,1c0,0.8,0.6,1.8,1,2c0.1,0,0.1,0,0.1-0.1
		c0-0.1-0.1-0.4-0.1-0.4h0c0,0,0.4,0.4,0.5,0.4c0,0,0,0,0,0c0,0-0.1-0.3-0.1-0.5c0-0.1,0.3,0.3,0.5,0.3c0.2,0-0.5-0.4-0.2-0.5
		c0.1,0,0.5,0,0.6,0c0,0,0,0,0,0c0,0-0.2-0.1-0.2-0.2c0,0,0-0.1,0-0.1c0.1,0,0.6,0,0.6-0.1c0,0-0.2-0.1-0.5-0.1
		c-0.3,0-0.7,0.1-0.7,0.1c-0.4,0-0.7-0.3-0.7-0.7c0-0.3,0.2-0.5,0.6-0.5c0,0,0,0,0.1,0c0.3,0,0.7,0.2,1,0.4C8.2,13,8.6,13,8.7,13.1
		c0.4,0.3,0.6,0.7,1.2,0.7c0.4,0,0.8-0.5,1.3-0.5c0.1,0,0.1,0,0.2,0c0.1,0.9,1.6,3.6,2.2,4.5c-0.2-0.2-0.7-0.6-0.9-0.8c0,0,0,0,0,0
		c0,0.9-0.4,1.3-0.3,1.8c0.1,0.8,0.6,1.5,1.6,2.6c-0.8-0.3-1.1-0.7-1.2-1.1c0.1,0.3,0.1,0.7,0.1,1.6c0,0.5,0.2,1.3,0.3,2
		c0,0.2-0.1,0.4,0,0.5c0,0,0,0,0,0c0.1,0,0.4-0.6,1.2-0.4c0.8-0.1,1.1,0.4,1.2,0.4c0,0,0,0,0,0c0.1-0.1,0-0.3,0-0.5
		c0.1-0.6,0.3-1.5,0.3-2c-0.1-0.8,0-1.2,0.1-1.6c-0.2,0.5-0.6,0.8-1.1,1.1C15.9,20.4,16.3,19.7,16.5,18.9 M8.2,13.7
		C8.2,13.7,8.2,13.7,8.2,13.7c0,0.1-0.1,0.1-0.4,0.1c0,0-0.1,0,0,0c0.1,0.1,0.1,0.3-0.1,0.3c-0.1,0-0.4-0.1-0.5-0.1
		c-0.1,0,0.1,0.1,0.1,0.2c0.1,0.1,0.1,0.1,0.1,0.2c0,0.1-0.1,0.1-0.1,0.1c0,0-0.1,0-0.1-0.1c0.1,0.1,0.1,0.2,0.2,0.3
		c0.3,0.3,0.7,0.5,1.1,0.5c0.9,0,1.1-0.4,1.1-0.6c0-0.2-0.1-0.4-0.2-0.6C9,13.9,8.6,13.8,8.2,13.7 M11.5,14.7
		c-0.2-0.1-0.4-0.1-0.6-0.1c-0.6,0-0.9,0.2-1.2,0.3c0,0.1,0,0.1-0.1,0.2c0.1,0,0.2,0,0.2,0c0.4,0,0.9-0.4,1.7-0.1
		C11.6,14.9,11.6,14.8,11.5,14.7"/>
</g>
</svg>
