<?xml version="1.0" encoding="utf-8"?>
<svg version="1.1"
	 xmlns="http://www.w3.org/2000/svg"
	 x="0px" y="0px" width="29px" height="34px" viewBox="0 0 29 34" style="enable-background:new 0 0 29 34;" xml:space="preserve">
<g id="gastrointestinal_tract">
	<polygon style="fill:#1A77B4;" points="28.9,8.2 14.5,0 0,8.7 0,25.6 14.4,33.7 28.9,25 	"/>
	<path style="fill:#231F20;" d="M26.1,17.5c0,0.5,0,1.1-0.1,1.6c-0.8,5.7-5.6,10-11.5,10c-0.5,0-1,0-1.5-0.1c-5.2-0.7-9.3-4.8-10-10
		c-0.1-0.5-0.1-1-0.1-1.5c0-0.9,0.1-1.9,0.3-2.8c1-4.2,4.3-7.5,8.5-8.5C12.1,6.1,12.5,6,12.9,6c0.5-0.1,1.1-0.1,1.6-0.1
		C20.9,5.8,26.1,11,26.1,17.5"/>
	<path style="fill:#FFFFFF;" d="M15.8,13.1c-1.2-0.5-0.7-2.3-0.6-3.4c0.1-0.5-1.9-0.6-1.9-0.1c0,0.6-0.2,1.4-0.2,1.9
		c0,2.3,0.9,3.1,1.9,3.4c0.4,0.1,0.6,0.3,0.8,0.6c0.2-0.1,0.3-0.1,0.5-0.2c0.3-0.2,0.6-0.4,0.8-0.7c-0.1,0.3-0.4,0.6-0.7,0.8
		c-0.2,0.1-0.3,0.2-0.5,0.3c0.1,0.3,0.1,0.7,0.1,1v0l0.1,0l0.4,0c0.3,0,0.6,0.1,0.8,0.1c-0.3,0-0.5,0-0.8,0.1l-0.4,0.1l-0.1,0
		c-0.1,0.4-0.2,0.8-0.4,1.2c0.1,0.1,0.2,0.1,0.4,0.2c0.3,0.1,0.5,0.2,0.8,0.4c-0.3-0.1-0.6-0.1-0.8-0.2c-0.1,0-0.3,0-0.4-0.1
		c0,0,0,0,0,0c-0.2,0.3-0.4,0.5-0.6,0.8c0.1,0.1,0.1,0.1,0.2,0.2c0.1,0.1,0.3,0.3,0.5,0.4c0.3,0.3,0.7,0.5,1,0.7
		c-0.4-0.2-0.8-0.3-1.1-0.5c-0.2-0.1-0.4-0.2-0.5-0.3c-0.1-0.1-0.2-0.1-0.3-0.2h0c-0.3,0.2-0.6,0.4-0.9,0.5c0,0,0.1,0.1,0.1,0.1
		c0.1,0.1,0.2,0.3,0.3,0.4c0.2,0.3,0.3,0.6,0.4,0.9c-0.1-0.3-0.3-0.6-0.5-0.8c-0.1-0.1-0.2-0.2-0.3-0.3c-0.1,0-0.1-0.1-0.2-0.1
		l-0.1-0.1l-0.1-0.1c-1.1,0-1.8-1.1-2.9-1.1c-1,0-2.9,1-2.9,2.9c0,2.5,2.7,3.3,5.2,3.5c0.6,0,0.8-1.8,0.3-1.9
		c-1-0.2-3.6,0.4-3.6-1.7c0-0.3,0.3-0.8,1-0.8c1.6,0,2.1,2.1,5.1,2.1c3.4,0,6.3-3.4,6.3-6.8C21.6,12.4,17.7,12,15.8,13.1"/>
</g>
</svg>
