<?xml version="1.0" encoding="utf-8"?>
<svg version="1.1"
	 xmlns="http://www.w3.org/2000/svg"
	 x="0px" y="0px" width="29px" height="34px" viewBox="0 0 29 34" style="enable-background:new 0 0 29 34;" xml:space="preserve">
<g id="kidney__urinary_bladder">
	<polygon style="fill:#F7C0D9;" points="28.9,8.2 14.5,0 0,8.7 0,25.6 14.4,33.8 28.9,25 	"/>
	<path style="fill:#231F20;" d="M14.3,28.5c6.4,0,11.6-5.2,11.6-11.6S20.7,5.3,14.3,5.3C8,5.3,2.7,10.5,2.7,16.9
		C2.7,23.3,8,28.5,14.3,28.5"/>
	<path style="fill:#FFFFFF;" d="M8,14.4c-1,0.5-2.1,1.7-2.1,3.5c0,2.7,1.8,5,3.7,4.4c1.2-0.3,1.3-1.8,1.5-3.2c0.2-1.4,1-2.2,0.8-3.3
		C11.5,14,9.3,13.7,8,14.4 M13,16.9v0.4c-0.3,0.1-0.6,0.2-0.9,0.3c0.1-0.1,0.1-0.3,0.2-0.4C12.5,17.1,12.8,17,13,16.9 M12.1,9.9
		c0-0.3,0.5-0.5,0.8-0.5v6.8l-0.1,0c0-0.2,0-0.3,0-0.5c-0.1,0-0.3,0.1-0.5,0.1c0-0.1,0-0.1,0-0.2c0-0.1,0-0.1,0-0.2
		c0.2-0.1,0.4-0.1,0.5-0.2C12.7,13.4,12.5,11.5,12.1,9.9 M13.3,17.8v6.4c-0.1-0.1-0.2-0.1-0.2-0.3c0.1-1.8,0-3.9-0.1-6.1
		C13.1,17.8,13.2,17.8,13.3,17.8 M13.3,16.7v0.5c-0.1,0-0.2,0.1-0.3,0.1v-0.4C13.1,16.8,13.2,16.8,13.3,16.7 M13,9.5
		c0.2,0,0.3,0.1,0.3,0.2v6.5c-0.1,0-0.2,0.1-0.3,0.1V9.5z M13.3,24.2v-6.4c0.1,0,0.2,0,0.2-0.1c0,1,0,2,0,2.9c0,1.2,0,2.4,0.1,3.4
		c0,0.1,0,0.2,0.1,0.3C13.5,24.3,13.4,24.2,13.3,24.2 M16.2,16.9c-0.3-0.1-0.6-0.2-0.9-0.3l0-0.3c0.1-2.3,0.3-4.6,0.6-6.4
		c0.1-0.4-1.1-0.6-1.2-0.2c-0.3,1.8-0.5,4.2-0.7,6.5l0,0.2c-0.2,0-0.4,0.1-0.8,0.3v0.5c0.3-0.1,0.6-0.1,0.8-0.2
		c-0.1,2.4-0.1,4.9,0,7c0,0.4,1.2,0.4,1.2-0.1c-0.1-2-0.1-4.4,0-6.8c0.2,0.1,0.5,0.1,0.9,0.2V16.9z M16.2,15.4v0.4
		c-0.1,0-0.2,0-0.3,0c0-0.1,0-0.2,0-0.4C16,15.4,16.1,15.4,16.2,15.4 M13.3,9.7C13.3,9.7,13.3,9.7,13.3,9.7c0.2,1,0.4,2.1,0.5,3.3
		c-0.1,1-0.2,2-0.2,3.1c-0.1,0-0.2,0.1-0.3,0.1V9.7z M16.2,15.8v-0.4c0.1,0,0.1,0,0.2,0c0,0.1,0.1,0.2,0.1,0.4
		C16.4,15.8,16.3,15.8,16.2,15.8 M17,17.2v0.4c-0.3-0.1-0.5-0.2-0.8-0.3v-0.4C16.4,17,16.7,17.1,17,17.2 M17,14.1v1.5
		c-0.1-0.4-0.2-0.7-0.1-1.1C16.9,14.3,16.9,14.2,17,14.1 M17,15.6c0.2,0.6,0.6,1.3,0.7,2.2c0.2,1.4,0.3,2.9,1.5,3.2
		c1.9,0.5,3.7-1.7,3.7-4.4c0-1.8-1.1-3-2.1-3.5c-1.3-0.7-3.2-0.4-3.8,1.1V15.6z M17,17.6v-0.4l0,0c0,0.1,0.1,0.3,0.1,0.4
		C17.1,17.6,17,17.6,17,17.6"/>
</g>
</svg>
