<?xml version="1.0" encoding="utf-8"?>
<svg version="1.1"
	 xmlns="http://www.w3.org/2000/svg"
	 x="0px" y="0px" width="29px" height="34px" viewBox="0 0 29 34" style="enable-background:new 0 0 29 34;" xml:space="preserve">
<g id="liver__gallbladder">
	<polygon style="fill:#37989B;" points="28.9,8.2 14.5,0 0,8.7 0,25.6 14.4,33.7 28.9,25 	"/>
	<path style="fill:#231F20;" d="M14.6,28.5c6.4,0,11.6-5.2,11.6-11.6c0-6.4-5.2-11.6-11.6-11.6S2.9,10.5,2.9,16.9
		C2.9,23.3,8.2,28.5,14.6,28.5"/>
	<path style="fill:#FFFFFF;" d="M16.4,20c-3.9,1.6-4.7,2.8-5.6,3.3c-1,0.6-2.3,0.2-2.2-1.2c0.1-2.2-0.9-3.9-0.9-5.9
		c0-2.2,1.2-4.1,3.1-5.1c1.3-0.6,3.1-0.5,4.4,0.1c0.8,0.4,1.5,1.2,1.8,2.1c0.5,1.5,0.7,3.3,0.6,5C17.5,19.3,17,19.8,16.4,20
		 M23.2,15.3c-1.3,1.2-2.2,2.5-4.3,3.6c-0.4,0.2-0.9-0.1-0.8-0.7c0.2-1.5,0.1-3.3-0.2-4.9c-0.2-0.9,0.3-1.2,1-1.1
		c1.1,0.2,2.3,0.4,3.3,0.5C23.7,13,24.1,14.5,23.2,15.3"/>
</g>
</svg>
