<svg viewBox="0 0 753 69" xmlns="http://www.w3.org/2000/svg" enable-background="new 0 0 800 90" style="background-size: 80px 800px;" width="1200" height="115">
  <defs>
    <style>
		@keyframes colorChange1 {
			0%, 8.33% {fill:#50c8eb}
			16.67%, 25%{fill:#7254a3}
			33.33%, 41.67%{fill:#ec008c}
			50%, 58.33%{fill:#ef432b}
			66.67%, 75%{fill:#58585a}
			83.33%, 91.67%{fill:#93cf9a}
		}
		@keyframes colorChange2 {
			0%, 8.33% {fill:#007fc7}
			16.67%, 25%{fill:#50c8eb}
			33.33%, 41.67%{fill:#8b288f}
			50%, 58.33%{fill:#f36f21}
			66.67%, 75%{fill:#bcbdc0}
			83.33%, 91.67%{fill:#00b4c7}
		}
		@keyframes colorChange3 {
			0%, 8.33% {fill:#94c83d}
			16.67%, 25%{fill:#007dc6}
			33.33%, 41.67%{fill:#f36f21}
			50%, 58.33%{fill:#febd11}
			66.67%, 75%{fill:#818285}
			83.33%, 91.67%{fill:#007767}
		}
      .hexagon1 {
			fill: #50c8eb;
			animation: colorChange1 12s infinite;
      }
      .hexagon2 {
			fill: #007fc7;
			animation: colorChange2 12s infinite;
      }
      .hexagon3 {
			fill: #94c83d;
			animation: colorChange3 12s infinite;
      }
      .d {
			fill: #808285;
      }
      .f {
			fill: #bcbec0;
      }
      .g {
			fill: #58595b;
      }
    </style>
  </defs>
<g class="d">
	<path d="m121.17 44.09v23.97h-8.53v-56.57h8.53v24.02h10.29v-24.02h8.53v56.57h-8.53v-23.97z"/>
	<path d="m161.78 68.69c-3.76 0-6.95-1.31-9.57-3.93s-3.93-5.79-3.93-9.53v-43.74h8.35v43.66c0 1.35.48 2.51 1.44 3.45.96.95 2.12 1.42 3.48 1.42s2.51-.47 3.45-1.42c.95-.95 1.42-2.1 1.42-3.45v-43.66h8.89v43.75c0 3.79-1.33 6.98-3.97 9.57-2.65 2.59-5.84 3.88-9.57 3.88z"/>
	<path d="m192.14 68.06h-8.53v-56.62h12.25l7.95 40.67 7.63-40.67h11.76v56.62h-8.53v-35.58l-7.4 35.58h-6.86l-8.26-35.49v35.49z"/>
	<path d="m241.15 55.06-2.07 13h-8.89l9.62-56.57h11.74l9.48 56.57h-8.97l-2-13zm4.77-30.61-3.16 22.3h6.32z"/>
	<path d="m277.89 11.44 11.32 38.05v-38.05h8.53v56.62h-9.17l-11.74-36.26v36.26h-8.53v-56.62h9.58z"/>
	<path d="m554.57 55.06-2.07 13h-8.88l9.62-56.57h11.74l9.48 56.57h-8.97l-2-13h-8.91zm4.48-30.61-3.16 22.3h6.32z"/>
	<path d="m583.56 20.07h-9.08v-8.58h26.64v8.58h-9.03v47.99h-8.53z"/>
	<path d="m631.37 68.06h-23.25v-56.57h8.53v48.08h14.72z"/>
	<path d="m645.08 55.06-2.07 13h-8.89l9.62-56.57h11.74l9.48 56.57h-8.97l-2-13zm4.48-30.61-3.16 22.3h6.32z"/>
	<path d="m697.07 53.98c.06 3.94-.96 7.31-3.07 10.11-1.38 1.9-3.34 3.24-5.87 4.02-1.35.42-2.93.63-4.74.63-3.34 0-6.11-.83-8.31-2.48-1.84-1.35-3.29-3.2-4.36-5.53s-1.69-5-1.87-8.01l8.13-.59c.36 3.3 1.23 5.69 2.62 7.17 1.02 1.12 2.2 1.65 3.52 1.59 1.87-.06 3.36-.98 4.47-2.76.57-.87.86-2.12.86-3.75 0-2.35-1.07-4.68-3.21-7-1.69-1.6-4.21-3.99-7.58-7.19-2.83-2.74-4.83-5.2-6-7.37-1.26-2.44-1.9-5.09-1.9-7.95 0-5.15 1.73-9.05 5.19-11.7 2.14-1.6 4.79-2.4 7.95-2.4s5.64.68 7.81 2.03c1.68 1.05 3.05 2.53 4.09 4.42 1.04 1.9 1.66 4.08 1.87 6.55l-8.17 1.49c-.24-2.32-.9-4.12-1.99-5.42-.78-.93-1.91-1.4-3.39-1.4-1.57 0-2.75.69-3.57 2.08-.66 1.11-.99 2.5-.99 4.15 0 2.59 1.11 5.22 3.34 7.9.84 1.02 2.11 2.23 3.79 3.61 1.99 1.66 3.3 2.81 3.93 3.48 2.11 2.11 3.73 4.18 4.88 6.23.54.96.98 1.85 1.31 2.66.81 2.02 1.23 3.82 1.26 5.42z"/>
</g>
<g class="f">
	<path d="m9.08 20.07h-9.08v-8.58h26.64v8.58h-9.03v47.99h-8.53z"/>
	<path d="m41.49 44.09v23.97h-8.53v-56.57h8.53v24.02h10.29v-24.02h8.53v56.57h-8.53v-23.97z"/>
	<path d="m68.64 68.06v-56.62h24.29v8.58h-15.76v15.44h11.51v8.58h-11.51v15.44h15.76v8.58z"/>
</g>
<g class="g">
	<path d="m330.91 11.49c4.15 0 7.46 1.31 9.93 3.93 2.29 2.5 3.43 5.69 3.43 9.57v8.22c0 3.73-1.3 6.92-3.91 9.57-2.6 2.65-5.76 3.97-9.46 3.97h-4.92v21.31h-8.53v-56.57h13.45zm5.1 13.64c0-1.47-.44-2.66-1.33-3.57-.89-.9-2.07-1.35-3.54-1.35h-5.15v18.11h5.15c1.35 0 2.51-.48 3.45-1.44.95-.96 1.42-2.12 1.42-3.48v-8.26z"/>
	<path d="m363.82 11.49c4.76 0 8.25 1.31 10.48 3.93 1.96 2.29 2.94 5.48 2.94 9.57v8.22c0 4-1.52 7.39-4.56 10.16l6.32 24.7h-9.23l-5.17-21.31h-5.69v21.31h-8.53v-56.58h13.45zm5.1 13.64c0-3.28-1.63-4.92-4.88-4.92h-5.15v18.11h5.15c1.35 0 2.51-.48 3.45-1.44.95-.96 1.42-2.12 1.42-3.48v-8.26z"/>
	<path d="m398.21 10.77c3.76 0 6.96 1.33 9.59 3.97 2.63 2.65 3.95 5.84 3.95 9.57v30.88c0 3.76-1.32 6.96-3.97 9.59s-5.84 3.95-9.57 3.95-6.95-1.32-9.57-3.97-3.93-5.84-3.93-9.57v-30.88c0-3.76 1.32-6.96 3.97-9.59s5.82-3.95 9.53-3.95zm5.5 13.37c0-1.35-.47-2.51-1.42-3.45s-2.1-1.42-3.45-1.42-2.51.47-3.48 1.42c-.96.95-1.44 2.1-1.44 3.45v30.97c0 1.35.48 2.51 1.44 3.45.96.95 2.12 1.42 3.48 1.42s2.51-.47 3.45-1.42 1.42-2.1 1.42-3.45z"/>
	<path d="m424.99 20.07h-9.08v-8.58h26.64v8.58h-9.03v47.99h-8.53z"/>
	<path d="m448.87 68.06v-56.62h24.29v8.58h-15.76v15.44h11.51v8.58h-11.51v15.44h15.76v8.58z"/>
	<path d="m488.26 68.06h-8.53v-56.57h8.53z"/>
	<path d="m506.17 11.44 11.32 38.05v-38.05h8.53v56.62h-9.17l-11.74-36.26v36.26h-8.53v-56.62h9.58z"/>
</g>
<g class="hexagon">
	<path d="m718.15 18.08v-12.05l10.44-6.03 10.44 6.03v12.05l-10.43 6.03z" class="hexagon1"/>
	<path d="m705.03 40.98-.01-12.04 10.44-6.04 10.43 6.02.01 12.05-10.44 6.04z" class="hexagon2"/>
	<path d="m731.26 40.96v-12.06l10.43-6.02 10.44 6.02v12.06l-10.44 6.03z" class="hexagon3"/>
</g>
</svg>