<?xml version="1.0" encoding="utf-8"?>
<svg version="1.1"
	 xmlns="http://www.w3.org/2000/svg"
	 x="0px" y="0px" width="29px" height="34px" viewBox="0 0 29 34" style="enable-background:new 0 0 29 34;" xml:space="preserve">
<g id="male_tissues">
	<polygon style="fill:#19915E;" points="28.9,8.2 14.5,0 0,8.7 0,25.6 14.4,33.7 28.9,25 	"/>
	<path style="fill:#231F20;" d="M14.5,28.5c6.4,0,11.6-5.2,11.6-11.6c0-6.4-5.2-11.6-11.6-11.6c-6.4,0-11.6,5.2-11.6,11.6
		C2.8,23.3,8.1,28.5,14.5,28.5"/>
	<path style="fill:#FFFFFF;" d="M16.1,15.3c0,0.2-0.1,0.4-0.2,0.6c-0.1-0.1-0.2-0.2-0.4-0.3c0-0.1,0-0.1,0-0.2
		C15.7,15.4,15.9,15.4,16.1,15.3L16.1,15.3C16,15.3,16,15.3,16.1,15.3 M13.8,15.9c-0.9,0-0.9,1.4,0,1.4h1.3c0.9,0,0.9-1.4,0-1.4
		H13.8z M14.5,15.2c0.5,0,1.1-0.1,1.4-0.2c1.2-0.4,2.1-1.4,2.1-2.7c0-0.6,0.1-1.1,0.4-1.4c0.2-0.2,0.5-0.2,0.7,0.1
		c0.8,0.8,0.4,2.2-0.1,3.1c-0.7,1.1-1.2,2.3-1.6,3.6c-0.2,0.7-0.3,1.4-0.4,2.1c0.2,0.1,0.3,0.3,0.4,0.4c0.1-0.9,0.3-1.7,0.5-2.4
		c0.4-1.3,0.9-2.4,1.5-3.5c0.6-1,1-2.7,0.1-3.6c-0.4-0.4-0.8-0.4-1.2-0.2c-0.5,0.3-0.7,0.1-1-0.1c-0.7-0.5-1.7-0.8-2.7-0.8
		s-2,0.3-2.7,0.8c-0.3,0.2-0.6,0.4-1,0.1c-0.5-0.3-0.9-0.2-1.2,0.2c-0.9,0.9-0.5,2.6,0.1,3.6c0.6,1.1,1.2,2.2,1.5,3.5
		c0.2,0.8,0.4,1.6,0.5,2.4c0.1-0.2,0.3-0.3,0.4-0.4c-0.1-0.7-0.2-1.4-0.4-2.1c-0.4-1.3-0.9-2.5-1.6-3.6c-0.5-0.8-0.9-2.3-0.1-3.1
		c0.2-0.2,0.5-0.3,0.7-0.1c0.3,0.3,0.4,0.8,0.4,1.4c0,1.3,0.9,2.3,2.1,2.7C13.4,15.2,13.9,15.2,14.5,15.2 M12.8,23.7l0.1-3v0h0v0
		c0,0,0,0,0-0.1c0,0-0.1-0.1-0.1-0.2h0c0,0,0,0,0,0c0-0.1-0.1-0.1-0.1-0.2c-0.9,0.3-1,1.9-1,2.5C11.6,23.4,12.2,23.7,12.8,23.7
		 M16.1,23.7l-0.1-3v0h0v0c0,0,0,0,0-0.1c0,0,0.1-0.1,0.1-0.2c0,0,0,0,0,0c0-0.1,0.1-0.1,0.1-0.2c0.9,0.3,1,1.9,1,2.5
		C17.3,23.4,16.7,23.7,16.1,23.7 M14.6,25.4h0.1c0.3,0,0.6-0.4,0.7-0.7c0.1-0.2,0-0.3,0-0.5l-0.1-3.4c0-0.3,0.1-0.4,0.2-0.6
		c0.3-0.5,0.5-1.1,0.7-2c0.1-0.3-0.2-0.4-0.4-0.2c-0.2,0.2-0.3,0.4-0.5,0.5c-0.1,0.1-0.2,0.2-0.3,0.4c-0.1,0.2-0.1,0.4-0.1,0.7
		c-0.2-0.4-0.1-1,0.1-1.3c0-0.1,0.1-0.1,0-0.2c-0.1-0.1-0.3-0.2-0.4-0.2h-0.3v7c0.1,0.1,0.2,0.2,0.2,0.3
		C14.8,25.2,14.7,25.3,14.6,25.4 M14.3,25.4h-0.1c-0.3,0-0.6-0.4-0.7-0.7c-0.1-0.2,0-0.3,0-0.5l0.1-3.4c0-0.3-0.1-0.4-0.2-0.6
		c-0.3-0.5-0.5-1.1-0.7-2c-0.1-0.3,0.2-0.4,0.4-0.2c0.2,0.2,0.3,0.4,0.5,0.5c0.1,0.1,0.2,0.2,0.2,0.4c0.1,0.2,0.1,0.4,0.1,0.7
		c0.2-0.4,0.1-1-0.1-1.3c0-0.1,0-0.1,0-0.2c0.1-0.1,0.3-0.2,0.4-0.2h0.3v7c-0.1,0.1-0.2,0.2-0.2,0.3C14.1,25.2,14.2,25.3,14.3,25.4
		 M13.3,15.4c0,0.1,0,0.1,0,0.2c-0.2,0.1-0.3,0.2-0.4,0.3c-0.1-0.2-0.1-0.4-0.2-0.6c0,0,0,0,0.1,0h0C13,15.4,13.2,15.4,13.3,15.4"/>
</g>
</svg>
