<?xml version="1.0" encoding="utf-8"?>
<svg version="1.1"
	 xmlns="http://www.w3.org/2000/svg"
	 x="0px" y="0px" width="29px" height="34px" viewBox="0 0 29 34" style="enable-background:new 0 0 29 34;" xml:space="preserve">
<g id="muscle_tissues">
	<polygon style="fill:#7B4D3A;" points="28.9,8.2 14.5,0 0,8.7 0,25.6 14.4,33.7 28.9,25 	"/>
	<path style="fill:#231F20;" d="M14.5,28.5c6.4,0,11.6-5.2,11.6-11.6c0-6.4-5.2-11.6-11.6-11.6c-6.4,0-11.6,5.2-11.6,11.6
		C2.8,23.3,8.1,28.5,14.5,28.5"/>
	<path style="fill:#FFFFFF;" d="M17,14.7c1.1,1.1,2,2.7,1.8,5.3c-0.1,1.6,0.1,2.5-0.2,3c-0.5,0.6-1.3,0.5-2.5,0.2
		c-1.5-0.4-2.9-0.5-4.2-1.4c-1.4-0.9-2-2.1-2.2-3.6c-0.1-1.5,0.2-2.7,1-3.5c0.2,0.9,1.1,1.7,1.7,3c-0.1-1.7-1.3-2-1.3-4.1
		c0.2-1,0.6-1.9,1.3-2.5c0.9-0.8,3.9-1.3,4.3,0c-1.5,0.1-2.7,1-2.7,2.3c0.4-1,1.7-2.2,3.8-1.6c0.7,0.2,0.5,1.8,0,1.7
		c-2-0.2-3.1,2.8-1.7,4.3c-0.5-1.2-0.3-2.5,0.5-3.3C16.6,14.6,16.8,14.6,17,14.7 M11.5,11.3c-0.4-0.3-1.5-0.4-1.6,0.1
		c0,0-0.2,2-0.3,3.9c0.2-0.4,0.5-0.7,0.8-1c0.1-0.6,0.2-1.2,0.4-1.8C11,12,11.2,11.6,11.5,11.3"/>
</g>
</svg>
