<?xml version="1.0" encoding="utf-8"?>
<svg version="1.1"
	 xmlns="http://www.w3.org/2000/svg"
	 x="0px" y="0px" width="29px" height="34px" viewBox="0 0 29 34" style="enable-background:new 0 0 29 34;" xml:space="preserve">
<g id="pancreas">
	<polygon style="fill:#483D8B;" points="28.9,8.2 14.5,0 0,8.7 0,25.6 14.4,33.7 28.9,25 	"/>
	<path style="fill:#231F20;" d="M26.2,16.9c0,6.1-4.7,11.1-10.6,11.6c-0.3,0-0.7,0-1,0c-6.4,0-11.6-5.2-11.6-11.6c0-0.3,0-0.7,0-1
		C3.5,9.9,8.5,5.3,14.6,5.3c0.3,0,0.6,0,0.9,0c5.7,0.4,10.3,5,10.7,10.7C26.2,16.3,26.2,16.6,26.2,16.9"/>
	<path style="fill:#FFFFFF;" d="M17.5,17.7c0.2-1.5,1.2-0.9,0.9,0.4C18.1,19.4,17.4,18.4,17.5,17.7 M17.1,17.7
		c0-0.3,0.1-0.6,0.3-0.9c-0.1,0-0.2,0-0.4,0.1c-0.1,0-0.2,0.1-0.3,0.1c-0.3,0.1-0.6,0.2-0.9,0.2c-0.1,0-0.2,0-0.3,0h0
		c-0.1,0-0.1,0.1-0.3,0.3c-0.1,0.2-0.3,0.5-0.6,0.6c0.1,0.8,0.4,1.6,0.8,2.2c0.2-0.4,0.4-0.7,0.7-1c0,0,0,0,0,0c0,0,0-0.1,0-0.1
		c0-0.1-0.1-0.2-0.1-0.3c-0.1-0.2-0.3-0.3-0.4-0.5c0.2,0.1,0.4,0.2,0.6,0.4c0.1,0.1,0.2,0.2,0.2,0.3c0,0,0,0.1,0.1,0.1
		c0.3-0.2,0.6-0.3,1.1-0.4C17.1,18.5,17,18.1,17.1,17.7 M21.4,14.6c0.6-0.1,1.1-0.8,1.1-1c0.4,0,1.4-1.2,1.4-1.6
		c0-0.2,0-0.3-0.4-0.3c-0.4,0-1.3,0.2-1.6,0.6c-0.6-0.2-1,0-1.3,0.5c-0.9,0-1,0.2-1.2,0.6c-0.5-0.3-1.1-0.3-1.4,0.2
		c-0.5,0-0.6-0.2-1.1,0.2c-0.5-0.4-1.1-0.3-1.5,0.1c-0.2-0.4-0.8-0.7-1.3-0.3c-0.3,0.1-0.8,0-1,0c0,0.1,0.1,0.2,0.1,0.3
		c0.1,0.9-0.4,2.6-1.2,2.7c0,0,0,0-0.1,0c-0.2,0-0.3-0.1-0.4-0.3c-0.3-0.2-0.7-0.3-0.9-0.3c-1.3,0-1.6,0.6-1.6,1
		c0,0.5-0.1,0.7-0.2,0.8c0,0-0.1,0.1-0.1,0.4c0,0.3,0.1,0.3,0.5,0.4c-0.2,0.2-0.3,0.3-0.3,0.6c0,0.5,0.5,0.7,0.8,0.9
		c0.1,0,0.2,0.1,0.2,0.2c0,0.1,0,0.1,0,0.2c0,0.1,0,0.1,0,0.1c0,0.1,0.1,0.2,0.3,0.2c0.6,0,0.8,0.1,0.9,0.2c0,0,0.1,0.1,0.3,0.1
		c0.2,0,0.2-0.1,0.3-0.2l0-0.1l0.1,0c0.2,0,0.4,0.1,0.6,0.1c0.5,0,0.5-0.4,0.5-0.5c0,0,0,0,0,0c0,0-0.5-2-0.5-2.4
		c0-0.2-0.1-0.5,1-0.3c0.2,0,0.4,0.1,0.8,0.1c0.5,0,0.7-0.3,0.8-0.6c0.1-0.2,0.3-0.5,0.6-0.5c0,0,0,0,0,0c0,0,0.2,0,0.2,0
		c0.4,0,0.7-0.2,1.2-0.3c0.2-0.1,0.5-0.1,0.7-0.1l0,0l0.4,0c0.8,0,1.5-0.6,2-1.2C20.6,15.5,21.3,15,21.4,14.6 M15.3,21.1
		c0-0.1,0-0.2-0.1-0.4c-0.4-0.7-0.8-1.6-0.9-2.6c-0.1,0-0.1,0-0.2,0c-0.1,0-0.1,0-0.2,0c0.1,0.7,0.4,1.5,0.7,2.6
		c0.2,0.7,0.5,1.4,0.7,2.3c0.2-0.2,0.4-0.4,0.4-0.6C15.4,21.9,15.4,21.5,15.3,21.1 M12.9,21.1c-0.3,0.3-0.8,0.3-1.1,0.2
		c-0.2,0.3-0.5,0.4-0.9,0.3c0,0.4,0,0.7-0.1,1c0.1-0.4,0-0.8-0.2-1.2c-0.3-0.1-1.3,0.1-1.1-0.8c-0.9-0.4-1.1-1.1-0.9-1.6
		c-0.3-0.1-0.6-0.1-0.9,0c0.2-0.2,0.5-0.2,0.7-0.2c-0.1-0.2-0.1-0.8,0.1-1.1c0.3-0.3-0.3-1.3,1.1-1.7c-0.3-0.4-0.5-0.9-0.6-1.4
		c0.1,0.3,0.2,0.5,0.4,0.8c0.1,0.2,0.3,0.3,0.5,0.4l0.1,0.1l0,0c0.5-0.1,0.9-0.1,1.4,0.1c-0.1-0.8,0.2-1.9,0.8-2.4
		c-0.6-0.1-1.1-0.3-1.9-0.3c-3.1,0-4.5,3.1-4.5,5.3c0,3.5,2.6,5.3,5.2,5.3c0.7,0,1.4-0.2,2-0.4C13,22.5,13,21.7,12.9,21.1
		 M11.1,11.1c-0.1,0.2,0.3,1.7,0.3,1.9c0.2,0.1,0.6,0.2,0.9,0.2c0-0.7-0.3-1.7-0.4-2.2C11.9,10.9,11.3,10.9,11.1,11.1 M13.8,22.8
		l0.2-0.2l0.1,0.3c0.1,0.2,0.2,0.6,0.3,0.7c0.2,0,0.5-0.1,0.7-0.2c-0.3-0.9-0.5-1.7-0.7-2.4c-0.4-1.2-0.6-2-0.7-2.8
		c-0.1,0-0.3,0-0.3,0c-0.3,0-0.4-0.1-0.6,0.1c0,0.3,0.1,0.7,0.2,1.2c0.3,0.9,0.6,2.2,0.4,3.7C13.4,23,13.6,22.9,13.8,22.8
		 M13.2,13.3c0.3,0,0.6,0,0.8-0.1c0-0.3-0.1-0.5-0.1-0.8c0-0.2,0-0.3,0-0.4c0-0.1-0.1-0.1-0.3-0.1c-0.1,0-0.3,0.1-0.3,0.1
		c0,0.1-0.1,0.1,0,0.2c0,0.2,0,0.4,0,0.6C13.2,13.1,13.2,13.2,13.2,13.3 M12.2,16c0.3-0.5,0.6-1.3,0.5-2c-0.1-1.1-1.2,0.1-1.2,1.6
		C11.6,16.5,11.9,16.5,12.2,16"/>
</g>
</svg>
