<?xml version="1.0" encoding="utf-8"?>
<svg version="1.1"
	 xmlns="http://www.w3.org/2000/svg"
	 x="0px" y="0px" width="29px" height="34px" viewBox="0 0 29 34" style="enable-background:new 0 0 29 34;" xml:space="preserve">
<g id="mouth">
	<polygon style="fill:#F29699;" points="28.9,8.2 14.5,0 0,8.7 0,25.6 14.4,33.7 28.9,25 "/>
	<path style="fill:#231F20;" d="M14.4,28.8c6.4,0,11.6-5.2,11.6-11.6c0-6.4-5.2-11.6-11.6-11.6S2.8,10.8,2.8,17.2
		C2.8,23.6,8,28.8,14.4,28.8"/>
	<path style="fill:#FFFFFF;" d="M14.4,24.8c0,0-1.3,0-1.5-0.2c-0.2-0.2-0.2-2.3-0.2-2.3l-2.2,0.4c0,0-1.3,0-1.5-0.5
		c-0.2-0.5,0-0.6,0-1c0-0.4-0.5-0.4-0.5-0.7c0-0.3,0.8-0.3,0.8-0.3s0.5,0.5,1.8,0.5c1.3,0,1.8-0.5,1.8-0.5s0.4-0.2,1,0
		c0.5,0.2,0.5,1.2,0.5,1.4V24.8z"/>
	<path style="fill:#FFFFFF;" d="M15.3,24.8c0,0-0.1-3.9,0-4.3c0.1-0.5,0.3-0.8-0.3-1.2S13.2,19,13.2,19s-1,0.4-2,0.3
		c-1-0.1-1.5,0-1.6,0c-0.2,0-0.5,0.1-0.8,0.2s-0.2,0.1-0.4,0c-0.1-0.1,0.3-0.3,0.3-0.8l0-0.3c-0.5-0.2-0.5-0.2-0.9-0.3
		c-0.4-0.1-0.4-0.1-0.4-0.3c0-0.2,0.3-0.8,0.6-1c0.2-0.2,1.1-0.8,1-1.1c-0.1-0.2-0.3-0.6-0.4-0.9c-0.1-0.3-0.1-1.1,0-1.4
		c0.1-0.3,0.5-1.8,2.2-3.3c1.7-1.6,4.5-0.9,5-0.8c0.6,0.1,1.8,0.2,3.3,1.7c1.4,1.5,1.3,2.7,1.2,3.5c0,0.8-0.3,1.9-0.6,2.6
		c-0.3,0.7-0.7,1.2-0.9,1.8c-0.2,0.6-0.2,2-0.1,2.6c0.1,0.6,0.4,3,0.4,3s-1.5,0.4-2.3,0.4H15.3z"/>
</g>
</svg>
