<?xml version="1.0" encoding="utf-8"?>
<svg version="1.1"
	 xmlns="http://www.w3.org/2000/svg"
	 x="0px" y="0px" width="29px" height="34px" viewBox="0 0 29 34" style="enable-background:new 0 0 29 34;" xml:space="preserve">
<g id="lung">
	<polygon style="fill:#8FBC8F;" points="28.9,8.2 14.5,0 0,8.7 0,25.6 14.4,33.7 28.9,25 	"/>
	<path style="fill:#231F20;" d="M14.5,28.5c6.4,0,11.6-5.2,11.6-11.6c0-6.4-5.2-11.6-11.6-11.6S2.8,10.5,2.8,16.9
		C2.8,23.3,8.1,28.5,14.5,28.5"/>
	<path style="fill:#FFFFFF;" d="M10.9,11.7c0.7,0,1.2,0.4,1.2,1.2v7.6c0,0.8-0.4,1.3-1.2,1.4l-3.9,0.6c-0.7,0.1-1.3-0.3-1.3-1.1
		C5.6,16.2,9,11.7,10.9,11.7 M18,11.7c-0.7,0-1.2,0.4-1.2,1.2v7.6c0,0.8,0.4,1.3,1.2,1.4l3.9,0.6c0.7,0.1,1.3-0.3,1.3-1.1
		C23.3,16.2,19.9,11.7,18,11.7 M14.5,16.1c-0.6,0-1.2,0.1-1.7,0.2v-1.4c0.2-0.1,0.3-0.1,0.5-0.2c0.6-0.2,0.5-0.7,0.5-1.9V9.6
		c0-0.5,1.4-0.5,1.4,0v3.2c0,1.2,0,1.7,0.5,1.9c0.2,0.1,0.3,0.1,0.5,0.2v1.4C15.6,16.1,15,16.1,14.5,16.1"/>
</g>
</svg>
