<?xml version="1.0" encoding="utf-8"?>
<svg version="1.1"
	 xmlns="http://www.w3.org/2000/svg"
	 x="0px" y="0px" width="29px" height="34px" viewBox="0 0 29 34" style="enable-background:new 0 0 29 34;" xml:space="preserve">
<g id="skin">
	<polygon style="fill:#27B9CB;" points="28.9,8.2 14.5,0 0,8.7 0,25.6 14.4,33.7 28.9,25 	"/>
	<path style="fill:#231F20;" d="M3,16.9C3,10.5,8.2,5.3,14.6,5.3c6.4,0,11.6,5.2,11.6,11.6c0,6.4-5.2,11.6-11.6,11.6
		C8.2,28.5,3,23.3,3,16.9"/>
	<path style="fill:#FFFFFF;" d="M7.1,23.2c0,0-0.6,0-0.7-0.4c0-0.1,0-0.2-0.1-0.4c0.8,0.1,6.5,0.1,8.2,0c1.5,0,6.1-0.2,7.6-0.2
		c0,0.4,0,0.6-0.1,0.7C22,23.3,7.1,23.2,7.1,23.2 M6.3,21.8c-0.1-1.4-0.2-4-0.2-4.9c0-0.3,0-0.6,0-0.9c0.5,0.4,0.9,0.3,1.6-0.1
		c0.1,0.2,0.1,0.4,0.3,0.6c0.4,0.4,0.5-0.1,0.8-0.3c0.1-0.1,0.2-0.1,0.4-0.1C9.1,16.9,9,17.6,9,18.2c0.1,1.8,1,2.7,2,2.8l0.1,0.9
		c-0.9,0-1.6,0-1.8,0C8.7,22,7,21.9,6.3,21.8 M11.7,21c1.4-0.2,2.6-1.5,2.1-3.3c-0.1-0.4-0.3-0.8-0.6-1.2c-0.1-0.1-0.2-0.2-0.2-0.4
		l0.1,0c0.3-0.1,0.4-0.3,0.5-0.5l0.1-0.1c0,0,0.1-0.1,0.1-0.1c0.1,0,0.2,0.2,0.3,0.3c0.1,0.2,0.2,0.4,0.2,0.4l0.3-0.1
		c-0.2,0.8-0.2,1.5-0.2,2.1c0.1,1.9,1,2.7,2.1,2.9l0.1,0.8l-0.1,0c-0.8,0-3.1,0.1-4.9,0.1L11.7,21z M17.2,21c1.3-0.2,2.5-1.5,2-3.3
		c-0.1-0.4-0.3-0.8-0.6-1.2c-0.2-0.3-0.3-0.6-0.5-0.9c0.2,0,0.4-0.1,0.5-0.2c0.4-0.4,0.7,0,0.9,0.3c0.1,0.1,0.2,0.2,0.3,0
		c0.3-0.4,0.1-0.8,0.6-0.3c0.4,0.4,0.9,0.1,1.3,0c0.2,1.5,0.3,4.3,0.3,6c-0.9,0-3.6,0.2-5,0.3L17.2,21z M6.2,15.7
		c0-0.6,0.1-1.1,0.5-1.1c0.2,0,1.3-0.1,2.9-0.1c-0.1,0.5-0.3,0.9-0.4,1.4c-0.2,0-0.4,0-0.6,0.1c-0.2,0.1-0.2,0.3-0.4,0.4
		c-0.2-0.2-0.3-1-0.7-0.7C7.4,15.8,7.2,15.9,7,16C6.7,16.1,6.4,15.9,6.2,15.7 M12.9,16c-0.3-0.6-0.5-1.1-0.7-1.6c0.9,0,1.9,0,2.8,0
		c-0.1,0.5-0.3,0.9-0.4,1.4l-0.2,0.1c-0.1-0.2-0.3-0.6-0.6-0.6c-0.2,0-0.3,0.2-0.4,0.3l-0.1,0.1c-0.1,0.2-0.2,0.3-0.4,0.3L12.9,16z
		 M18.1,15.5c-0.2-0.4-0.3-0.7-0.4-1.1c2.2,0,3.9,0.1,4,0.2c0.1,0.1,0.1,0.3,0.2,0.7c-0.3,0.1-0.5,0.2-0.8,0.2c-0.3,0-0.8-1.1-1.3,0
		l0,0.1c-0.3-0.5-0.8-0.8-1.3-0.2C18.4,15.4,18.3,15.4,18.1,15.5 M18.9,7.3c0,0-7,12.7-2,13.1c1,0.1,2-1.2,1.6-2.4s-2.1-2.6-1.7-5.1
		C17.2,10.9,18.9,7.3,18.9,7.3 M13.5,7.3c0,0-7,12.7-2,13.1c1,0.1,2-1.2,1.6-2.4c-0.4-1.3-2.1-2.6-1.7-5.1
		C11.8,10.9,13.5,7.3,13.5,7.3"/>
</g>
</svg>
